{"glyphs":{"0":{"ha":764,"x_min":56,"x_max":708,"o":"m 382 -24 q 135 94 215 -24 q 56 467 56 211 q 135 836 56 717 q 382 956 215 956 q 708 467 708 956 q 626 95 708 214 q 382 -24 543 -24 m 382 142 q 482 215 449 142 q 517 467 515 289 q 482 715 517 640 q 382 790 447 790 q 280 717 313 790 q 247 467 247 643 q 280 215 247 288 q 382 142 313 142 z "},"1":{"ha":764,"x_min":113,"x_max":669,"o":"m 669 168 l 669 0 l 113 0 l 113 168 l 297 168 l 297 768 l 140 768 l 140 936 l 486 936 l 486 168 l 669 168 z "},"2":{"ha":764,"x_min":68,"x_max":713,"o":"m 68 168 l 90 188 q 335 408 261 338 q 449 538 410 479 q 489 653 489 597 q 448 755 489 719 q 336 790 407 790 q 103 733 213 790 l 103 904 q 234 944 169 933 q 372 956 299 956 q 594 881 508 956 q 681 669 681 807 q 638 506 681 582 q 524 358 596 431 q 314 168 451 286 l 713 168 l 713 0 l 68 0 l 68 168 z "},"3":{"ha":764,"x_min":83,"x_max":694,"o":"m 518 492 q 649 409 603 468 q 694 257 694 350 q 603 52 694 128 q 354 -24 511 -24 q 83 25 201 -24 l 83 196 q 197 156 136 169 q 317 142 257 142 q 453 177 406 142 q 503 281 501 213 q 458 376 503 343 q 331 408 414 408 l 194 408 l 194 574 l 331 574 q 449 601 408 574 q 489 682 489 628 q 447 762 489 733 q 328 790 406 790 q 208 778 269 790 q 97 742 147 767 l 97 913 q 354 956 203 956 q 592 890 504 956 q 681 714 681 825 q 640 574 681 626 q 518 492 599 521 z "},"4":{"ha":764,"x_min":24,"x_max":750,"o":"m 750 194 l 625 194 l 625 -24 l 436 -24 l 436 194 l 24 194 l 24 353 l 381 949 l 625 949 l 625 353 l 750 353 l 750 194 m 436 353 l 436 715 l 221 353 l 436 353 z "},"5":{"ha":764,"x_min":86,"x_max":701,"o":"m 371 606 q 615 522 528 606 q 701 297 701 438 q 606 60 701 143 q 333 -24 510 -24 q 86 17 200 -24 l 86 186 q 199 153 136 164 q 315 142 261 142 q 510 297 510 142 q 463 403 510 367 q 333 440 417 440 q 210 428 272 440 q 101 399 149 417 l 111 936 l 647 936 l 647 768 l 296 768 l 292 601 q 371 606 332 606 z "},"6":{"ha":764,"x_min":47,"x_max":719,"o":"m 426 590 q 581 553 514 590 q 683 449 647 515 q 719 297 719 382 q 677 128 719 200 q 560 16 635 56 q 393 -24 486 -24 q 136 72 225 -24 q 47 344 47 167 q 160 687 47 535 q 485 953 274 839 l 608 835 q 403 690 478 753 q 290 558 329 628 q 426 590 357 590 m 389 132 q 490 173 451 132 q 528 288 528 214 q 489 401 528 358 q 386 443 450 443 q 242 400 311 443 q 239 328 239 378 q 278 181 239 231 q 389 132 318 132 z "},"7":{"ha":764,"x_min":78,"x_max":701,"o":"m 701 936 l 701 768 l 357 -24 l 146 -24 l 507 768 l 78 768 l 78 936 l 701 936 z "},"8":{"ha":764,"x_min":46,"x_max":718,"o":"m 547 488 q 673 392 628 456 q 718 246 718 329 q 676 104 718 165 q 559 10 635 43 q 382 -24 483 -24 q 135 49 224 -24 q 46 246 46 122 q 89 393 46 331 q 213 488 132 456 q 112 575 147 518 q 76 704 76 632 q 113 833 76 776 q 217 923 149 890 q 382 956 286 956 q 543 923 474 956 q 650 833 613 890 q 688 704 688 776 q 651 576 688 633 q 547 488 614 519 m 382 800 q 300 767 332 800 q 268 681 268 733 q 300 595 268 628 q 382 563 332 563 q 464 595 432 563 q 496 681 496 628 q 464 767 496 733 q 382 800 432 800 m 382 132 q 485 169 444 132 q 526 269 526 207 q 485 369 526 332 q 382 406 444 406 q 278 369 319 406 q 238 269 238 332 q 278 169 238 207 q 382 132 319 132 z "},"9":{"ha":764,"x_min":44,"x_max":717,"o":"m 371 954 q 628 858 540 954 q 717 585 717 763 q 278 -22 717 214 l 156 96 q 360 240 286 178 q 474 372 435 303 q 338 340 407 340 q 183 378 250 340 q 81 482 117 415 q 44 633 44 549 q 87 803 44 731 q 203 915 129 875 q 371 954 278 954 m 378 486 q 521 531 456 486 q 525 601 525 564 q 485 749 525 700 q 374 799 446 799 q 274 757 313 799 q 236 642 236 715 q 274 528 236 569 q 378 486 313 486 z "},"\r":{"ha":833,"x_min":0,"x_max":0,"o":""}," ":{"ha":306,"x_min":0,"x_max":0,"o":""},"A":{"ha":1078,"x_min":39,"x_max":1038,"o":"m 750 260 l 326 260 l 233 0 l 39 0 l 421 1065 l 654 1065 l 1038 0 l 843 0 l 750 260 m 690 428 l 538 856 l 386 428 l 690 428 z "},"Á":{"ha":1078,"x_min":39,"x_max":1038,"o":"m 39 0 m 750 260 l 326 260 l 233 0 l 39 0 l 421 1065 l 654 1065 l 1038 0 l 843 0 l 750 260 m 690 428 l 538 856 l 386 428 l 690 428 m 585 1374 l 800 1374 l 632 1161 l 444 1161 l 585 1374 z "},"Ă":{"ha":1078,"x_min":39,"x_max":1038,"o":"m 39 0 m 750 260 l 326 260 l 233 0 l 39 0 l 421 1065 l 654 1065 l 1038 0 l 843 0 l 750 260 m 690 428 l 538 856 l 386 428 l 690 428 m 540 1154 q 374 1201 435 1154 q 314 1347 314 1249 l 314 1371 l 457 1371 l 457 1351 q 477 1288 457 1308 q 540 1268 497 1268 q 604 1288 585 1268 q 624 1351 624 1308 l 624 1371 l 767 1371 l 767 1347 q 708 1201 768 1249 q 540 1154 649 1154 z "},"Â":{"ha":1078,"x_min":39,"x_max":1038,"o":"m 39 0 m 750 260 l 326 260 l 233 0 l 39 0 l 421 1065 l 654 1065 l 1038 0 l 843 0 l 750 260 m 690 428 l 538 856 l 386 428 l 690 428 m 613 1161 l 539 1301 l 464 1161 l 276 1161 l 417 1374 l 660 1374 l 800 1161 l 613 1161 z "},"Ä":{"ha":1078,"x_min":39,"x_max":1038,"o":"m 39 0 m 750 260 l 326 260 l 233 0 l 39 0 l 421 1065 l 654 1065 l 1038 0 l 843 0 l 750 260 m 690 428 l 538 856 l 386 428 l 690 428 m 603 1363 l 771 1363 l 771 1171 l 603 1171 l 603 1363 m 310 1363 l 476 1363 l 476 1171 l 310 1171 l 310 1363 z "},"À":{"ha":1078,"x_min":39,"x_max":1038,"o":"m 39 0 m 750 260 l 326 260 l 233 0 l 39 0 l 421 1065 l 654 1065 l 1038 0 l 843 0 l 750 260 m 690 428 l 538 856 l 386 428 l 690 428 m 289 1374 l 504 1374 l 644 1161 l 457 1161 l 289 1374 z "},"Ā":{"ha":1078,"x_min":39,"x_max":1038,"o":"m 39 0 m 750 260 l 326 260 l 233 0 l 39 0 l 421 1065 l 654 1065 l 1038 0 l 843 0 l 750 260 m 690 428 l 538 856 l 386 428 l 690 428 m 324 1329 l 753 1329 l 753 1207 l 324 1207 l 324 1329 z "},"Ą":{"ha":1078,"x_min":39,"x_max":1038,"o":"m 39 0 m 750 260 l 326 260 l 233 0 l 39 0 l 421 1065 l 654 1065 l 1038 0 l 843 0 l 750 260 m 690 428 l 538 856 l 386 428 l 690 428 m 938 -347 q 804 -312 849 -347 q 760 -212 760 -276 q 885 0 760 -99 l 1038 0 q 940 -95 975 -50 q 904 -183 904 -140 q 965 -235 904 -235 q 1038 -218 1004 -235 l 1038 -329 q 938 -347 983 -347 z "},"Å":{"ha":1078,"x_min":39,"x_max":1038,"o":"m 39 0 m 750 260 l 326 260 l 233 0 l 39 0 l 421 1065 l 654 1065 l 1038 0 l 843 0 l 750 260 m 690 428 l 538 856 l 386 428 l 690 428 m 539 1139 q 422 1174 463 1139 q 382 1267 382 1210 q 421 1358 382 1324 q 539 1393 460 1393 q 655 1358 615 1393 q 694 1267 694 1324 q 655 1174 694 1210 q 539 1139 615 1139 m 539 1218 q 578 1231 564 1218 q 592 1267 592 1243 q 578 1301 592 1289 q 539 1314 564 1314 q 499 1301 513 1314 q 485 1267 485 1289 q 499 1231 485 1243 q 539 1218 513 1218 z "},"Ã":{"ha":1078,"x_min":39,"x_max":1038,"o":"m 39 0 m 750 260 l 326 260 l 233 0 l 39 0 l 421 1065 l 654 1065 l 1038 0 l 843 0 l 750 260 m 690 428 l 538 856 l 386 428 l 690 428 m 297 1172 q 335 1313 299 1274 q 431 1353 371 1353 q 513 1336 475 1353 l 564 1315 q 613 1303 597 1303 q 646 1353 646 1303 l 779 1353 q 742 1212 778 1251 q 646 1172 706 1172 q 565 1189 610 1172 l 514 1210 q 464 1222 481 1222 q 431 1172 431 1222 l 297 1172 z "},"Æ":{"ha":1529,"x_min":39,"x_max":1446,"o":"m 1446 158 l 1446 0 l 772 0 l 772 307 l 432 307 l 251 0 l 39 0 l 672 1053 l 1439 1053 l 1439 894 l 965 894 l 965 608 l 1369 608 l 1369 450 l 965 450 l 965 158 l 1446 158 m 772 465 l 772 886 l 525 465 l 772 465 z "},"B":{"ha":1010,"x_min":129,"x_max":928,"o":"m 739 535 q 878 443 829 506 q 928 290 928 381 q 837 72 928 144 q 532 0 746 0 l 129 0 l 129 1053 l 532 1053 q 806 982 725 1053 q 886 771 886 911 q 851 627 886 686 q 739 535 815 568 m 322 606 l 532 606 q 690 754 690 606 q 654 864 690 831 q 532 897 618 897 l 322 897 l 322 606 m 732 304 q 682 415 732 381 q 532 450 632 450 l 322 450 l 322 156 l 532 156 q 687 191 642 156 q 732 304 732 226 z "},"C":{"ha":986,"x_min":64,"x_max":938,"o":"m 599 -24 q 199 124 333 -24 q 64 524 64 271 q 124 803 64 679 q 303 1000 183 928 q 599 1072 424 1072 q 730 1060 672 1072 q 854 1021 788 1049 l 854 850 q 603 907 740 907 q 421 858 499 907 q 301 722 343 808 q 258 525 258 635 q 349 246 260 350 q 599 142 438 142 q 737 162 669 142 q 879 221 804 182 l 938 61 q 768 -2 857 19 q 599 -24 679 -24 z "},"Ć":{"ha":986,"x_min":64,"x_max":938,"o":"m 64 0 m 599 -24 q 199 124 333 -24 q 64 524 64 271 q 124 803 64 679 q 303 1000 183 928 q 599 1072 424 1072 q 730 1060 672 1072 q 854 1021 788 1049 l 854 850 q 603 907 740 907 q 421 858 499 907 q 301 722 343 808 q 258 525 258 635 q 349 246 260 350 q 599 142 438 142 q 737 162 669 142 q 879 221 804 182 l 938 61 q 768 -2 857 19 q 599 -24 679 -24 m 589 1374 l 804 1374 l 636 1161 l 449 1161 l 589 1374 z "},"Č":{"ha":986,"x_min":64,"x_max":938,"o":"m 64 0 m 599 -24 q 199 124 333 -24 q 64 524 64 271 q 124 803 64 679 q 303 1000 183 928 q 599 1072 424 1072 q 730 1060 672 1072 q 854 1021 788 1049 l 854 850 q 603 907 740 907 q 421 858 499 907 q 301 722 343 808 q 258 525 258 635 q 349 246 260 350 q 599 142 438 142 q 737 162 669 142 q 879 221 804 182 l 938 61 q 768 -2 857 19 q 599 -24 679 -24 m 804 1374 l 664 1161 l 421 1161 l 281 1374 l 468 1374 l 543 1233 l 617 1374 l 804 1374 z "},"Ç":{"ha":986,"x_min":64,"x_max":938,"o":"m 614 -74 q 725 -112 686 -74 q 764 -212 764 -150 q 716 -324 764 -282 q 576 -365 668 -365 q 500 -360 535 -365 q 429 -337 465 -354 l 429 -228 q 557 -257 493 -257 q 628 -217 628 -257 q 613 -187 628 -197 q 558 -178 597 -178 q 450 -196 500 -178 l 501 -18 q 174 151 283 8 q 64 524 64 294 q 124 803 64 679 q 303 1000 183 928 q 599 1072 424 1072 q 730 1060 672 1072 q 854 1021 788 1049 l 854 850 q 603 907 740 907 q 421 858 499 907 q 301 722 343 808 q 258 525 258 635 q 349 246 260 350 q 599 142 438 142 q 737 162 669 142 q 879 221 804 182 l 938 61 q 783 2 864 24 q 625 -24 701 -19 l 610 -74 l 614 -74 z "},"Ċ":{"ha":986,"x_min":64,"x_max":938,"o":"m 64 0 m 599 -24 q 199 124 333 -24 q 64 524 64 271 q 124 803 64 679 q 303 1000 183 928 q 599 1072 424 1072 q 730 1060 672 1072 q 854 1021 788 1049 l 854 850 q 603 907 740 907 q 421 858 499 907 q 301 722 343 808 q 258 525 258 635 q 349 246 260 350 q 599 142 438 142 q 737 162 669 142 q 879 221 804 182 l 938 61 q 768 -2 857 19 q 599 -24 679 -24 m 451 1363 l 638 1363 l 638 1171 l 451 1171 l 451 1363 z "},"D":{"ha":1110,"x_min":129,"x_max":1043,"o":"m 490 1053 q 903 919 764 1053 q 1043 525 1043 785 q 904 132 1043 264 q 490 0 765 0 l 129 0 l 129 1053 l 490 1053 m 849 529 q 759 801 849 714 q 490 888 669 888 l 322 888 l 322 165 l 490 165 q 760 252 672 165 q 849 529 849 339 z "},"Ð":{"ha":1110,"x_min":19,"x_max":1043,"o":"m 490 1053 q 903 919 764 1053 q 1043 525 1043 785 q 904 132 1043 264 q 490 0 765 0 l 129 0 l 129 458 l 19 458 l 19 600 l 129 600 l 129 1053 l 490 1053 m 849 529 q 759 801 849 714 q 490 888 669 888 l 322 888 l 322 600 l 554 600 l 554 458 l 322 458 l 322 165 l 490 165 q 760 252 672 165 q 849 529 849 339 z "},"Ď":{"ha":1110,"x_min":129,"x_max":1043,"o":"m 129 0 m 490 1053 q 903 919 764 1053 q 1043 525 1043 785 q 904 132 1043 264 q 490 0 765 0 l 129 0 l 129 1053 l 490 1053 m 849 529 q 759 801 849 714 q 490 888 669 888 l 322 888 l 322 165 l 490 165 q 760 252 672 165 q 849 529 849 339 m 801 1374 l 661 1161 l 418 1161 l 278 1374 l 465 1374 l 540 1233 l 614 1374 l 801 1374 z "},"Đ":{"ha":1110,"x_min":19,"x_max":1043,"o":"m 19 0 m 490 1053 q 903 919 764 1053 q 1043 525 1043 785 q 904 132 1043 264 q 490 0 765 0 l 129 0 l 129 458 l 19 458 l 19 600 l 129 600 l 129 1053 l 490 1053 m 849 529 q 759 801 849 714 q 490 888 669 888 l 322 888 l 322 600 l 554 600 l 554 458 l 322 458 l 322 165 l 490 165 q 760 252 672 165 q 849 529 849 339 z "},"E":{"ha":888,"x_min":129,"x_max":804,"o":"m 804 158 l 804 0 l 129 0 l 129 1053 l 797 1053 l 797 894 l 322 894 l 322 608 l 728 608 l 728 450 l 322 450 l 322 158 l 804 158 z "},"É":{"ha":888,"x_min":129,"x_max":804,"o":"m 129 0 m 804 158 l 804 0 l 129 0 l 129 1053 l 797 1053 l 797 894 l 322 894 l 322 608 l 728 608 l 728 450 l 322 450 l 322 158 l 804 158 m 511 1374 l 726 1374 l 558 1161 l 371 1161 l 511 1374 z "},"Ě":{"ha":888,"x_min":129,"x_max":804,"o":"m 129 0 m 804 158 l 804 0 l 129 0 l 129 1053 l 797 1053 l 797 894 l 322 894 l 322 608 l 728 608 l 728 450 l 322 450 l 322 158 l 804 158 m 725 1374 l 585 1161 l 342 1161 l 201 1374 l 389 1374 l 464 1233 l 538 1374 l 725 1374 z "},"Ê":{"ha":888,"x_min":129,"x_max":804,"o":"m 129 0 m 804 158 l 804 0 l 129 0 l 129 1053 l 797 1053 l 797 894 l 322 894 l 322 608 l 728 608 l 728 450 l 322 450 l 322 158 l 804 158 m 538 1161 l 464 1301 l 389 1161 l 201 1161 l 342 1374 l 585 1374 l 725 1161 l 538 1161 z "},"Ë":{"ha":888,"x_min":129,"x_max":804,"o":"m 129 0 m 804 158 l 804 0 l 129 0 l 129 1053 l 797 1053 l 797 894 l 322 894 l 322 608 l 728 608 l 728 450 l 322 450 l 322 158 l 804 158 m 529 1363 l 697 1363 l 697 1171 l 529 1171 l 529 1363 m 236 1363 l 403 1363 l 403 1171 l 236 1171 l 236 1363 z "},"Ė":{"ha":888,"x_min":129,"x_max":804,"o":"m 129 0 m 804 158 l 804 0 l 129 0 l 129 1053 l 797 1053 l 797 894 l 322 894 l 322 608 l 728 608 l 728 450 l 322 450 l 322 158 l 804 158 m 374 1363 l 560 1363 l 560 1171 l 374 1171 l 374 1363 z "},"È":{"ha":888,"x_min":129,"x_max":804,"o":"m 129 0 m 804 158 l 804 0 l 129 0 l 129 1053 l 797 1053 l 797 894 l 322 894 l 322 608 l 728 608 l 728 450 l 322 450 l 322 158 l 804 158 m 215 1374 l 431 1374 l 571 1161 l 383 1161 l 215 1374 z "},"Ē":{"ha":888,"x_min":129,"x_max":804,"o":"m 129 0 m 254 1329 l 683 1329 l 683 1207 l 254 1207 l 254 1329 m 804 158 l 804 0 l 129 0 l 129 1053 l 797 1053 l 797 894 l 322 894 l 322 608 l 728 608 l 728 450 l 322 450 l 322 158 l 804 158 z "},"Ę":{"ha":888,"x_min":129,"x_max":804,"o":"m 129 0 m 804 158 l 804 0 l 129 0 l 129 1053 l 797 1053 l 797 894 l 322 894 l 322 608 l 728 608 l 728 450 l 322 450 l 322 158 l 804 158 m 703 -347 q 569 -312 614 -347 q 525 -212 525 -276 q 650 0 525 -99 l 803 0 q 705 -95 740 -50 q 669 -183 669 -140 q 731 -235 669 -235 q 803 -218 769 -235 l 803 -329 q 703 -347 749 -347 z "},"F":{"ha":857,"x_min":129,"x_max":797,"o":"m 322 885 l 322 590 l 728 590 l 728 422 l 322 422 l 322 0 l 129 0 l 129 1053 l 797 1053 l 797 885 l 322 885 z "},"G":{"ha":1060,"x_min":64,"x_max":961,"o":"m 961 643 l 961 74 q 780 1 876 26 q 599 -24 683 -24 q 305 45 425 -24 q 124 238 185 114 q 64 525 64 361 q 122 804 64 681 q 299 1000 179 928 q 599 1072 419 1072 q 753 1055 690 1072 q 896 1003 817 1038 l 896 828 q 756 887 825 867 q 599 907 688 907 q 416 858 493 907 q 299 724 339 810 q 258 529 258 639 q 348 247 258 353 q 599 142 438 142 q 772 176 685 142 l 772 475 l 444 475 l 444 643 l 961 643 z "},"Ğ":{"ha":1060,"x_min":64,"x_max":961,"o":"m 64 0 m 961 643 l 961 74 q 780 1 876 26 q 599 -24 683 -24 q 305 45 425 -24 q 124 238 185 114 q 64 525 64 361 q 122 804 64 681 q 299 1000 179 928 q 599 1072 419 1072 q 753 1055 690 1072 q 896 1003 817 1038 l 896 828 q 756 887 825 867 q 599 907 688 907 q 416 858 493 907 q 299 724 339 810 q 258 529 258 639 q 348 247 258 353 q 599 142 438 142 q 772 176 685 142 l 772 475 l 444 475 l 444 643 l 961 643 m 578 1154 q 412 1201 472 1154 q 351 1347 351 1249 l 351 1371 l 494 1371 l 494 1351 q 515 1288 494 1308 q 578 1268 535 1268 q 642 1288 622 1268 q 661 1351 661 1308 l 661 1371 l 804 1371 l 804 1347 q 746 1201 806 1249 q 578 1154 686 1154 z "},"Ģ":{"ha":1060,"x_min":64,"x_max":961,"o":"m 64 0 m 961 643 l 961 74 q 780 1 876 26 q 599 -24 683 -24 q 305 45 425 -24 q 124 238 185 114 q 64 525 64 361 q 122 804 64 681 q 299 1000 179 928 q 599 1072 419 1072 q 753 1055 690 1072 q 896 1003 817 1038 l 896 828 q 756 887 825 867 q 599 907 688 907 q 416 858 493 907 q 299 724 339 810 q 258 529 258 639 q 348 247 258 353 q 599 142 438 142 q 772 176 685 142 l 772 475 l 444 475 l 444 643 l 961 643 m 488 -111 l 682 -111 l 619 -342 l 443 -342 l 488 -111 z "},"Ġ":{"ha":1060,"x_min":64,"x_max":961,"o":"m 64 0 m 961 643 l 961 74 q 780 1 876 26 q 599 -24 683 -24 q 305 45 425 -24 q 124 238 185 114 q 64 525 64 361 q 122 804 64 681 q 299 1000 179 928 q 599 1072 419 1072 q 753 1055 690 1072 q 896 1003 817 1038 l 896 828 q 756 887 825 867 q 599 907 688 907 q 416 858 493 907 q 299 724 339 810 q 258 529 258 639 q 348 247 258 353 q 599 142 438 142 q 772 176 685 142 l 772 475 l 444 475 l 444 643 l 961 643 m 485 1363 l 671 1363 l 671 1171 l 485 1171 l 485 1363 z "},"H":{"ha":1117,"x_min":129,"x_max":988,"o":"m 988 1053 l 988 0 l 794 0 l 794 446 l 322 446 l 322 0 l 129 0 l 129 1053 l 322 1053 l 322 613 l 794 613 l 794 1053 l 988 1053 z "},"Ħ":{"ha":1076,"x_min":129,"x_max":988,"o":"m 988 1053 l 988 0 l 794 0 l 794 446 l 322 446 l 322 0 l 129 0 l 129 1053 l 322 1053 l 322 910 l 794 910 l 794 1053 l 988 1053 m 794 613 l 794 744 l 322 744 l 322 613 l 794 613 z "},"I":{"ha":451,"x_min":129,"x_max":322,"o":"m 129 1053 l 322 1053 l 322 0 l 129 0 l 129 1053 z "},"Ĳ":{"ha":932,"x_min":129,"x_max":801,"o":"m 129 0 m 129 1053 l 322 1053 l 322 0 l 129 0 l 129 1053 m 561 -206 q 457 -196 506 -206 l 457 -31 q 529 -37 492 -37 q 577 -26 561 -37 q 601 14 593 -15 q 608 101 608 43 l 608 1053 l 801 1053 l 801 93 q 781 -91 801 -28 q 709 -180 760 -154 q 561 -206 658 -206 z "},"Í":{"ha":451,"x_min":129,"x_max":488,"o":"m 129 0 m 129 1053 l 322 1053 l 322 0 l 129 0 l 129 1053 m 272 1374 l 488 1374 l 319 1161 l 132 1161 l 272 1374 z "},"Î":{"ha":451,"x_min":-36,"x_max":488,"o":"m 0 0 m 129 1053 l 322 1053 l 322 0 l 129 0 l 129 1053 m 300 1161 l 226 1301 l 151 1161 l -36 1161 l 104 1374 l 347 1374 l 488 1161 l 300 1161 z "},"Ï":{"ha":451,"x_min":-3,"x_max":458,"o":"m 0 0 m 129 1053 l 322 1053 l 322 0 l 129 0 l 129 1053 m 290 1363 l 458 1363 l 458 1171 l 290 1171 l 290 1363 m -3 1363 l 164 1363 l 164 1171 l -3 1171 l -3 1363 z "},"İ":{"ha":451,"x_min":129,"x_max":322,"o":"m 129 0 m 129 1053 l 322 1053 l 322 0 l 129 0 l 129 1053 m 135 1363 l 321 1363 l 321 1171 l 135 1171 l 135 1363 z "},"Ì":{"ha":451,"x_min":-24,"x_max":332,"o":"m 0 0 m 129 1053 l 322 1053 l 322 0 l 129 0 l 129 1053 m -24 1374 l 192 1374 l 332 1161 l 144 1161 l -24 1374 z "},"Ī":{"ha":451,"x_min":11,"x_max":440,"o":"m 11 0 m 129 1053 l 322 1053 l 322 0 l 129 0 l 129 1053 m 11 1329 l 440 1329 l 440 1207 l 11 1207 l 11 1329 z "},"Į":{"ha":451,"x_min":24,"x_max":322,"o":"m 322 1053 l 322 0 l 301 0 q 203 -95 239 -50 q 168 -183 168 -140 q 229 -235 168 -235 q 301 -218 268 -235 l 301 -329 q 201 -347 247 -347 q 68 -312 113 -347 q 24 -212 24 -276 q 151 0 24 -97 l 129 0 l 129 1053 l 322 1053 z "},"J":{"ha":479,"x_min":6,"x_max":350,"o":"m 110 -206 q 6 -196 54 -206 l 6 -31 q 78 -37 40 -37 q 126 -26 110 -37 q 149 14 142 -15 q 157 101 157 43 l 157 1053 l 350 1053 l 350 93 q 329 -91 350 -28 q 258 -180 308 -154 q 110 -206 207 -206 z "},"K":{"ha":993,"x_min":129,"x_max":956,"o":"m 382 425 l 322 360 l 322 0 l 129 0 l 129 1053 l 322 1053 l 322 629 l 708 1053 l 949 1053 l 507 565 l 956 0 l 713 0 l 382 425 z "},"Ķ":{"ha":993,"x_min":129,"x_max":956,"o":"m 129 0 m 382 425 l 322 360 l 322 0 l 129 0 l 129 1053 l 322 1053 l 322 629 l 708 1053 l 949 1053 l 507 565 l 956 0 l 713 0 l 382 425 m 390 -111 l 585 -111 l 522 -342 l 346 -342 l 390 -111 z "},"L":{"ha":790,"x_min":129,"x_max":735,"o":"m 735 168 l 735 0 l 129 0 l 129 1053 l 322 1053 l 322 168 l 735 168 z "},"Ĺ":{"ha":790,"x_min":126,"x_max":735,"o":"m 126 0 m 735 168 l 735 0 l 129 0 l 129 1053 l 322 1053 l 322 168 l 735 168 m 267 1374 l 482 1374 l 314 1161 l 126 1161 l 267 1374 z "},"Ľ":{"ha":790,"x_min":129,"x_max":735,"o":"m 129 0 m 735 168 l 735 0 l 129 0 l 129 1053 l 322 1053 l 322 168 l 735 168 m 443 1053 l 629 1053 l 533 772 l 374 772 l 443 1053 z "},"Ļ":{"ha":790,"x_min":129,"x_max":735,"o":"m 129 0 m 735 168 l 735 0 l 129 0 l 129 1053 l 322 1053 l 322 168 l 735 168 m 335 -111 l 529 -111 l 467 -342 l 290 -342 l 335 -111 z "},"Ŀ":{"ha":790,"x_min":129,"x_max":735,"o":"m 735 168 l 735 0 l 129 0 l 129 1053 l 322 1053 l 322 168 l 735 168 m 658 425 l 458 425 l 458 663 l 658 663 l 658 425 z "},"Ł":{"ha":790,"x_min":7,"x_max":735,"o":"m 735 168 l 735 0 l 129 0 l 129 350 l 7 301 l 7 465 l 129 515 l 129 1053 l 322 1053 l 322 593 l 607 707 l 607 543 l 322 428 l 322 168 l 735 168 z "},"M":{"ha":1299,"x_min":129,"x_max":1169,"o":"m 1169 1053 l 1169 0 l 976 0 l 976 774 l 697 374 l 599 374 l 322 771 l 322 0 l 129 0 l 129 1053 l 349 1053 l 650 617 l 951 1053 l 1169 1053 z "},"N":{"ha":1117,"x_min":129,"x_max":988,"o":"m 988 1053 l 988 0 l 771 0 l 322 739 l 322 0 l 129 0 l 129 1053 l 347 1053 l 794 314 l 794 1053 l 988 1053 z "},"Ń":{"ha":1117,"x_min":129,"x_max":988,"o":"m 129 0 m 988 1053 l 988 0 l 771 0 l 322 739 l 322 0 l 129 0 l 129 1053 l 347 1053 l 794 314 l 794 1053 l 988 1053 m 613 1374 l 828 1374 l 660 1161 l 472 1161 l 613 1374 z "},"Ň":{"ha":1117,"x_min":-79,"x_max":988,"o":"m 0 0 m 988 1053 l 988 0 l 771 0 l 322 739 l 322 0 l 129 0 l 129 1053 l 347 1053 l 794 314 l 794 1053 l 988 1053 m -10 1361 l 176 1361 l 81 1081 l -79 1081 l -10 1361 z "},"Ņ":{"ha":1117,"x_min":129,"x_max":988,"o":"m 129 0 m 988 1053 l 988 0 l 771 0 l 322 739 l 322 0 l 129 0 l 129 1053 l 347 1053 l 794 314 l 794 1053 l 988 1053 m 414 -111 l 608 -111 l 546 -342 l 369 -342 l 414 -111 z "},"Ŋ":{"ha":1076,"x_min":129,"x_max":988,"o":"m 988 1053 l 988 -11 q 967 -195 988 -132 q 895 -284 946 -258 q 747 -310 844 -310 q 643 -300 692 -310 l 643 -135 q 715 -142 678 -142 q 763 -131 747 -142 q 787 -90 779 -119 q 794 -3 794 -61 l 794 6 l 322 746 l 322 0 l 129 0 l 129 1053 l 347 1053 l 794 339 l 794 1053 l 988 1053 z "},"Ñ":{"ha":1117,"x_min":129,"x_max":988,"o":"m 129 0 m 988 1053 l 988 0 l 771 0 l 322 739 l 322 0 l 129 0 l 129 1053 l 347 1053 l 794 314 l 794 1053 l 988 1053 m 325 1172 q 363 1313 326 1274 q 458 1353 399 1353 q 540 1336 503 1353 l 592 1315 q 640 1303 625 1303 q 674 1353 674 1303 l 807 1353 q 769 1212 806 1251 q 674 1172 733 1172 q 593 1189 638 1172 l 542 1210 q 492 1222 508 1222 q 458 1172 458 1222 l 325 1172 z "},"O":{"ha":1169,"x_min":64,"x_max":1107,"o":"m 586 -24 q 299 48 417 -24 q 123 244 182 119 q 64 525 64 368 q 123 803 64 679 q 300 999 182 926 q 586 1072 418 1072 q 870 999 753 1072 q 1047 802 988 926 q 1107 525 1107 678 q 1047 244 1107 368 q 870 48 988 119 q 586 -24 753 -24 m 586 142 q 760 192 688 142 q 872 330 833 242 q 910 529 910 418 q 871 722 910 636 q 759 857 832 807 q 586 907 686 907 q 408 857 482 907 q 298 720 335 807 q 261 525 261 633 q 345 248 261 354 q 586 142 429 142 z "},"Ó":{"ha":1169,"x_min":64,"x_max":1107,"o":"m 64 0 m 586 -24 q 299 48 417 -24 q 123 244 182 119 q 64 525 64 368 q 123 803 64 679 q 300 999 182 926 q 586 1072 418 1072 q 870 999 753 1072 q 1047 802 988 926 q 1107 525 1107 678 q 1047 244 1107 368 q 870 48 988 119 q 586 -24 753 -24 m 586 142 q 760 192 688 142 q 872 330 833 242 q 910 529 910 418 q 871 722 910 636 q 759 857 832 807 q 586 907 686 907 q 408 857 482 907 q 298 720 335 807 q 261 525 261 633 q 345 248 261 354 q 586 142 429 142 m 632 1374 l 847 1374 l 679 1161 l 492 1161 l 632 1374 z "},"Ô":{"ha":1169,"x_min":64,"x_max":1107,"o":"m 64 0 m 586 -24 q 299 48 417 -24 q 123 244 182 119 q 64 525 64 368 q 123 803 64 679 q 300 999 182 926 q 586 1072 418 1072 q 870 999 753 1072 q 1047 802 988 926 q 1107 525 1107 678 q 1047 244 1107 368 q 870 48 988 119 q 586 -24 753 -24 m 586 142 q 760 192 688 142 q 872 330 833 242 q 910 529 910 418 q 871 722 910 636 q 759 857 832 807 q 586 907 686 907 q 408 857 482 907 q 298 720 335 807 q 261 525 261 633 q 345 248 261 354 q 586 142 429 142 m 660 1161 l 586 1301 l 511 1161 l 324 1161 l 464 1374 l 707 1374 l 847 1161 l 660 1161 z "},"Ö":{"ha":1169,"x_min":64,"x_max":1107,"o":"m 64 0 m 586 -24 q 299 48 417 -24 q 123 244 182 119 q 64 525 64 368 q 123 803 64 679 q 300 999 182 926 q 586 1072 418 1072 q 870 999 753 1072 q 1047 802 988 926 q 1107 525 1107 678 q 1047 244 1107 368 q 870 48 988 119 q 586 -24 753 -24 m 586 142 q 760 192 688 142 q 872 330 833 242 q 910 529 910 418 q 871 722 910 636 q 759 857 832 807 q 586 907 686 907 q 408 857 482 907 q 298 720 335 807 q 261 525 261 633 q 345 248 261 354 q 586 142 429 142 m 650 1363 l 818 1363 l 818 1171 l 650 1171 l 650 1363 m 357 1363 l 524 1363 l 524 1171 l 357 1171 l 357 1363 z "},"Ò":{"ha":1169,"x_min":64,"x_max":1107,"o":"m 64 0 m 586 -24 q 299 48 417 -24 q 123 244 182 119 q 64 525 64 368 q 123 803 64 679 q 300 999 182 926 q 586 1072 418 1072 q 870 999 753 1072 q 1047 802 988 926 q 1107 525 1107 678 q 1047 244 1107 368 q 870 48 988 119 q 586 -24 753 -24 m 586 142 q 760 192 688 142 q 872 330 833 242 q 910 529 910 418 q 871 722 910 636 q 759 857 832 807 q 586 907 686 907 q 408 857 482 907 q 298 720 335 807 q 261 525 261 633 q 345 248 261 354 q 586 142 429 142 m 336 1374 l 551 1374 l 692 1161 l 504 1161 l 336 1374 z "},"Ő":{"ha":1169,"x_min":64,"x_max":1107,"o":"m 64 0 m 586 -24 q 299 48 417 -24 q 123 244 182 119 q 64 525 64 368 q 123 803 64 679 q 300 999 182 926 q 586 1072 418 1072 q 870 999 753 1072 q 1047 802 988 926 q 1107 525 1107 678 q 1047 244 1107 368 q 870 48 988 119 q 586 -24 753 -24 m 586 142 q 760 192 688 142 q 872 330 833 242 q 910 529 910 418 q 871 722 910 636 q 759 857 832 807 q 586 907 686 907 q 408 857 482 907 q 298 720 335 807 q 261 525 261 633 q 345 248 261 354 q 586 142 429 142 m 782 1374 l 979 1374 l 811 1161 l 642 1161 l 782 1374 m 496 1374 l 692 1374 l 524 1161 l 354 1161 l 496 1374 z "},"Ō":{"ha":1169,"x_min":64,"x_max":1107,"o":"m 64 0 m 586 -24 q 299 48 417 -24 q 123 244 182 119 q 64 525 64 368 q 123 803 64 679 q 300 999 182 926 q 586 1072 418 1072 q 870 999 753 1072 q 1047 802 988 926 q 1107 525 1107 678 q 1047 244 1107 368 q 870 48 988 119 q 586 -24 753 -24 m 586 142 q 760 192 688 142 q 872 330 833 242 q 910 529 910 418 q 871 722 910 636 q 759 857 832 807 q 586 907 686 907 q 408 857 482 907 q 298 720 335 807 q 261 525 261 633 q 345 248 261 354 q 586 142 429 142 m 371 1329 l 800 1329 l 800 1207 l 371 1207 l 371 1329 z "},"Ø":{"ha":1169,"x_min":49,"x_max":1125,"o":"m 1021 850 q 1085 700 1064 783 q 1107 525 1107 617 q 1047 244 1107 368 q 870 48 988 119 q 586 -24 753 -24 q 254 79 385 -24 l 164 -12 l 49 96 l 149 196 q 64 525 64 332 q 123 803 64 679 q 300 999 182 926 q 586 1072 418 1072 q 917 968 783 1072 l 1013 1065 l 1125 956 l 1021 850 m 261 525 q 292 340 261 419 l 786 838 q 586 907 706 907 q 408 857 482 907 q 298 720 335 807 q 261 525 261 633 m 910 525 q 878 707 910 624 l 383 208 q 586 142 463 142 q 760 191 688 142 q 871 327 833 240 q 910 525 908 414 z "},"Õ":{"ha":1169,"x_min":64,"x_max":1107,"o":"m 64 0 m 586 -24 q 299 48 417 -24 q 123 244 182 119 q 64 525 64 368 q 123 803 64 679 q 300 999 182 926 q 586 1072 418 1072 q 870 999 753 1072 q 1047 802 988 926 q 1107 525 1107 678 q 1047 244 1107 368 q 870 48 988 119 q 586 -24 753 -24 m 586 142 q 760 192 688 142 q 872 330 833 242 q 910 529 910 418 q 871 722 910 636 q 759 857 832 807 q 586 907 686 907 q 408 857 482 907 q 298 720 335 807 q 261 525 261 633 q 345 248 261 354 q 586 142 429 142 m 344 1172 q 382 1313 346 1274 q 478 1353 418 1353 q 560 1336 522 1353 l 611 1315 q 660 1303 644 1303 q 693 1353 693 1303 l 826 1353 q 789 1212 825 1251 q 693 1172 753 1172 q 613 1189 657 1172 l 561 1210 q 511 1222 528 1222 q 478 1172 478 1222 l 344 1172 z "},"Œ":{"ha":1546,"x_min":65,"x_max":1463,"o":"m 1463 158 l 1463 0 l 619 0 q 205 134 344 0 q 65 528 65 268 q 204 921 65 789 q 619 1053 343 1053 l 1456 1053 l 1456 894 l 981 894 l 981 608 l 1386 608 l 1386 450 l 981 450 l 981 158 l 1463 158 m 788 165 l 788 888 l 619 888 q 349 801 436 888 q 261 524 261 715 q 350 252 261 339 q 619 165 439 165 l 788 165 z "},"P":{"ha":942,"x_min":129,"x_max":900,"o":"m 528 1053 q 900 719 900 1053 q 806 474 900 558 q 528 390 713 390 l 322 390 l 322 0 l 129 0 l 129 1053 l 528 1053 m 704 724 q 660 849 704 810 q 528 888 617 888 l 322 888 l 322 554 l 528 554 q 661 596 618 554 q 704 724 704 638 z "},"Þ":{"ha":892,"x_min":129,"x_max":900,"o":"m 528 867 q 900 533 900 867 q 806 288 900 372 q 528 204 713 204 l 322 204 l 322 0 l 129 0 l 129 1053 l 322 1053 l 322 867 l 528 867 m 704 538 q 660 663 704 624 q 528 701 617 701 l 322 701 l 322 368 l 528 368 q 661 410 618 368 q 704 538 704 451 z "},"Q":{"ha":1169,"x_min":64,"x_max":1107,"o":"m 1107 525 q 1062 278 1107 390 q 931 92 1017 165 l 1090 -89 l 868 -89 l 785 8 q 586 -24 696 -24 q 299 48 417 -24 q 123 244 182 119 q 64 525 64 368 q 123 803 64 679 q 300 999 182 926 q 586 1072 418 1072 q 870 999 753 1072 q 1047 802 988 926 q 1107 525 1107 678 m 261 525 q 345 248 261 354 q 586 142 429 142 q 663 150 628 142 l 508 329 l 725 329 l 810 233 q 884 361 858 285 q 910 529 910 438 q 871 722 910 636 q 759 857 832 807 q 586 907 686 907 q 408 857 482 907 q 298 720 335 807 q 261 525 261 633 z "},"R":{"ha":1006,"x_min":129,"x_max":946,"o":"m 483 413 l 322 413 l 322 0 l 129 0 l 129 1053 l 528 1053 q 900 732 900 1053 q 844 536 900 613 q 679 431 789 460 l 946 0 l 731 0 l 483 413 m 322 578 l 528 578 q 704 736 704 578 q 660 851 704 815 q 528 888 617 888 l 322 888 l 322 578 z "},"Ŕ":{"ha":1006,"x_min":129,"x_max":946,"o":"m 129 0 m 483 413 l 322 413 l 322 0 l 129 0 l 129 1053 l 528 1053 q 900 732 900 1053 q 844 536 900 613 q 679 431 789 460 l 946 0 l 731 0 l 483 413 m 322 578 l 528 578 q 704 736 704 578 q 660 851 704 815 q 528 888 617 888 l 322 888 l 322 578 m 519 1374 l 735 1374 l 567 1161 l 379 1161 l 519 1374 z "},"Ř":{"ha":1006,"x_min":129,"x_max":946,"o":"m 129 0 m 483 413 l 322 413 l 322 0 l 129 0 l 129 1053 l 528 1053 q 900 732 900 1053 q 844 536 900 613 q 679 431 789 460 l 946 0 l 731 0 l 483 413 m 322 578 l 528 578 q 704 736 704 578 q 660 851 704 815 q 528 888 617 888 l 322 888 l 322 578 m 733 1374 l 593 1161 l 350 1161 l 210 1374 l 397 1374 l 472 1233 l 546 1374 l 733 1374 z "},"Ŗ":{"ha":1006,"x_min":129,"x_max":946,"o":"m 129 0 m 483 413 l 322 413 l 322 0 l 129 0 l 129 1053 l 528 1053 q 900 732 900 1053 q 844 536 900 613 q 679 431 789 460 l 946 0 l 731 0 l 483 413 m 322 578 l 528 578 q 704 736 704 578 q 660 851 704 815 q 528 888 617 888 l 322 888 l 322 578 m 404 -111 l 599 -111 l 536 -342 l 360 -342 l 404 -111 z "},"S":{"ha":913,"x_min":82,"x_max":839,"o":"m 456 -24 q 82 54 246 -24 l 82 229 q 456 142 250 142 q 600 179 554 142 q 647 279 646 217 q 605 371 647 340 q 471 426 563 401 l 376 453 q 236 506 296 475 q 136 598 176 538 q 96 754 96 658 q 189 991 96 910 q 451 1072 282 1072 q 630 1053 553 1072 q 788 997 707 1035 l 788 828 q 451 907 636 907 q 288 769 288 907 q 326 679 289 708 q 453 626 363 650 l 549 600 q 697 543 636 576 q 799 448 758 510 q 839 288 839 386 q 735 60 838 143 q 456 -24 633 -24 z "},"Ś":{"ha":913,"x_min":82,"x_max":839,"o":"m 82 0 m 456 -24 q 82 54 246 -24 l 82 229 q 456 142 250 142 q 600 179 554 142 q 647 279 646 217 q 605 371 647 340 q 471 426 563 401 l 376 453 q 236 506 296 475 q 136 598 176 538 q 96 754 96 658 q 189 991 96 910 q 451 1072 282 1072 q 630 1053 553 1072 q 788 997 707 1035 l 788 828 q 451 907 636 907 q 288 769 288 907 q 326 679 289 708 q 453 626 363 650 l 549 600 q 697 543 636 576 q 799 448 758 510 q 839 288 839 386 q 735 60 838 143 q 456 -24 633 -24 m 507 1374 l 722 1374 l 554 1161 l 367 1161 l 507 1374 z "},"Š":{"ha":913,"x_min":82,"x_max":839,"o":"m 82 0 m 456 -24 q 82 54 246 -24 l 82 229 q 456 142 250 142 q 600 179 554 142 q 647 279 646 217 q 605 371 647 340 q 471 426 563 401 l 376 453 q 236 506 296 475 q 136 598 176 538 q 96 754 96 658 q 189 991 96 910 q 451 1072 282 1072 q 630 1053 553 1072 q 788 997 707 1035 l 788 828 q 451 907 636 907 q 288 769 288 907 q 326 679 289 708 q 453 626 363 650 l 549 600 q 697 543 636 576 q 799 448 758 510 q 839 288 839 386 q 735 60 838 143 q 456 -24 633 -24 m 721 1374 l 581 1161 l 338 1161 l 197 1374 l 385 1374 l 460 1233 l 533 1374 l 721 1374 z "},"Ş":{"ha":913,"x_min":82,"x_max":839,"o":"m 839 288 q 750 72 838 153 q 507 -22 663 -10 l 490 -74 l 494 -74 q 606 -112 567 -74 q 644 -212 644 -150 q 597 -324 644 -282 q 457 -365 549 -365 q 381 -360 415 -365 q 311 -337 347 -354 l 311 -228 q 439 -257 375 -257 q 510 -217 510 -257 q 494 -187 510 -197 q 439 -178 478 -178 q 331 -196 381 -178 l 381 -21 q 82 54 217 -10 l 82 229 q 456 142 250 142 q 600 179 554 142 q 647 279 646 217 q 605 371 647 340 q 471 426 563 401 l 376 453 q 236 506 296 475 q 136 598 176 538 q 96 754 96 658 q 189 991 96 910 q 451 1072 282 1072 q 630 1053 553 1072 q 788 997 707 1035 l 788 828 q 451 907 636 907 q 288 769 288 907 q 326 679 289 708 q 453 626 363 650 l 549 600 q 697 543 636 576 q 799 448 758 510 q 839 288 839 386 z "},"Ș":{"ha":913,"x_min":82,"x_max":839,"o":"m 82 0 m 456 -24 q 82 54 246 -24 l 82 229 q 456 142 250 142 q 600 179 554 142 q 647 279 646 217 q 605 371 647 340 q 471 426 563 401 l 376 453 q 236 506 296 475 q 136 598 176 538 q 96 754 96 658 q 189 991 96 910 q 451 1072 282 1072 q 630 1053 553 1072 q 788 997 707 1035 l 788 828 q 451 907 636 907 q 288 769 288 907 q 326 679 289 708 q 453 626 363 650 l 549 600 q 697 543 636 576 q 799 448 758 510 q 839 288 839 386 q 735 60 838 143 q 456 -24 633 -24 m 357 -111 l 551 -111 l 489 -342 l 313 -342 l 357 -111 z "},"T":{"ha":908,"x_min":56,"x_max":853,"o":"m 853 885 l 550 885 l 550 0 l 358 0 l 358 885 l 56 885 l 56 1053 l 853 1053 l 853 885 z "},"Ŧ":{"ha":853,"x_min":46,"x_max":843,"o":"m 542 885 l 542 665 l 751 665 l 751 501 l 542 501 l 542 0 l 349 0 l 349 501 l 139 501 l 139 665 l 349 665 l 349 885 l 46 885 l 46 1053 l 843 1053 l 843 885 l 542 885 z "},"Ť":{"ha":908,"x_min":56,"x_max":853,"o":"m 56 0 m 853 885 l 550 885 l 550 0 l 358 0 l 358 885 l 56 885 l 56 1053 l 853 1053 l 853 885 m 715 1374 l 575 1161 l 332 1161 l 192 1374 l 379 1374 l 454 1233 l 528 1374 l 715 1374 z "},"Ţ":{"ha":908,"x_min":56,"x_max":853,"o":"m 515 0 l 492 -74 l 496 -74 q 607 -112 568 -74 q 646 -212 646 -150 q 598 -324 646 -282 q 458 -365 550 -365 q 383 -360 417 -365 q 313 -337 349 -354 l 313 -228 q 440 -257 376 -257 q 511 -217 511 -257 q 495 -187 511 -197 q 440 -178 479 -178 q 332 -196 382 -178 l 389 0 l 358 0 l 358 885 l 56 885 l 56 1053 l 853 1053 l 853 885 l 550 885 l 550 0 l 515 0 z "},"Ț":{"ha":908,"x_min":56,"x_max":853,"o":"m 56 0 m 853 885 l 550 885 l 550 0 l 358 0 l 358 885 l 56 885 l 56 1053 l 853 1053 l 853 885 m 358 -111 l 553 -111 l 490 -342 l 314 -342 l 358 -111 z "},"U":{"ha":1114,"x_min":128,"x_max":986,"o":"m 557 -24 q 235 85 342 -24 q 128 390 128 193 l 128 1053 l 319 1053 l 319 390 q 557 142 319 142 q 794 390 794 142 l 794 1053 l 986 1053 l 986 390 q 880 84 986 192 q 557 -24 774 -24 z "},"Ú":{"ha":1114,"x_min":128,"x_max":986,"o":"m 128 0 m 557 -24 q 235 85 342 -24 q 128 390 128 193 l 128 1053 l 319 1053 l 319 390 q 557 142 319 142 q 794 390 794 142 l 794 1053 l 986 1053 l 986 390 q 880 84 986 192 q 557 -24 774 -24 m 603 1374 l 818 1374 l 650 1161 l 463 1161 l 603 1374 z "},"Û":{"ha":1114,"x_min":128,"x_max":986,"o":"m 128 0 m 557 -24 q 235 85 342 -24 q 128 390 128 193 l 128 1053 l 319 1053 l 319 390 q 557 142 319 142 q 794 390 794 142 l 794 1053 l 986 1053 l 986 390 q 880 84 986 192 q 557 -24 774 -24 m 631 1161 l 557 1301 l 482 1161 l 294 1161 l 435 1374 l 678 1374 l 818 1161 l 631 1161 z "},"Ü":{"ha":1114,"x_min":128,"x_max":986,"o":"m 128 0 m 621 1363 l 789 1363 l 789 1171 l 621 1171 l 621 1363 m 328 1363 l 494 1363 l 494 1171 l 328 1171 l 328 1363 m 557 -24 q 235 85 342 -24 q 128 390 128 193 l 128 1053 l 319 1053 l 319 390 q 557 142 319 142 q 794 390 794 142 l 794 1053 l 986 1053 l 986 390 q 880 84 986 192 q 557 -24 774 -24 z "},"Ù":{"ha":1114,"x_min":128,"x_max":986,"o":"m 128 0 m 557 -24 q 235 85 342 -24 q 128 390 128 193 l 128 1053 l 319 1053 l 319 390 q 557 142 319 142 q 794 390 794 142 l 794 1053 l 986 1053 l 986 390 q 880 84 986 192 q 557 -24 774 -24 m 307 1374 l 522 1374 l 663 1161 l 475 1161 l 307 1374 z "},"Ű":{"ha":1114,"x_min":128,"x_max":986,"o":"m 128 0 m 557 -24 q 235 85 342 -24 q 128 390 128 193 l 128 1053 l 319 1053 l 319 390 q 557 142 319 142 q 794 390 794 142 l 794 1053 l 986 1053 l 986 390 q 880 84 986 192 q 557 -24 774 -24 m 753 1374 l 950 1374 l 782 1161 l 613 1161 l 753 1374 m 467 1374 l 663 1374 l 494 1161 l 325 1161 l 467 1374 z "},"Ū":{"ha":1114,"x_min":128,"x_max":986,"o":"m 128 0 m 557 -24 q 235 85 342 -24 q 128 390 128 193 l 128 1053 l 319 1053 l 319 390 q 557 142 319 142 q 794 390 794 142 l 794 1053 l 986 1053 l 986 390 q 880 84 986 192 q 557 -24 774 -24 m 342 1329 l 771 1329 l 771 1207 l 342 1207 l 342 1329 z "},"Ų":{"ha":1114,"x_min":128,"x_max":986,"o":"m 986 1053 l 986 390 q 908 117 986 221 q 674 -14 831 14 q 558 -183 558 -110 q 618 -235 558 -235 q 692 -218 658 -235 l 692 -329 q 592 -347 638 -347 q 458 -312 503 -347 q 413 -212 413 -276 q 513 -22 413 -112 q 224 96 319 -11 q 128 390 128 203 l 128 1053 l 319 1053 l 319 390 q 557 142 319 142 q 794 390 794 142 l 794 1053 l 986 1053 z "},"Ů":{"ha":1114,"x_min":128,"x_max":986,"o":"m 128 0 m 557 -24 q 235 85 342 -24 q 128 390 128 193 l 128 1053 l 319 1053 l 319 390 q 557 142 319 142 q 794 390 794 142 l 794 1053 l 986 1053 l 986 390 q 880 84 986 192 q 557 -24 774 -24 m 557 1139 q 440 1174 481 1139 q 400 1267 400 1210 q 439 1358 400 1324 q 557 1393 478 1393 q 673 1358 633 1393 q 713 1267 713 1324 q 673 1174 713 1210 q 557 1139 633 1139 m 557 1218 q 596 1231 582 1218 q 610 1267 610 1243 q 596 1301 610 1289 q 557 1314 582 1314 q 517 1301 531 1314 q 503 1267 503 1289 q 517 1231 503 1243 q 557 1218 531 1218 z "},"V":{"ha":1086,"x_min":44,"x_max":1043,"o":"m 1043 1053 l 661 -12 l 428 -12 l 44 1053 l 243 1053 l 544 199 l 843 1053 l 1043 1053 z "},"W":{"ha":1594,"x_min":63,"x_max":1532,"o":"m 1532 1053 l 1251 -12 l 1018 -12 l 797 782 l 578 -12 l 344 -12 l 63 1053 l 253 1053 l 461 219 l 686 1053 l 908 1053 l 1133 219 l 1342 1053 l 1532 1053 z "},"Ẃ":{"ha":1594,"x_min":63,"x_max":1532,"o":"m 63 0 m 1532 1053 l 1251 -12 l 1018 -12 l 797 782 l 578 -12 l 344 -12 l 63 1053 l 253 1053 l 461 219 l 686 1053 l 908 1053 l 1133 219 l 1342 1053 l 1532 1053 m 843 1374 l 1058 1374 l 890 1161 l 703 1161 l 843 1374 z "},"Ŵ":{"ha":1594,"x_min":63,"x_max":1532,"o":"m 63 0 m 1532 1053 l 1251 -12 l 1018 -12 l 797 782 l 578 -12 l 344 -12 l 63 1053 l 253 1053 l 461 219 l 686 1053 l 908 1053 l 1133 219 l 1342 1053 l 1532 1053 m 871 1161 l 797 1301 l 722 1161 l 535 1161 l 675 1374 l 918 1374 l 1058 1161 l 871 1161 z "},"Ẅ":{"ha":1594,"x_min":63,"x_max":1532,"o":"m 63 0 m 1532 1053 l 1251 -12 l 1018 -12 l 797 782 l 578 -12 l 344 -12 l 63 1053 l 253 1053 l 461 219 l 686 1053 l 908 1053 l 1133 219 l 1342 1053 l 1532 1053 m 861 1363 l 1029 1363 l 1029 1171 l 861 1171 l 861 1363 m 568 1363 l 735 1363 l 735 1171 l 568 1171 l 568 1363 z "},"Ẁ":{"ha":1594,"x_min":63,"x_max":1532,"o":"m 63 0 m 1532 1053 l 1251 -12 l 1018 -12 l 797 782 l 578 -12 l 344 -12 l 63 1053 l 253 1053 l 461 219 l 686 1053 l 908 1053 l 1133 219 l 1342 1053 l 1532 1053 m 547 1374 l 763 1374 l 903 1161 l 715 1161 l 547 1374 z "},"X":{"ha":1079,"x_min":50,"x_max":1031,"o":"m 806 0 l 540 399 l 275 0 l 50 0 l 428 543 l 75 1053 l 299 1053 l 542 688 l 783 1053 l 1007 1053 l 654 542 l 1031 0 l 806 0 z "},"Y":{"ha":1004,"x_min":35,"x_max":969,"o":"m 596 407 l 596 0 l 407 0 l 407 407 l 35 1053 l 229 1053 l 501 572 l 775 1053 l 969 1053 l 596 407 z "},"Ý":{"ha":1004,"x_min":35,"x_max":969,"o":"m 35 0 m 596 407 l 596 0 l 407 0 l 407 407 l 35 1053 l 229 1053 l 501 572 l 775 1053 l 969 1053 l 596 407 m 549 1374 l 764 1374 l 596 1161 l 408 1161 l 549 1374 z "},"Ŷ":{"ha":1004,"x_min":35,"x_max":969,"o":"m 35 0 m 596 407 l 596 0 l 407 0 l 407 407 l 35 1053 l 229 1053 l 501 572 l 775 1053 l 969 1053 l 596 407 m 576 1161 l 503 1301 l 428 1161 l 240 1161 l 381 1374 l 624 1374 l 764 1161 l 576 1161 z "},"Ÿ":{"ha":1004,"x_min":35,"x_max":969,"o":"m 35 0 m 596 407 l 596 0 l 407 0 l 407 407 l 35 1053 l 229 1053 l 501 572 l 775 1053 l 969 1053 l 596 407 m 567 1363 l 735 1363 l 735 1171 l 567 1171 l 567 1363 m 274 1363 l 440 1363 l 440 1171 l 274 1171 l 274 1363 z "},"Ỳ":{"ha":1004,"x_min":35,"x_max":969,"o":"m 35 0 m 596 407 l 596 0 l 407 0 l 407 407 l 35 1053 l 229 1053 l 501 572 l 775 1053 l 969 1053 l 596 407 m 253 1374 l 468 1374 l 608 1161 l 421 1161 l 253 1374 z "},"Z":{"ha":1011,"x_min":111,"x_max":918,"o":"m 918 168 l 918 0 l 111 0 l 111 165 l 633 885 l 129 885 l 129 1053 l 872 1053 l 872 888 l 351 168 l 918 168 z "},"Ź":{"ha":1011,"x_min":111,"x_max":918,"o":"m 111 0 m 918 168 l 918 0 l 111 0 l 111 165 l 633 885 l 129 885 l 129 1053 l 872 1053 l 872 888 l 351 168 l 918 168 m 554 1374 l 769 1374 l 601 1161 l 414 1161 l 554 1374 z "},"Ž":{"ha":1011,"x_min":111,"x_max":918,"o":"m 111 0 m 918 168 l 918 0 l 111 0 l 111 165 l 633 885 l 129 885 l 129 1053 l 872 1053 l 872 888 l 351 168 l 918 168 m 769 1374 l 629 1161 l 386 1161 l 246 1374 l 433 1374 l 508 1233 l 582 1374 l 769 1374 z "},"Ż":{"ha":1011,"x_min":111,"x_max":918,"o":"m 111 0 m 918 168 l 918 0 l 111 0 l 111 165 l 633 885 l 129 885 l 129 1053 l 872 1053 l 872 888 l 351 168 l 918 168 m 417 1363 l 603 1363 l 603 1171 l 417 1171 l 417 1363 z "},"a":{"ha":800,"x_min":44,"x_max":710,"o":"m 382 776 q 591 735 519 776 q 686 626 663 694 q 710 453 710 557 l 710 0 l 524 0 l 524 71 q 423 3 472 24 q 315 -18 374 -18 q 119 52 193 -18 q 44 244 44 122 q 122 438 44 369 q 333 507 199 507 q 524 464 443 507 q 510 549 522 517 q 464 598 499 581 q 361 615 429 615 l 231 615 l 231 776 l 382 776 m 349 131 q 524 208 433 131 l 524 331 q 372 368 450 368 q 272 340 311 368 q 233 247 233 311 q 266 158 233 185 q 349 131 299 131 z "},"á":{"ha":800,"x_min":44,"x_max":710,"o":"m 44 0 m 382 776 q 591 735 519 776 q 686 626 663 694 q 710 453 710 557 l 710 0 l 524 0 l 524 71 q 423 3 472 24 q 315 -18 374 -18 q 119 52 193 -18 q 44 244 44 122 q 122 438 44 369 q 333 507 199 507 q 524 464 443 507 q 510 549 522 517 q 464 598 499 581 q 361 615 429 615 l 231 615 l 231 776 l 382 776 m 349 131 q 524 208 433 131 l 524 331 q 372 368 450 368 q 272 340 311 368 q 233 247 233 311 q 266 158 233 185 q 349 131 299 131 m 439 1124 l 654 1124 l 486 911 l 299 911 l 439 1124 z "},"ă":{"ha":800,"x_min":44,"x_max":710,"o":"m 44 0 m 382 776 q 591 735 519 776 q 686 626 663 694 q 710 453 710 557 l 710 0 l 524 0 l 524 71 q 423 3 472 24 q 315 -18 374 -18 q 119 52 193 -18 q 44 244 44 122 q 122 438 44 369 q 333 507 199 507 q 524 464 443 507 q 510 549 522 517 q 464 598 499 581 q 361 615 429 615 l 231 615 l 231 776 l 382 776 m 349 131 q 524 208 433 131 l 524 331 q 372 368 450 368 q 272 340 311 368 q 233 247 233 311 q 266 158 233 185 q 349 131 299 131 m 396 904 q 230 951 290 904 q 169 1097 169 999 l 169 1121 l 313 1121 l 313 1101 q 333 1038 313 1058 q 396 1018 353 1018 q 460 1038 440 1018 q 479 1101 479 1058 l 479 1121 l 624 1121 l 624 1097 q 565 951 625 999 q 396 904 504 904 z "},"â":{"ha":800,"x_min":44,"x_max":710,"o":"m 44 0 m 382 776 q 591 735 519 776 q 686 626 663 694 q 710 453 710 557 l 710 0 l 524 0 l 524 71 q 423 3 472 24 q 315 -18 374 -18 q 119 52 193 -18 q 44 244 44 122 q 122 438 44 369 q 333 507 199 507 q 524 464 443 507 q 510 549 522 517 q 464 598 499 581 q 361 615 429 615 l 231 615 l 231 776 l 382 776 m 349 131 q 524 208 433 131 l 524 331 q 372 368 450 368 q 272 340 311 368 q 233 247 233 311 q 266 158 233 185 q 349 131 299 131 m 469 911 l 396 1051 l 321 911 l 133 911 l 274 1124 l 517 1124 l 657 911 l 469 911 z "},"ä":{"ha":800,"x_min":44,"x_max":710,"o":"m 44 0 m 382 776 q 591 735 519 776 q 686 626 663 694 q 710 453 710 557 l 710 0 l 524 0 l 524 71 q 423 3 472 24 q 315 -18 374 -18 q 119 52 193 -18 q 44 244 44 122 q 122 438 44 369 q 333 507 199 507 q 524 464 443 507 q 510 549 522 517 q 464 598 499 581 q 361 615 429 615 l 231 615 l 231 776 l 382 776 m 349 131 q 524 208 433 131 l 524 331 q 372 368 450 368 q 272 340 311 368 q 233 247 233 311 q 266 158 233 185 q 349 131 299 131 m 460 1113 l 628 1113 l 628 921 l 460 921 l 460 1113 m 167 1113 l 333 1113 l 333 921 l 167 921 l 167 1113 z "},"à":{"ha":800,"x_min":44,"x_max":710,"o":"m 44 0 m 382 776 q 591 735 519 776 q 686 626 663 694 q 710 453 710 557 l 710 0 l 524 0 l 524 71 q 423 3 472 24 q 315 -18 374 -18 q 119 52 193 -18 q 44 244 44 122 q 122 438 44 369 q 333 507 199 507 q 524 464 443 507 q 510 549 522 517 q 464 598 499 581 q 361 615 429 615 l 231 615 l 231 776 l 382 776 m 349 131 q 524 208 433 131 l 524 331 q 372 368 450 368 q 272 340 311 368 q 233 247 233 311 q 266 158 233 185 q 349 131 299 131 m 140 1124 l 354 1124 l 496 911 l 308 911 l 140 1124 z "},"ā":{"ha":800,"x_min":44,"x_max":710,"o":"m 44 0 m 382 776 q 591 735 519 776 q 686 626 663 694 q 710 453 710 557 l 710 0 l 524 0 l 524 71 q 423 3 472 24 q 315 -18 374 -18 q 119 52 193 -18 q 44 244 44 122 q 122 438 44 369 q 333 507 199 507 q 524 464 443 507 q 510 549 522 517 q 464 598 499 581 q 361 615 429 615 l 231 615 l 231 776 l 382 776 m 349 131 q 524 208 433 131 l 524 331 q 372 368 450 368 q 272 340 311 368 q 233 247 233 311 q 266 158 233 185 q 349 131 299 131 m 181 1079 l 610 1079 l 610 957 l 181 957 l 181 1079 z "},"ą":{"ha":800,"x_min":44,"x_max":710,"o":"m 382 776 q 591 735 519 776 q 686 626 663 694 q 710 453 710 557 l 710 0 q 613 -95 647 -50 q 578 -183 578 -140 q 638 -235 578 -235 q 710 -218 676 -235 l 710 -329 q 610 -347 656 -347 q 476 -312 521 -347 q 432 -212 432 -276 q 464 -103 432 -157 q 560 0 496 -50 l 524 0 l 524 71 q 423 3 472 24 q 315 -18 374 -18 q 119 52 193 -18 q 44 244 44 122 q 122 438 44 369 q 333 507 199 507 q 524 464 443 507 q 510 549 522 517 q 464 598 499 581 q 361 615 429 615 l 231 615 l 231 776 l 382 776 m 349 131 q 524 208 433 131 l 524 331 q 372 368 450 368 q 272 340 311 368 q 233 247 233 311 q 266 158 233 185 q 349 131 299 131 z "},"å":{"ha":800,"x_min":44,"x_max":710,"o":"m 44 0 m 382 776 q 591 735 519 776 q 686 626 663 694 q 710 453 710 557 l 710 0 l 524 0 l 524 71 q 423 3 472 24 q 315 -18 374 -18 q 119 52 193 -18 q 44 244 44 122 q 122 438 44 369 q 333 507 199 507 q 524 464 443 507 q 510 549 522 517 q 464 598 499 581 q 361 615 429 615 l 231 615 l 231 776 l 382 776 m 349 131 q 524 208 433 131 l 524 331 q 372 368 450 368 q 272 340 311 368 q 233 247 233 311 q 266 158 233 185 q 349 131 299 131 m 396 889 q 279 924 319 889 q 239 1017 239 960 q 278 1108 239 1074 q 396 1143 317 1143 q 512 1108 472 1143 q 551 1017 551 1074 q 512 924 551 960 q 396 889 472 889 m 396 968 q 435 981 421 968 q 449 1017 449 993 q 435 1051 449 1039 q 396 1064 421 1064 q 356 1051 369 1064 q 342 1017 342 1039 q 356 981 342 993 q 396 968 369 968 z "},"ã":{"ha":800,"x_min":44,"x_max":710,"o":"m 44 0 m 382 776 q 591 735 519 776 q 686 626 663 694 q 710 453 710 557 l 710 0 l 524 0 l 524 71 q 423 3 472 24 q 315 -18 374 -18 q 119 52 193 -18 q 44 244 44 122 q 122 438 44 369 q 333 507 199 507 q 524 464 443 507 q 510 549 522 517 q 464 598 499 581 q 361 615 429 615 l 231 615 l 231 776 l 382 776 m 349 131 q 524 208 433 131 l 524 331 q 372 368 450 368 q 272 340 311 368 q 233 247 233 311 q 266 158 233 185 q 349 131 299 131 m 154 922 q 192 1063 156 1024 q 288 1103 228 1103 q 369 1086 332 1103 l 421 1065 q 469 1053 454 1053 q 503 1103 503 1053 l 636 1103 q 599 962 635 1001 q 503 922 563 922 q 422 939 467 922 l 371 960 q 321 972 338 972 q 288 922 288 972 l 154 922 z "},"æ":{"ha":1289,"x_min":44,"x_max":1239,"o":"m 718 346 q 951 135 740 136 q 1057 149 1006 135 q 1172 193 1108 163 l 1222 46 q 1086 -8 1156 8 q 929 -24 1017 -24 q 742 11 824 -24 q 608 111 660 46 q 468 11 538 40 q 315 -18 399 -18 q 119 52 193 -18 q 44 244 44 122 q 122 438 44 369 q 333 507 199 507 q 524 464 443 507 q 510 549 522 517 q 464 598 499 581 q 361 615 429 615 l 231 615 l 231 776 l 382 776 q 636 676 572 776 q 752 767 683 736 q 904 799 821 799 q 1147 701 1057 799 q 1239 419 1238 604 l 1239 346 l 718 346 m 890 640 q 725 490 754 640 l 1043 490 q 999 604 1036 568 q 890 640 961 640 m 349 131 q 546 226 442 131 q 525 331 529 276 q 372 368 453 368 q 272 340 311 368 q 233 247 233 311 q 266 158 233 185 q 349 131 299 131 z "},"b":{"ha":928,"x_min":111,"x_max":865,"o":"m 514 799 q 697 753 617 799 q 821 615 776 707 q 865 388 865 522 q 821 160 865 253 q 697 22 776 68 q 514 -24 617 -24 q 297 61 403 -24 l 297 0 l 111 0 l 111 1175 l 297 1175 l 297 715 q 514 799 401 799 m 479 144 q 622 206 574 144 q 671 388 671 268 q 622 569 671 507 q 479 632 574 632 q 297 561 389 632 l 297 215 q 479 144 386 144 z "},"c":{"ha":758,"x_min":64,"x_max":722,"o":"m 450 -24 q 163 87 263 -22 q 64 390 64 196 q 163 690 64 582 q 450 799 263 797 q 565 790 517 799 q 664 761 613 782 l 664 588 q 567 622 613 613 q 468 632 522 632 q 257 392 257 631 q 464 144 257 144 q 668 204 564 144 l 722 49 q 450 -24 597 -24 z "},"ć":{"ha":758,"x_min":64,"x_max":722,"o":"m 64 0 m 450 -24 q 163 87 263 -22 q 64 390 64 196 q 163 690 64 582 q 450 799 263 797 q 565 790 517 799 q 664 761 613 782 l 664 588 q 567 622 613 613 q 468 632 522 632 q 257 392 257 631 q 464 144 257 144 q 668 204 564 144 l 722 49 q 450 -24 597 -24 m 474 1124 l 689 1124 l 521 911 l 333 911 l 474 1124 z "},"č":{"ha":758,"x_min":64,"x_max":722,"o":"m 64 0 m 450 -24 q 163 87 263 -22 q 64 390 64 196 q 163 690 64 582 q 450 799 263 797 q 565 790 517 799 q 664 761 613 782 l 664 588 q 567 622 613 613 q 468 632 522 632 q 257 392 257 631 q 464 144 257 144 q 668 204 564 144 l 722 49 q 450 -24 597 -24 m 692 1124 l 551 911 l 308 911 l 168 1124 l 356 1124 l 431 983 l 504 1124 l 692 1124 z "},"ç":{"ha":758,"x_min":64,"x_max":722,"o":"m 479 -74 q 591 -112 551 -74 q 631 -212 631 -150 q 583 -324 631 -282 q 442 -365 535 -365 q 367 -360 401 -365 q 296 -337 332 -354 l 296 -228 q 424 -257 360 -257 q 494 -217 494 -257 q 478 -187 494 -197 q 424 -178 463 -178 q 317 -196 367 -178 l 367 -17 q 142 113 219 7 q 64 390 64 219 q 163 690 64 582 q 450 799 263 797 q 565 790 517 799 q 664 761 613 782 l 664 588 q 567 622 613 613 q 468 632 522 632 q 257 392 257 631 q 464 144 257 144 q 668 204 564 144 l 722 49 q 492 -22 611 -14 l 475 -74 l 479 -74 z "},"ċ":{"ha":758,"x_min":64,"x_max":722,"o":"m 64 0 m 450 -24 q 163 87 263 -22 q 64 390 64 196 q 163 690 64 582 q 450 799 263 797 q 565 790 517 799 q 664 761 613 782 l 664 588 q 567 622 613 613 q 468 632 522 632 q 257 392 257 631 q 464 144 257 144 q 668 204 564 144 l 722 49 q 450 -24 597 -24 m 339 1113 l 525 1113 l 525 921 l 339 921 l 339 1113 z "},"d":{"ha":928,"x_min":64,"x_max":817,"o":"m 817 1175 l 817 0 l 631 0 l 631 61 q 414 -24 525 -24 q 160 82 256 -24 q 64 389 64 188 q 108 615 64 522 q 232 753 153 707 q 414 799 311 799 q 631 715 526 799 l 631 1175 l 817 1175 m 450 144 q 631 215 542 144 l 631 561 q 450 632 539 632 q 306 569 354 632 q 257 389 257 507 q 306 206 257 268 q 450 144 354 144 z "},"ð":{"ha":908,"x_min":64,"x_max":846,"o":"m 608 1049 q 784 776 722 931 q 846 446 846 622 q 745 103 846 231 q 456 -24 644 -24 q 169 81 274 -24 q 64 382 64 185 q 112 616 64 525 q 238 749 160 707 q 410 790 315 790 q 594 733 501 790 q 460 931 543 846 l 354 846 l 274 939 l 365 1013 q 276 1069 338 1033 l 421 1197 q 514 1135 468 1169 l 613 1214 l 696 1119 l 608 1049 m 657 435 q 649 543 657 492 q 454 622 551 622 q 310 569 367 622 q 253 382 253 515 q 456 144 253 144 q 603 219 550 144 q 657 435 656 294 z "},"ď":{"ha":928,"x_min":64,"x_max":1129,"o":"m 64 0 m 817 1175 l 817 0 l 631 0 l 631 61 q 414 -24 525 -24 q 160 82 256 -24 q 64 389 64 188 q 108 615 64 522 q 232 753 153 707 q 414 799 311 799 q 631 715 526 799 l 631 1175 l 817 1175 m 450 144 q 631 215 542 144 l 631 561 q 450 632 539 632 q 306 569 354 632 q 257 389 257 507 q 306 206 257 268 q 450 144 354 144 m 943 1049 l 1129 1049 l 1033 768 l 874 768 l 943 1049 z "},"đ":{"ha":928,"x_min":64,"x_max":911,"o":"m 911 888 l 817 888 l 817 0 l 631 0 l 631 61 q 414 -24 525 -24 q 160 82 256 -24 q 64 389 64 188 q 108 615 64 522 q 232 753 153 707 q 414 799 311 799 q 631 715 526 799 l 631 888 l 400 888 l 400 1029 l 631 1029 l 631 1175 l 817 1175 l 817 1029 l 911 1029 l 911 888 m 450 144 q 631 215 542 144 l 631 561 q 450 632 539 632 q 306 569 354 632 q 257 389 257 507 q 306 206 257 268 q 450 144 354 144 z "},"e":{"ha":829,"x_min":64,"x_max":779,"o":"m 258 346 q 492 135 281 135 q 597 149 546 135 q 713 193 649 163 l 763 46 q 626 -8 696 8 q 469 -24 557 -24 q 249 28 340 -24 q 110 174 157 81 q 64 390 64 267 q 113 612 64 519 q 244 751 161 704 q 431 799 328 799 q 685 702 593 799 q 779 419 778 606 l 779 346 l 258 346 m 431 640 q 265 490 294 640 l 583 490 q 539 604 576 568 q 431 640 501 640 z "},"é":{"ha":829,"x_min":64,"x_max":779,"o":"m 64 0 m 258 346 q 492 135 281 135 q 597 149 546 135 q 713 193 649 163 l 763 46 q 626 -8 696 8 q 469 -24 557 -24 q 249 28 340 -24 q 110 174 157 81 q 64 390 64 267 q 113 612 64 519 q 244 751 161 704 q 431 799 328 799 q 685 702 593 799 q 779 419 778 606 l 779 346 l 258 346 m 431 640 q 265 490 294 640 l 583 490 q 539 604 576 568 q 431 640 501 640 m 476 1124 l 692 1124 l 524 911 l 336 911 l 476 1124 z "},"ě":{"ha":829,"x_min":64,"x_max":779,"o":"m 64 0 m 258 346 q 492 135 281 135 q 597 149 546 135 q 713 193 649 163 l 763 46 q 626 -8 696 8 q 469 -24 557 -24 q 249 28 340 -24 q 110 174 157 81 q 64 390 64 267 q 113 612 64 519 q 244 751 161 704 q 431 799 328 799 q 685 702 593 799 q 779 419 778 606 l 779 346 l 258 346 m 431 640 q 265 490 294 640 l 583 490 q 539 604 576 568 q 431 640 501 640 m 693 1124 l 553 911 l 310 911 l 169 1124 l 357 1124 l 432 983 l 506 1124 l 693 1124 z "},"ê":{"ha":829,"x_min":64,"x_max":779,"o":"m 64 0 m 258 346 q 492 135 281 135 q 597 149 546 135 q 713 193 649 163 l 763 46 q 626 -8 696 8 q 469 -24 557 -24 q 249 28 340 -24 q 110 174 157 81 q 64 390 64 267 q 113 612 64 519 q 244 751 161 704 q 431 799 328 799 q 685 702 593 799 q 779 419 778 606 l 779 346 l 258 346 m 431 640 q 265 490 294 640 l 583 490 q 539 604 576 568 q 431 640 501 640 m 506 911 l 432 1051 l 357 911 l 169 911 l 310 1124 l 553 1124 l 693 911 l 506 911 z "},"ë":{"ha":829,"x_min":64,"x_max":779,"o":"m 64 0 m 258 346 q 492 135 281 135 q 597 149 546 135 q 713 193 649 163 l 763 46 q 626 -8 696 8 q 469 -24 557 -24 q 249 28 340 -24 q 110 174 157 81 q 64 390 64 267 q 113 612 64 519 q 244 751 161 704 q 431 799 328 799 q 685 702 593 799 q 779 419 778 606 l 779 346 l 258 346 m 431 640 q 265 490 294 640 l 583 490 q 539 604 576 568 q 431 640 501 640 m 497 1113 l 665 1113 l 665 921 l 497 921 l 497 1113 m 204 1113 l 371 1113 l 371 921 l 204 921 l 204 1113 z "},"ė":{"ha":829,"x_min":64,"x_max":779,"o":"m 64 0 m 258 346 q 492 135 281 135 q 597 149 546 135 q 713 193 649 163 l 763 46 q 626 -8 696 8 q 469 -24 557 -24 q 249 28 340 -24 q 110 174 157 81 q 64 390 64 267 q 113 612 64 519 q 244 751 161 704 q 431 799 328 799 q 685 702 593 799 q 779 419 778 606 l 779 346 l 258 346 m 431 640 q 265 490 294 640 l 583 490 q 539 604 576 568 q 431 640 501 640 m 342 1113 l 528 1113 l 528 921 l 342 921 l 342 1113 z "},"è":{"ha":829,"x_min":64,"x_max":779,"o":"m 64 0 m 258 346 q 492 135 281 135 q 597 149 546 135 q 713 193 649 163 l 763 46 q 626 -8 696 8 q 469 -24 557 -24 q 249 28 340 -24 q 110 174 157 81 q 64 390 64 267 q 113 612 64 519 q 244 751 161 704 q 431 799 328 799 q 685 702 593 799 q 779 419 778 606 l 779 346 l 258 346 m 431 640 q 265 490 294 640 l 583 490 q 539 604 576 568 q 431 640 501 640 m 176 1124 l 390 1124 l 532 911 l 344 911 l 176 1124 z "},"ē":{"ha":829,"x_min":64,"x_max":779,"o":"m 64 0 m 258 346 q 492 135 281 135 q 597 149 546 135 q 713 193 649 163 l 763 46 q 626 -8 696 8 q 469 -24 557 -24 q 249 28 340 -24 q 110 174 157 81 q 64 390 64 267 q 113 612 64 519 q 244 751 161 704 q 431 799 328 799 q 685 702 593 799 q 779 419 778 606 l 779 346 l 258 346 m 431 640 q 265 490 294 640 l 583 490 q 539 604 576 568 q 431 640 501 640 m 217 1079 l 646 1079 l 646 957 l 217 957 l 217 1079 z "},"ę":{"ha":829,"x_min":64,"x_max":779,"o":"m 258 346 q 492 135 281 135 q 597 149 546 135 q 713 193 649 163 l 763 46 q 676 7 719 21 q 572 -91 610 -44 q 535 -183 535 -137 q 596 -235 535 -235 q 668 -218 635 -235 l 668 -329 q 568 -347 614 -347 q 435 -312 479 -347 q 390 -212 390 -276 q 486 -24 390 -111 l 469 -24 q 249 28 340 -24 q 110 174 157 81 q 64 390 64 267 q 113 612 64 519 q 244 751 161 704 q 431 799 328 799 q 685 702 593 799 q 779 419 778 606 l 779 346 l 258 346 m 431 640 q 265 490 294 640 l 583 490 q 539 604 576 568 q 431 640 501 640 z "},"f":{"ha":515,"x_min":47,"x_max":481,"o":"m 404 1025 q 344 1006 360 1025 q 328 936 328 986 l 328 776 l 481 776 l 481 610 l 328 610 l 328 0 l 142 0 l 142 610 l 47 610 l 47 776 l 142 776 l 142 997 q 194 1145 142 1097 q 361 1193 247 1193 q 481 1178 413 1193 l 481 1017 q 404 1025 447 1025 z "},"g":{"ha":913,"x_min":58,"x_max":813,"o":"m 813 776 l 813 -7 q 728 -256 813 -162 q 465 -349 643 -349 q 290 -337 367 -349 q 143 -299 214 -326 l 143 -122 q 281 -166 211 -151 q 408 -181 351 -181 q 580 -135 533 -181 q 626 7 626 -89 l 626 89 q 410 4 521 4 q 154 104 250 4 q 58 403 58 204 q 103 621 58 532 q 228 754 149 710 q 410 799 307 799 q 626 715 522 799 l 626 776 l 813 776 m 444 172 q 626 243 538 172 l 626 561 q 444 632 535 632 q 301 572 350 632 q 253 403 253 513 q 301 228 253 283 q 444 172 349 172 z "},"ğ":{"ha":913,"x_min":58,"x_max":813,"o":"m 58 0 m 813 776 l 813 -7 q 728 -256 813 -162 q 465 -349 643 -349 q 290 -337 367 -349 q 143 -299 214 -326 l 143 -122 q 281 -166 211 -151 q 408 -181 351 -181 q 580 -135 533 -181 q 626 7 626 -89 l 626 89 q 410 4 521 4 q 154 104 250 4 q 58 403 58 204 q 103 621 58 532 q 228 754 149 710 q 410 799 307 799 q 626 715 522 799 l 626 776 l 813 776 m 444 172 q 626 243 538 172 l 626 561 q 444 632 535 632 q 301 572 350 632 q 253 403 253 513 q 301 228 253 283 q 444 172 349 172 m 460 904 q 294 951 354 904 q 233 1097 233 999 l 233 1121 l 376 1121 l 376 1101 q 397 1038 376 1058 q 460 1018 417 1018 q 524 1038 504 1018 q 543 1101 543 1058 l 543 1121 l 688 1121 l 688 1097 q 628 951 689 999 q 460 904 568 904 z "},"ģ":{"ha":913,"x_min":58,"x_max":813,"o":"m 58 0 m 813 776 l 813 -7 q 728 -256 813 -162 q 465 -349 643 -349 q 290 -337 367 -349 q 143 -299 214 -326 l 143 -122 q 281 -166 211 -151 q 408 -181 351 -181 q 580 -135 533 -181 q 626 7 626 -89 l 626 89 q 410 4 521 4 q 154 104 250 4 q 58 403 58 204 q 103 621 58 532 q 228 754 149 710 q 410 799 307 799 q 626 715 522 799 l 626 776 l 813 776 m 444 172 q 626 243 538 172 l 626 561 q 444 632 535 632 q 301 572 350 632 q 253 403 253 513 q 301 228 253 283 q 444 172 349 172 m 424 1171 l 600 1171 l 556 940 l 361 940 l 424 1171 z "},"ġ":{"ha":913,"x_min":58,"x_max":813,"o":"m 58 0 m 813 776 l 813 -7 q 728 -256 813 -162 q 465 -349 643 -349 q 290 -337 367 -349 q 143 -299 214 -326 l 143 -122 q 281 -166 211 -151 q 408 -181 351 -181 q 580 -135 533 -181 q 626 7 626 -89 l 626 89 q 410 4 521 4 q 154 104 250 4 q 58 403 58 204 q 103 621 58 532 q 228 754 149 710 q 410 799 307 799 q 626 715 522 799 l 626 776 l 813 776 m 444 172 q 626 243 538 172 l 626 561 q 444 632 535 632 q 301 572 350 632 q 253 403 253 513 q 301 228 253 283 q 444 172 349 172 m 367 1113 l 553 1113 l 553 921 l 367 921 l 367 1113 z "},"h":{"ha":924,"x_min":111,"x_max":819,"o":"m 524 793 q 747 717 674 793 q 819 468 819 640 l 819 0 l 633 0 l 633 468 q 601 588 633 550 q 488 626 568 626 q 297 544 393 626 l 297 0 l 111 0 l 111 1175 l 297 1175 l 297 704 q 524 793 403 793 z "},"ħ":{"ha":924,"x_min":14,"x_max":819,"o":"m 524 793 q 747 717 674 793 q 819 468 819 640 l 819 0 l 633 0 l 633 468 q 601 588 633 550 q 488 626 568 626 q 297 544 393 626 l 297 0 l 111 0 l 111 888 l 14 888 l 14 1029 l 111 1029 l 111 1175 l 297 1175 l 297 1029 l 525 1029 l 525 888 l 297 888 l 297 704 q 524 793 403 793 z "},"i":{"ha":408,"x_min":111,"x_max":297,"o":"m 111 1121 l 297 1121 l 297 911 l 111 911 l 111 1121 m 111 776 l 297 776 l 297 0 l 111 0 l 111 776 z "},"ı":{"ha":408,"x_min":111,"x_max":297,"o":"m 111 776 l 297 776 l 297 0 l 111 0 l 111 776 z "},"í":{"ha":408,"x_min":107,"x_max":463,"o":"m 107 0 m 111 776 l 297 776 l 297 0 l 111 0 l 111 776 m 247 1124 l 463 1124 l 294 911 l 107 911 l 247 1124 z "},"î":{"ha":408,"x_min":-58,"x_max":465,"o":"m 0 0 m 111 776 l 297 776 l 297 0 l 111 0 l 111 776 m 278 911 l 204 1051 l 129 911 l -58 911 l 82 1124 l 325 1124 l 465 911 l 278 911 z "},"ï":{"ha":408,"x_min":-25,"x_max":436,"o":"m 0 0 m 111 776 l 297 776 l 297 0 l 111 0 l 111 776 m 268 1113 l 436 1113 l 436 921 l 268 921 l 268 1113 m -25 1113 l 142 1113 l 142 921 l -25 921 l -25 1113 z "},"ì":{"ha":408,"x_min":-51,"x_max":304,"o":"m 0 0 m 111 776 l 297 776 l 297 0 l 111 0 l 111 776 m -51 1124 l 163 1124 l 304 911 l 117 911 l -51 1124 z "},"ĳ":{"ha":817,"x_min":111,"x_max":706,"o":"m 111 0 m 111 1121 l 297 1121 l 297 911 l 111 911 l 111 1121 m 111 776 l 297 776 l 297 0 l 111 0 l 111 776 m 519 1121 l 706 1121 l 706 911 l 519 911 l 519 1121 m 486 -347 q 367 -333 436 -347 l 367 -171 q 443 -181 406 -181 q 503 -158 488 -181 q 519 -72 519 -135 l 519 779 l 706 779 l 706 -133 q 654 -296 706 -244 q 486 -347 603 -347 z "},"ī":{"ha":408,"x_min":-11,"x_max":418,"o":"m 0 0 m 111 776 l 297 776 l 297 0 l 111 0 l 111 776 m -11 1079 l 418 1079 l 418 957 l -11 957 l -11 1079 z "},"į":{"ha":408,"x_min":1,"x_max":297,"o":"m 297 1121 l 297 911 l 111 911 l 111 1121 l 297 1121 m 111 776 l 297 776 l 297 0 l 279 0 q 182 -95 217 -50 q 147 -183 147 -140 q 207 -235 147 -235 q 279 -218 246 -235 l 279 -329 q 179 -347 225 -347 q 46 -312 90 -347 q 1 -212 1 -276 q 33 -103 1 -157 q 129 0 65 -50 l 111 0 l 111 776 z "},"j":{"ha":408,"x_min":-42,"x_max":297,"o":"m 111 1121 l 297 1121 l 297 911 l 111 911 l 111 1121 m 78 -347 q -42 -333 28 -347 l -42 -171 q 35 -181 -3 -181 q 95 -158 79 -181 q 111 -72 111 -135 l 111 779 l 297 779 l 297 -133 q 246 -296 297 -244 q 78 -347 194 -347 z "},"ȷ":{"ha":408,"x_min":-42,"x_max":297,"o":"m 78 -347 q -42 -333 28 -347 l -42 -171 q 35 -181 -3 -181 q 95 -158 79 -181 q 111 -72 111 -135 l 111 779 l 297 779 l 297 -133 q 246 -296 297 -244 q 78 -347 194 -347 z "},"k":{"ha":861,"x_min":111,"x_max":839,"o":"m 371 308 l 297 232 l 297 0 l 111 0 l 111 1175 l 297 1175 l 297 464 l 578 758 l 803 758 l 494 436 l 839 0 l 614 0 l 371 308 z "},"ķ":{"ha":861,"x_min":111,"x_max":839,"o":"m 111 0 m 371 308 l 297 232 l 297 0 l 111 0 l 111 1175 l 297 1175 l 297 464 l 578 758 l 803 758 l 494 436 l 839 0 l 614 0 l 371 308 m 340 -111 l 535 -111 l 472 -342 l 296 -342 l 340 -111 z "},"l":{"ha":485,"x_min":111,"x_max":450,"o":"m 331 -18 q 164 30 217 -18 q 111 178 111 78 l 111 1175 l 297 1175 l 297 239 q 314 169 297 189 q 374 150 331 150 q 450 158 417 150 l 450 -3 q 331 -18 385 -18 z "},"ĺ":{"ha":485,"x_min":106,"x_max":461,"o":"m 106 0 m 331 -18 q 164 30 217 -18 q 111 178 111 78 l 111 1175 l 297 1175 l 297 239 q 314 169 297 189 q 374 150 331 150 q 450 158 417 150 l 450 -3 q 331 -18 385 -18 m 246 1540 l 461 1540 l 293 1328 l 106 1328 l 246 1540 z "},"ľ":{"ha":485,"x_min":111,"x_max":619,"o":"m 111 0 m 331 -18 q 164 30 217 -18 q 111 178 111 78 l 111 1175 l 297 1175 l 297 239 q 314 169 297 189 q 374 150 331 150 q 450 158 417 150 l 450 -3 q 331 -18 385 -18 m 433 1053 l 619 1053 l 524 772 l 364 772 l 433 1053 z "},"ļ":{"ha":485,"x_min":111,"x_max":450,"o":"m 111 0 m 331 -18 q 164 30 217 -18 q 111 178 111 78 l 111 1175 l 297 1175 l 297 239 q 314 169 297 189 q 374 150 331 150 q 450 158 417 150 l 450 -3 q 331 -18 385 -18 m 207 -111 l 401 -111 l 339 -342 l 163 -342 l 207 -111 z "},"ŀ":{"ha":485,"x_min":111,"x_max":540,"o":"m 111 0 m 331 -18 q 164 30 217 -18 q 111 178 111 78 l 111 1175 l 297 1175 l 297 239 q 314 169 297 189 q 374 150 331 150 q 450 158 417 150 l 450 -3 q 331 -18 385 -18 m 340 601 l 540 601 l 540 364 l 340 364 l 340 601 z "},"ł":{"ha":485,"x_min":6,"x_max":450,"o":"m 374 150 q 450 158 417 150 l 450 -3 q 331 -18 385 -18 q 164 30 217 -18 q 111 178 111 78 l 111 483 l 6 450 l 6 611 l 111 644 l 111 1175 l 297 1175 l 297 704 l 449 751 l 449 590 l 297 542 l 297 239 q 314 169 297 189 q 374 150 331 150 z "},"m":{"ha":1399,"x_min":111,"x_max":1306,"o":"m 1019 793 q 1235 716 1164 793 q 1306 468 1306 639 l 1306 0 l 1119 0 l 1119 468 q 1089 588 1119 550 q 983 626 1058 626 q 797 540 893 626 q 801 468 801 507 l 801 0 l 615 0 l 615 468 q 585 588 615 550 q 479 626 554 626 q 297 546 389 626 l 297 0 l 111 0 l 111 776 l 297 776 l 297 706 q 515 793 401 793 q 669 763 607 793 q 763 669 731 733 q 887 763 825 732 q 1019 793 949 793 z "},"n":{"ha":924,"x_min":111,"x_max":819,"o":"m 524 793 q 747 717 674 793 q 819 468 819 640 l 819 0 l 633 0 l 633 468 q 601 588 633 550 q 488 626 568 626 q 297 544 393 626 l 297 0 l 111 0 l 111 776 l 297 776 l 297 704 q 524 793 403 793 z "},"ń":{"ha":924,"x_min":111,"x_max":819,"o":"m 111 0 m 524 793 q 747 717 674 793 q 819 468 819 640 l 819 0 l 633 0 l 633 468 q 601 588 633 550 q 488 626 568 626 q 297 544 393 626 l 297 0 l 111 0 l 111 776 l 297 776 l 297 704 q 524 793 403 793 m 515 1124 l 731 1124 l 563 911 l 375 911 l 515 1124 z "},"ň":{"ha":924,"x_min":-118,"x_max":819,"o":"m 0 0 m 524 793 q 747 717 674 793 q 819 468 819 640 l 819 0 l 633 0 l 633 468 q 601 588 633 550 q 488 626 568 626 q 297 544 393 626 l 297 0 l 111 0 l 111 776 l 297 776 l 297 704 q 524 793 403 793 m -49 1053 l 138 1053 l 42 772 l -118 772 l -49 1053 z "},"ņ":{"ha":924,"x_min":111,"x_max":819,"o":"m 111 0 m 524 793 q 747 717 674 793 q 819 468 819 640 l 819 0 l 633 0 l 633 468 q 601 588 633 550 q 488 626 568 626 q 297 544 393 626 l 297 0 l 111 0 l 111 776 l 297 776 l 297 704 q 524 793 403 793 m 381 -111 l 575 -111 l 513 -342 l 336 -342 l 381 -111 z "},"ŋ":{"ha":918,"x_min":111,"x_max":819,"o":"m 524 793 q 747 717 674 793 q 819 468 819 640 l 819 -133 q 768 -296 819 -244 q 600 -347 717 -347 q 481 -333 553 -347 l 481 -171 q 557 -181 519 -181 q 617 -158 601 -181 q 633 -72 633 -136 l 633 468 q 601 588 633 550 q 488 626 568 626 q 297 544 393 626 l 297 0 l 111 0 l 111 776 l 297 776 l 297 704 q 524 793 403 793 z "},"ñ":{"ha":924,"x_min":111,"x_max":819,"o":"m 111 0 m 524 793 q 747 717 674 793 q 819 468 819 640 l 819 0 l 633 0 l 633 468 q 601 588 633 550 q 488 626 568 626 q 297 544 393 626 l 297 0 l 111 0 l 111 776 l 297 776 l 297 704 q 524 793 403 793 m 231 922 q 268 1063 232 1024 q 364 1103 304 1103 q 446 1086 408 1103 l 497 1065 q 546 1053 531 1053 q 579 1103 579 1053 l 713 1103 q 675 962 711 1001 q 579 922 639 922 q 499 939 543 922 l 447 960 q 397 972 414 972 q 364 922 364 972 l 231 922 z "},"o":{"ha":925,"x_min":64,"x_max":861,"o":"m 464 -24 q 244 31 335 -24 q 109 178 154 85 q 64 389 64 272 q 109 597 64 504 q 244 744 154 690 q 464 799 335 799 q 681 744 592 799 q 816 597 771 690 q 861 389 861 504 q 816 178 861 272 q 681 31 771 85 q 464 -24 592 -24 m 464 139 q 615 206 563 139 q 668 389 668 274 q 615 571 668 504 q 464 638 563 638 q 310 571 364 638 q 257 389 257 504 q 310 206 257 274 q 464 139 364 139 z "},"ó":{"ha":925,"x_min":64,"x_max":861,"o":"m 64 0 m 464 -24 q 244 31 335 -24 q 109 178 154 85 q 64 389 64 272 q 109 597 64 504 q 244 744 154 690 q 464 799 335 799 q 681 744 592 799 q 816 597 771 690 q 861 389 861 504 q 816 178 861 272 q 681 31 771 85 q 464 -24 592 -24 m 464 139 q 615 206 563 139 q 668 389 668 274 q 615 571 668 504 q 464 638 563 638 q 310 571 364 638 q 257 389 257 504 q 310 206 257 274 q 464 139 364 139 m 506 1124 l 721 1124 l 553 911 l 365 911 l 506 1124 z "},"ô":{"ha":925,"x_min":64,"x_max":861,"o":"m 64 0 m 464 -24 q 244 31 335 -24 q 109 178 154 85 q 64 389 64 272 q 109 597 64 504 q 244 744 154 690 q 464 799 335 799 q 681 744 592 799 q 816 597 771 690 q 861 389 861 504 q 816 178 861 272 q 681 31 771 85 q 464 -24 592 -24 m 464 139 q 615 206 563 139 q 668 389 668 274 q 615 571 668 504 q 464 638 563 638 q 310 571 364 638 q 257 389 257 504 q 310 206 257 274 q 464 139 364 139 m 536 911 l 463 1051 l 388 911 l 200 911 l 340 1124 l 583 1124 l 724 911 l 536 911 z "},"ö":{"ha":925,"x_min":64,"x_max":861,"o":"m 64 0 m 464 -24 q 244 31 335 -24 q 109 178 154 85 q 64 389 64 272 q 109 597 64 504 q 244 744 154 690 q 464 799 335 799 q 681 744 592 799 q 816 597 771 690 q 861 389 861 504 q 816 178 861 272 q 681 31 771 85 q 464 -24 592 -24 m 464 139 q 615 206 563 139 q 668 389 668 274 q 615 571 668 504 q 464 638 563 638 q 310 571 364 638 q 257 389 257 504 q 310 206 257 274 q 464 139 364 139 m 526 1113 l 694 1113 l 694 921 l 526 921 l 526 1113 m 233 1113 l 400 1113 l 400 921 l 233 921 l 233 1113 z "},"ò":{"ha":925,"x_min":64,"x_max":861,"o":"m 64 0 m 464 -24 q 244 31 335 -24 q 109 178 154 85 q 64 389 64 272 q 109 597 64 504 q 244 744 154 690 q 464 799 335 799 q 681 744 592 799 q 816 597 771 690 q 861 389 861 504 q 816 178 861 272 q 681 31 771 85 q 464 -24 592 -24 m 464 139 q 615 206 563 139 q 668 389 668 274 q 615 571 668 504 q 464 638 563 638 q 310 571 364 638 q 257 389 257 504 q 310 206 257 274 q 464 139 364 139 m 207 1124 l 421 1124 l 563 911 l 375 911 l 207 1124 z "},"ő":{"ha":925,"x_min":64,"x_max":861,"o":"m 64 0 m 464 -24 q 244 31 335 -24 q 109 178 154 85 q 64 389 64 272 q 109 597 64 504 q 244 744 154 690 q 464 799 335 799 q 681 744 592 799 q 816 597 771 690 q 861 389 861 504 q 816 178 861 272 q 681 31 771 85 q 464 -24 592 -24 m 464 139 q 615 206 563 139 q 668 389 668 274 q 615 571 668 504 q 464 638 563 638 q 310 571 364 638 q 257 389 257 504 q 310 206 257 274 q 464 139 364 139 m 660 1124 l 856 1124 l 688 911 l 518 911 l 660 1124 m 372 1124 l 568 1124 l 400 911 l 232 911 l 372 1124 z "},"ō":{"ha":925,"x_min":64,"x_max":861,"o":"m 64 0 m 464 -24 q 244 31 335 -24 q 109 178 154 85 q 64 389 64 272 q 109 597 64 504 q 244 744 154 690 q 464 799 335 799 q 681 744 592 799 q 816 597 771 690 q 861 389 861 504 q 816 178 861 272 q 681 31 771 85 q 464 -24 592 -24 m 464 139 q 615 206 563 139 q 668 389 668 274 q 615 571 668 504 q 464 638 563 638 q 310 571 364 638 q 257 389 257 504 q 310 206 257 274 q 464 139 364 139 m 247 1079 l 676 1079 l 676 957 l 247 957 l 247 1079 z "},"ø":{"ha":925,"x_min":44,"x_max":881,"o":"m 806 618 q 861 389 861 521 q 816 178 861 272 q 681 31 771 85 q 464 -24 592 -24 q 215 50 315 -24 l 150 -12 l 44 86 l 119 158 q 64 389 64 256 q 109 597 64 504 q 244 744 154 690 q 464 799 335 799 q 711 726 611 799 l 778 790 l 881 692 l 806 618 m 257 389 q 267 300 257 338 l 582 601 q 464 638 533 638 q 310 571 364 638 q 257 389 257 504 m 668 389 q 658 476 668 431 l 343 174 q 464 139 393 139 q 615 206 563 139 q 668 389 668 274 z "},"õ":{"ha":925,"x_min":64,"x_max":861,"o":"m 64 0 m 464 -24 q 244 31 335 -24 q 109 178 154 85 q 64 389 64 272 q 109 597 64 504 q 244 744 154 690 q 464 799 335 799 q 681 744 592 799 q 816 597 771 690 q 861 389 861 504 q 816 178 861 272 q 681 31 771 85 q 464 -24 592 -24 m 464 139 q 615 206 563 139 q 668 389 668 274 q 615 571 668 504 q 464 638 563 638 q 310 571 364 638 q 257 389 257 504 q 310 206 257 274 q 464 139 364 139 m 221 922 q 258 1063 222 1024 q 354 1103 294 1103 q 436 1086 399 1103 l 488 1065 q 536 1053 521 1053 q 569 1103 569 1053 l 703 1103 q 665 962 701 1001 q 569 922 629 922 q 489 939 533 922 l 438 960 q 388 972 404 972 q 354 922 354 972 l 221 922 z "},"œ":{"ha":1433,"x_min":64,"x_max":1383,"o":"m 863 346 q 1096 135 885 135 q 1201 149 1150 135 q 1317 193 1253 163 l 1367 46 q 1231 -8 1300 8 q 1074 -24 1161 -24 q 890 16 968 -24 q 764 129 811 56 q 638 17 715 57 q 454 -24 560 -24 q 240 31 328 -24 q 108 178 151 85 q 64 389 64 272 q 108 597 64 504 q 240 744 151 690 q 454 799 328 799 q 636 759 558 799 q 763 649 714 719 q 883 760 808 721 q 1044 799 957 799 q 1292 702 1203 799 q 1383 419 1382 606 l 1383 346 l 863 346 m 1035 640 q 869 490 899 640 l 1188 490 q 1143 604 1181 568 q 1035 640 1106 640 m 464 139 q 615 206 563 139 q 668 389 668 274 q 615 571 668 504 q 464 638 563 638 q 310 571 364 638 q 257 389 257 504 q 310 206 257 274 q 464 139 364 139 z "},"p":{"ha":928,"x_min":111,"x_max":865,"o":"m 514 799 q 697 753 617 799 q 821 615 776 707 q 865 388 865 522 q 821 160 865 253 q 697 22 776 68 q 514 -24 617 -24 q 297 61 403 -24 l 297 -325 l 111 -325 l 111 776 l 297 776 l 297 715 q 514 799 401 799 m 479 144 q 622 206 574 144 q 671 388 671 268 q 622 569 671 507 q 479 632 574 632 q 297 561 389 632 l 297 215 q 479 144 386 144 z "},"þ":{"ha":865,"x_min":111,"x_max":865,"o":"m 514 799 q 697 753 617 799 q 821 615 776 707 q 865 388 865 522 q 821 160 865 253 q 697 22 776 68 q 514 -24 617 -24 q 297 61 403 -24 l 297 -325 l 111 -325 l 111 1175 l 297 1175 l 297 715 q 514 799 401 799 m 479 144 q 622 206 574 144 q 671 388 671 268 q 622 569 671 507 q 479 632 574 632 q 297 561 389 632 l 297 215 q 479 144 386 144 z "},"q":{"ha":928,"x_min":64,"x_max":817,"o":"m 817 776 l 817 -325 l 631 -325 l 631 61 q 414 -24 525 -24 q 160 82 256 -24 q 64 389 64 188 q 108 615 64 522 q 232 753 153 707 q 414 799 311 799 q 631 715 526 799 l 631 776 l 817 776 m 450 144 q 631 215 542 144 l 631 561 q 450 632 539 632 q 306 569 354 632 q 257 389 257 507 q 306 206 257 268 q 450 144 354 144 z "},"r":{"ha":594,"x_min":111,"x_max":553,"o":"m 553 793 l 553 626 l 521 626 q 297 540 407 626 l 297 0 l 111 0 l 111 776 l 297 776 l 297 699 q 521 793 404 793 l 553 793 z "},"ŕ":{"ha":594,"x_min":111,"x_max":583,"o":"m 111 0 m 553 793 l 553 626 l 521 626 q 297 540 407 626 l 297 0 l 111 0 l 111 776 l 297 776 l 297 699 q 521 793 404 793 l 553 793 m 368 1124 l 583 1124 l 415 911 l 228 911 l 368 1124 z "},"ř":{"ha":594,"x_min":63,"x_max":586,"o":"m 63 0 m 553 793 l 553 626 l 521 626 q 297 540 407 626 l 297 0 l 111 0 l 111 776 l 297 776 l 297 699 q 521 793 404 793 l 553 793 m 586 1124 l 446 911 l 203 911 l 63 1124 l 250 1124 l 325 983 l 399 1124 l 586 1124 z "},"ŗ":{"ha":594,"x_min":68,"x_max":553,"o":"m 68 0 m 553 793 l 553 626 l 521 626 q 297 540 407 626 l 297 0 l 111 0 l 111 776 l 297 776 l 297 699 q 521 793 404 793 l 553 793 m 113 -111 l 307 -111 l 244 -342 l 68 -342 l 113 -111 z "},"s":{"ha":749,"x_min":68,"x_max":683,"o":"m 376 -24 q 215 -8 286 -24 q 68 43 144 7 l 68 214 q 217 153 142 172 q 376 135 293 135 q 494 219 494 135 q 474 273 494 256 q 411 301 454 290 l 297 326 q 135 403 190 350 q 81 557 81 457 q 382 799 81 799 q 647 749 514 799 l 647 585 q 529 625 596 610 q 390 640 463 640 q 269 568 269 640 q 290 519 269 535 q 350 494 310 504 l 463 469 q 629 390 575 443 q 683 228 683 338 q 600 40 683 104 q 376 -24 517 -24 z "},"ś":{"ha":749,"x_min":68,"x_max":683,"o":"m 68 0 m 376 -24 q 215 -8 286 -24 q 68 43 144 7 l 68 214 q 217 153 142 172 q 376 135 293 135 q 494 219 494 135 q 474 273 494 256 q 411 301 454 290 l 297 326 q 135 403 190 350 q 81 557 81 457 q 382 799 81 799 q 647 749 514 799 l 647 585 q 529 625 596 610 q 390 640 463 640 q 269 568 269 640 q 290 519 269 535 q 350 494 310 504 l 463 469 q 629 390 575 443 q 683 228 683 338 q 600 40 683 104 q 376 -24 517 -24 m 426 1124 l 642 1124 l 474 911 l 286 911 l 426 1124 z "},"š":{"ha":749,"x_min":68,"x_max":683,"o":"m 68 0 m 376 -24 q 215 -8 286 -24 q 68 43 144 7 l 68 214 q 217 153 142 172 q 376 135 293 135 q 494 219 494 135 q 474 273 494 256 q 411 301 454 290 l 297 326 q 135 403 190 350 q 81 557 81 457 q 382 799 81 799 q 647 749 514 799 l 647 585 q 529 625 596 610 q 390 640 463 640 q 269 568 269 640 q 290 519 269 535 q 350 494 310 504 l 463 469 q 629 390 575 443 q 683 228 683 338 q 600 40 683 104 q 376 -24 517 -24 m 644 1124 l 504 911 l 261 911 l 121 1124 l 308 1124 l 383 983 l 457 1124 l 644 1124 z "},"ş":{"ha":749,"x_min":68,"x_max":683,"o":"m 683 228 q 616 54 683 117 q 431 -21 549 -8 l 414 -74 l 418 -74 q 530 -112 490 -74 q 569 -212 569 -150 q 522 -324 569 -282 q 381 -365 474 -365 q 306 -360 340 -365 q 235 -337 271 -354 l 235 -228 q 363 -257 299 -257 q 433 -217 433 -257 q 417 -187 433 -197 q 363 -178 401 -178 q 256 -196 306 -178 l 304 -21 q 185 -1 240 -17 q 68 43 129 14 l 68 214 q 217 153 142 172 q 376 135 293 135 q 494 219 494 135 q 474 273 494 256 q 411 301 454 290 l 297 326 q 135 403 190 350 q 81 557 81 457 q 382 799 81 799 q 647 749 514 799 l 647 585 q 529 625 596 610 q 390 640 463 640 q 269 568 269 640 q 290 519 269 535 q 350 494 310 504 l 463 469 q 629 390 575 443 q 683 228 683 338 z "},"ș":{"ha":749,"x_min":68,"x_max":683,"o":"m 68 0 m 376 -24 q 215 -8 286 -24 q 68 43 144 7 l 68 214 q 217 153 142 172 q 376 135 293 135 q 494 219 494 135 q 474 273 494 256 q 411 301 454 290 l 297 326 q 135 403 190 350 q 81 557 81 457 q 382 799 81 799 q 647 749 514 799 l 647 585 q 529 625 596 610 q 390 640 463 640 q 269 568 269 640 q 290 519 269 535 q 350 494 310 504 l 463 469 q 629 390 575 443 q 683 228 683 338 q 600 40 683 104 q 376 -24 517 -24 m 281 -111 l 475 -111 l 413 -342 l 236 -342 l 281 -111 z "},"ß":{"ha":903,"x_min":111,"x_max":863,"o":"m 582 -24 q 492 -17 532 -24 q 408 8 453 -11 l 408 171 q 554 135 488 135 q 674 228 674 135 q 649 287 674 265 q 568 335 624 308 q 479 386 514 361 q 419 456 444 411 q 394 569 394 500 q 413 669 394 629 q 468 761 432 710 q 515 838 500 806 q 531 914 531 869 q 504 999 531 972 q 424 1025 478 1025 q 327 992 357 1025 q 297 876 297 958 l 297 0 l 111 0 l 111 876 q 191 1117 111 1042 q 431 1193 271 1193 q 640 1124 564 1193 q 717 926 717 1054 q 694 792 717 846 q 631 681 671 739 q 594 619 604 639 q 583 572 583 599 q 608 521 583 542 q 685 471 632 500 q 776 415 740 440 q 837 344 811 389 q 863 232 863 299 q 785 41 860 106 q 582 -24 710 -24 z "},"t":{"ha":564,"x_min":47,"x_max":514,"o":"m 336 590 l 336 239 q 353 169 336 189 q 414 150 369 150 q 499 161 458 150 l 499 -1 q 368 -18 419 -18 q 201 31 253 -18 q 150 181 150 79 l 150 590 l 47 590 l 47 758 l 150 758 l 150 1022 l 336 1022 l 336 758 l 514 758 l 514 590 l 336 590 z "},"ŧ":{"ha":564,"x_min":47,"x_max":515,"o":"m 336 306 l 336 239 q 353 169 336 189 q 414 150 369 150 q 499 161 458 150 l 499 -1 q 368 -18 419 -18 q 201 31 253 -18 q 150 181 150 79 l 150 306 l 47 306 l 47 464 l 150 464 l 150 590 l 47 590 l 47 758 l 150 758 l 150 1022 l 336 1022 l 336 758 l 514 758 l 514 590 l 336 590 l 336 464 l 515 464 l 515 306 l 336 306 z "},"ť":{"ha":564,"x_min":47,"x_max":638,"o":"m 47 0 m 336 590 l 336 239 q 353 169 336 189 q 414 150 369 150 q 499 161 458 150 l 499 -1 q 368 -18 419 -18 q 201 31 253 -18 q 150 181 150 79 l 150 590 l 47 590 l 47 758 l 150 758 l 150 1022 l 336 1022 l 336 758 l 514 758 l 514 590 l 336 590 m 451 1122 l 638 1122 l 542 842 l 382 842 l 451 1122 z "},"ţ":{"ha":564,"x_min":47,"x_max":524,"o":"m 374 -74 q 485 -112 446 -74 q 524 -212 524 -150 q 476 -324 524 -282 q 336 -365 428 -365 q 260 -360 294 -365 q 189 -337 225 -354 l 189 -228 q 317 -257 253 -257 q 388 -217 388 -257 q 372 -187 388 -197 q 318 -178 357 -178 q 210 -196 260 -178 l 265 -4 q 178 60 206 14 q 150 181 150 107 l 150 590 l 47 590 l 47 758 l 150 758 l 150 1022 l 336 1022 l 336 758 l 514 758 l 514 590 l 336 590 l 336 239 q 353 169 336 189 q 414 150 369 150 q 499 161 458 150 l 499 -1 q 388 -18 428 -17 l 369 -74 l 374 -74 z "},"ț":{"ha":564,"x_min":47,"x_max":514,"o":"m 47 0 m 336 590 l 336 239 q 353 169 336 189 q 414 150 369 150 q 499 161 458 150 l 499 -1 q 368 -18 419 -18 q 201 31 253 -18 q 150 181 150 79 l 150 590 l 47 590 l 47 758 l 150 758 l 150 1022 l 336 1022 l 336 758 l 514 758 l 514 590 l 336 590 m 236 -111 l 431 -111 l 368 -342 l 192 -342 l 236 -111 z "},"u":{"ha":924,"x_min":104,"x_max":813,"o":"m 813 776 l 813 0 l 626 0 l 626 72 q 400 -17 521 -17 q 177 60 250 -17 q 104 310 104 138 l 104 776 l 290 776 l 290 310 q 323 189 290 226 q 436 151 356 151 q 626 232 531 151 l 626 776 l 813 776 z "},"ú":{"ha":924,"x_min":104,"x_max":813,"o":"m 104 0 m 813 776 l 813 0 l 626 0 l 626 72 q 400 -17 521 -17 q 177 60 250 -17 q 104 310 104 138 l 104 776 l 290 776 l 290 310 q 323 189 290 226 q 436 151 356 151 q 626 232 531 151 l 626 776 l 813 776 m 503 1124 l 718 1124 l 550 911 l 363 911 l 503 1124 z "},"û":{"ha":924,"x_min":104,"x_max":813,"o":"m 104 0 m 813 776 l 813 0 l 626 0 l 626 72 q 400 -17 521 -17 q 177 60 250 -17 q 104 310 104 138 l 104 776 l 290 776 l 290 310 q 323 189 290 226 q 436 151 356 151 q 626 232 531 151 l 626 776 l 813 776 m 533 911 l 460 1051 l 385 911 l 197 911 l 338 1124 l 581 1124 l 721 911 l 533 911 z "},"ü":{"ha":924,"x_min":104,"x_max":813,"o":"m 104 0 m 813 776 l 813 0 l 626 0 l 626 72 q 400 -17 521 -17 q 177 60 250 -17 q 104 310 104 138 l 104 776 l 290 776 l 290 310 q 323 189 290 226 q 436 151 356 151 q 626 232 531 151 l 626 776 l 813 776 m 524 1113 l 692 1113 l 692 921 l 524 921 l 524 1113 m 231 1113 l 397 1113 l 397 921 l 231 921 l 231 1113 z "},"ù":{"ha":924,"x_min":104,"x_max":813,"o":"m 104 0 m 813 776 l 813 0 l 626 0 l 626 72 q 400 -17 521 -17 q 177 60 250 -17 q 104 310 104 138 l 104 776 l 290 776 l 290 310 q 323 189 290 226 q 436 151 356 151 q 626 232 531 151 l 626 776 l 813 776 m 204 1124 l 418 1124 l 560 911 l 372 911 l 204 1124 z "},"ű":{"ha":924,"x_min":104,"x_max":853,"o":"m 104 0 m 813 776 l 813 0 l 626 0 l 626 72 q 400 -17 521 -17 q 177 60 250 -17 q 104 310 104 138 l 104 776 l 290 776 l 290 310 q 323 189 290 226 q 436 151 356 151 q 626 232 531 151 l 626 776 l 813 776 m 657 1124 l 853 1124 l 685 911 l 515 911 l 657 1124 m 369 1124 l 565 1124 l 397 911 l 229 911 l 369 1124 z "},"ū":{"ha":924,"x_min":104,"x_max":813,"o":"m 104 0 m 813 776 l 813 0 l 626 0 l 626 72 q 400 -17 521 -17 q 177 60 250 -17 q 104 310 104 138 l 104 776 l 290 776 l 290 310 q 323 189 290 226 q 436 151 356 151 q 626 232 531 151 l 626 776 l 813 776 m 244 1079 l 674 1079 l 674 957 l 244 957 l 244 1079 z "},"ų":{"ha":924,"x_min":104,"x_max":813,"o":"m 813 776 l 813 0 q 715 -95 750 -50 q 681 -183 681 -140 q 740 -235 681 -235 q 813 -218 779 -235 l 813 -329 q 713 -347 758 -347 q 579 -312 624 -347 q 535 -212 535 -276 q 567 -103 535 -157 q 663 0 599 -50 l 626 0 l 626 72 q 400 -17 521 -17 q 177 60 250 -17 q 104 310 104 138 l 104 776 l 290 776 l 290 310 q 323 189 290 226 q 436 151 356 151 q 626 232 531 151 l 626 776 l 813 776 z "},"ů":{"ha":924,"x_min":104,"x_max":813,"o":"m 104 0 m 813 776 l 813 0 l 626 0 l 626 72 q 400 -17 521 -17 q 177 60 250 -17 q 104 310 104 138 l 104 776 l 290 776 l 290 310 q 323 189 290 226 q 436 151 356 151 q 626 232 531 151 l 626 776 l 813 776 m 460 889 q 343 924 383 889 q 303 1017 303 960 q 342 1108 303 1074 q 460 1143 381 1143 q 576 1108 536 1143 q 615 1017 615 1074 q 576 924 615 960 q 460 889 536 889 m 460 968 q 499 981 485 968 q 513 1017 513 993 q 499 1051 513 1039 q 460 1064 485 1064 q 419 1051 433 1064 q 406 1017 406 1039 q 419 981 406 993 q 460 968 433 968 z "},"v":{"ha":836,"x_min":28,"x_max":808,"o":"m 808 776 l 535 -12 l 301 -12 l 28 776 l 219 776 l 418 165 l 617 776 l 808 776 z "},"w":{"ha":1267,"x_min":38,"x_max":1229,"o":"m 1229 776 l 1013 -12 l 797 -12 l 633 514 l 471 -12 l 256 -12 l 38 776 l 229 776 l 365 219 l 524 776 l 743 776 l 903 219 l 1038 776 l 1229 776 z "},"ẃ":{"ha":1267,"x_min":38,"x_max":1229,"o":"m 38 0 m 1229 776 l 1013 -12 l 797 -12 l 633 514 l 471 -12 l 256 -12 l 38 776 l 229 776 l 365 219 l 524 776 l 743 776 l 903 219 l 1038 776 l 1229 776 m 676 1124 l 892 1124 l 724 911 l 536 911 l 676 1124 z "},"ŵ":{"ha":1267,"x_min":38,"x_max":1229,"o":"m 38 0 m 1229 776 l 1013 -12 l 797 -12 l 633 514 l 471 -12 l 256 -12 l 38 776 l 229 776 l 365 219 l 524 776 l 743 776 l 903 219 l 1038 776 l 1229 776 m 707 911 l 633 1051 l 558 911 l 371 911 l 511 1124 l 754 1124 l 894 911 l 707 911 z "},"ẅ":{"ha":1267,"x_min":38,"x_max":1229,"o":"m 38 0 m 1229 776 l 1013 -12 l 797 -12 l 633 514 l 471 -12 l 256 -12 l 38 776 l 229 776 l 365 219 l 524 776 l 743 776 l 903 219 l 1038 776 l 1229 776 m 697 1113 l 865 1113 l 865 921 l 697 921 l 697 1113 m 404 1113 l 571 1113 l 571 921 l 404 921 l 404 1113 z "},"ẁ":{"ha":1267,"x_min":38,"x_max":1229,"o":"m 38 0 m 1229 776 l 1013 -12 l 797 -12 l 633 514 l 471 -12 l 256 -12 l 38 776 l 229 776 l 365 219 l 524 776 l 743 776 l 903 219 l 1038 776 l 1229 776 m 378 1124 l 592 1124 l 733 911 l 546 911 l 378 1124 z "},"x":{"ha":839,"x_min":38,"x_max":801,"o":"m 582 0 l 415 258 l 257 0 l 38 0 l 303 406 l 51 776 l 271 776 l 421 542 l 572 776 l 789 776 l 531 394 l 801 0 l 582 0 z "},"y":{"ha":799,"x_min":28,"x_max":771,"o":"m 771 776 l 444 -124 q 377 -260 413 -212 q 294 -328 342 -308 q 172 -349 246 -349 q 64 -333 113 -349 l 64 -171 q 144 -181 99 -181 q 227 -156 197 -181 q 283 -62 257 -132 l 307 0 l 28 776 l 219 776 l 397 251 l 589 776 l 771 776 z "},"ý":{"ha":799,"x_min":28,"x_max":771,"o":"m 28 0 m 771 776 l 444 -124 q 377 -260 413 -212 q 294 -328 342 -308 q 172 -349 246 -349 q 64 -333 113 -349 l 64 -171 q 144 -181 99 -181 q 227 -156 197 -181 q 283 -62 257 -132 l 307 0 l 28 776 l 219 776 l 397 251 l 589 776 l 771 776 m 443 1124 l 658 1124 l 490 911 l 303 911 l 443 1124 z "},"ŷ":{"ha":799,"x_min":28,"x_max":771,"o":"m 28 0 m 771 776 l 444 -124 q 377 -260 413 -212 q 294 -328 342 -308 q 172 -349 246 -349 q 64 -333 113 -349 l 64 -171 q 144 -181 99 -181 q 227 -156 197 -181 q 283 -62 257 -132 l 307 0 l 28 776 l 219 776 l 397 251 l 589 776 l 771 776 m 474 911 l 400 1051 l 325 911 l 138 911 l 278 1124 l 521 1124 l 661 911 l 474 911 z "},"ÿ":{"ha":799,"x_min":28,"x_max":771,"o":"m 28 0 m 771 776 l 444 -124 q 377 -260 413 -212 q 294 -328 342 -308 q 172 -349 246 -349 q 64 -333 113 -349 l 64 -171 q 144 -181 99 -181 q 227 -156 197 -181 q 283 -62 257 -132 l 307 0 l 28 776 l 219 776 l 397 251 l 589 776 l 771 776 m 464 1113 l 632 1113 l 632 921 l 464 921 l 464 1113 m 171 1113 l 338 1113 l 338 921 l 171 921 l 171 1113 z "},"ỳ":{"ha":799,"x_min":28,"x_max":771,"o":"m 28 0 m 771 776 l 444 -124 q 377 -260 413 -212 q 294 -328 342 -308 q 172 -349 246 -349 q 64 -333 113 -349 l 64 -171 q 144 -181 99 -181 q 227 -156 197 -181 q 283 -62 257 -132 l 307 0 l 28 776 l 219 776 l 397 251 l 589 776 l 771 776 m 144 1124 l 358 1124 l 500 911 l 313 911 l 144 1124 z "},"z":{"ha":772,"x_min":92,"x_max":707,"o":"m 707 165 l 707 0 l 92 0 l 92 165 l 468 613 l 117 613 l 117 776 l 676 776 l 676 613 l 301 165 l 707 165 z "},"ź":{"ha":772,"x_min":92,"x_max":707,"o":"m 92 0 m 707 165 l 707 0 l 92 0 l 92 165 l 468 613 l 117 613 l 117 776 l 676 776 l 676 613 l 301 165 l 707 165 m 431 1124 l 646 1124 l 478 911 l 290 911 l 431 1124 z "},"ž":{"ha":772,"x_min":92,"x_max":707,"o":"m 92 0 m 707 165 l 707 0 l 92 0 l 92 165 l 468 613 l 117 613 l 117 776 l 676 776 l 676 613 l 301 165 l 707 165 m 647 1124 l 507 911 l 264 911 l 124 1124 l 311 1124 l 386 983 l 460 1124 l 647 1124 z "},"ż":{"ha":772,"x_min":92,"x_max":707,"o":"m 92 0 m 707 165 l 707 0 l 92 0 l 92 165 l 468 613 l 117 613 l 117 776 l 676 776 l 676 613 l 301 165 l 707 165 m 296 1113 l 482 1113 l 482 921 l 296 921 l 296 1113 z "},"ﬁ":{"ha":924,"x_min":47,"x_max":813,"o":"m 47 0 m 404 1025 q 344 1006 360 1025 q 328 936 328 986 l 328 776 l 481 776 l 481 610 l 328 610 l 328 0 l 142 0 l 142 610 l 47 610 l 47 776 l 142 776 l 142 997 q 194 1145 142 1097 q 361 1193 247 1193 q 481 1178 413 1193 l 481 1017 q 404 1025 447 1025 m 626 1121 l 813 1121 l 813 911 l 626 911 l 626 1121 m 626 776 l 813 776 l 813 0 l 626 0 l 626 776 z "},"ﬂ":{"ha":1000,"x_min":47,"x_max":965,"o":"m 47 0 m 404 1025 q 344 1006 360 1025 q 328 936 328 986 l 328 776 l 481 776 l 481 610 l 328 610 l 328 0 l 142 0 l 142 610 l 47 610 l 47 776 l 142 776 l 142 997 q 194 1145 142 1097 q 361 1193 247 1193 q 481 1178 413 1193 l 481 1017 q 404 1025 447 1025 m 846 -18 q 679 30 732 -18 q 626 178 626 78 l 626 1175 l 813 1175 l 813 239 q 829 169 813 189 q 889 150 846 150 q 965 158 932 150 l 965 -3 q 846 -18 900 -18 z "},"ª":{"ha":551,"x_min":22,"x_max":499,"o":"m 268 964 q 414 931 364 964 q 481 843 464 899 q 499 706 499 788 l 499 394 l 361 394 l 361 435 q 215 382 297 382 q 77 431 132 382 q 22 567 22 481 q 77 711 22 660 q 226 763 132 763 q 360 733 300 763 q 335 808 357 785 q 253 832 314 832 l 151 832 l 151 964 l 268 964 m 249 500 q 361 539 303 500 l 361 628 q 260 643 317 643 q 197 626 222 643 q 171 569 171 610 q 194 517 171 533 q 249 500 217 500 z "},"º":{"ha":718,"x_min":65,"x_max":653,"o":"m 360 382 q 201 422 268 382 q 100 530 135 461 q 65 683 65 599 q 100 836 65 768 q 201 944 135 904 q 360 983 268 983 q 517 944 451 983 q 618 836 583 904 q 653 683 653 768 q 618 530 653 599 q 517 422 583 461 q 360 382 451 382 m 360 513 q 472 560 433 513 q 510 683 510 608 q 472 806 510 758 q 360 853 435 853 q 247 805 286 853 q 208 683 208 757 q 247 561 208 610 q 360 513 286 513 z "},"ॲ":{"ha":1026,"x_min":35,"x_max":1110,"o":"m 35 0 m 1040 918 l 1040 782 l 901 782 l 901 0 l 733 0 l 733 294 l 496 294 q 385 111 492 167 q 115 56 278 56 l 35 56 l 35 190 l 115 190 q 328 322 328 190 q 290 402 328 376 q 169 428 253 428 l 99 428 l 99 563 l 171 563 q 289 594 250 563 q 328 678 328 625 q 285 758 328 735 q 157 782 243 782 l 78 782 l 78 918 l 157 918 q 413 867 331 918 q 496 700 496 817 q 465 581 496 631 q 369 500 433 532 q 463 429 429 481 l 733 429 l 733 782 l 579 782 l 579 918 l 1040 918 m 815 1024 q 592 1085 664 1024 q 521 1268 521 1146 l 521 1290 l 674 1290 l 674 1268 q 708 1185 674 1211 q 815 1158 743 1158 q 922 1185 888 1158 q 957 1268 957 1211 l 957 1290 l 1110 1290 l 1110 1268 q 1039 1084 1110 1144 q 815 1024 968 1024 z "},"ऄ":{"ha":1026,"x_min":35,"x_max":1040,"o":"m 1040 918 l 1040 782 l 901 782 l 901 0 l 733 0 l 733 294 l 496 294 q 385 111 492 167 q 115 56 278 56 l 35 56 l 35 190 l 115 190 q 328 322 328 190 q 290 402 328 376 q 169 428 253 428 l 99 428 l 99 563 l 171 563 q 289 594 250 563 q 328 678 328 625 q 285 758 328 735 q 157 782 243 782 l 78 782 l 78 918 l 157 918 q 413 867 331 918 q 496 700 496 817 q 465 581 496 631 q 369 500 433 532 q 463 429 429 481 l 733 429 l 733 782 l 579 782 l 579 918 l 733 918 l 733 974 q 705 1073 733 1044 q 596 1101 676 1101 l 364 1101 q 174 1130 242 1101 q 80 1217 107 1158 q 53 1374 53 1276 l 53 1414 l 221 1414 l 221 1374 q 231 1291 221 1319 q 272 1249 242 1263 q 364 1236 303 1236 l 596 1236 q 792 1209 726 1236 q 880 1127 858 1182 q 901 974 901 1072 l 901 918 l 1040 918 z "},"अ":{"ha":1026,"x_min":35,"x_max":1040,"o":"m 1040 918 l 1040 782 l 901 782 l 901 0 l 733 0 l 733 294 l 496 294 q 385 111 492 167 q 115 56 278 56 l 35 56 l 35 190 l 115 190 q 328 322 328 190 q 290 402 328 376 q 169 428 253 428 l 99 428 l 99 563 l 171 563 q 289 594 250 563 q 328 678 328 625 q 285 758 328 735 q 157 782 243 782 l 78 782 l 78 918 l 157 918 q 413 867 331 918 q 496 700 496 817 q 465 581 496 631 q 369 500 433 532 q 463 429 429 481 l 733 429 l 733 782 l 579 782 l 579 918 l 1040 918 z "},"आ":{"ha":1443,"x_min":35,"x_max":1457,"o":"m 1457 782 l 1318 782 l 1318 0 l 1151 0 l 1151 782 l 1013 782 l 901 782 l 901 0 l 733 0 l 733 294 l 496 294 q 385 111 492 167 q 115 56 278 56 l 35 56 l 35 190 l 115 190 q 328 322 328 190 q 290 402 328 376 q 169 428 253 428 l 99 428 l 99 563 l 171 563 q 289 594 250 563 q 328 678 328 625 q 285 758 328 735 q 157 782 243 782 l 78 782 l 78 918 l 157 918 q 413 867 331 918 q 496 700 496 817 q 465 581 496 631 q 369 500 433 532 q 463 429 429 481 l 733 429 l 733 782 l 579 782 l 579 918 l 1013 918 l 1457 918 l 1457 782 z "},"इ":{"ha":743,"x_min":-14,"x_max":757,"o":"m 319 550 q 260 538 279 550 q 242 493 242 525 q 249 457 242 474 q 269 431 257 440 l 417 431 q 692 218 692 431 q 622 44 692 101 q 422 -14 553 -14 l 408 -14 q 232 18 311 -14 l 232 -94 l 83 -94 l 83 242 l 232 242 l 232 153 q 396 121 304 121 l 414 121 q 495 142 467 121 q 524 206 524 163 q 497 274 524 251 q 417 296 471 296 l 181 296 q 108 383 142 324 q 74 507 74 442 q 133 644 74 604 q 319 685 193 685 l 426 685 l 426 782 l -14 782 l -14 918 l 757 918 l 757 782 l 594 782 l 594 550 l 319 550 z "},"ई":{"ha":743,"x_min":-14,"x_max":757,"o":"m 319 550 q 260 538 279 550 q 242 493 242 525 q 249 457 242 474 q 269 431 257 440 l 417 431 q 692 218 692 431 q 622 44 692 101 q 422 -14 553 -14 l 408 -14 q 232 18 311 -14 l 232 -94 l 83 -94 l 83 242 l 232 242 l 232 153 q 396 121 304 121 l 414 121 q 495 142 467 121 q 524 206 524 163 q 497 274 524 251 q 417 296 471 296 l 181 296 q 108 383 142 324 q 74 507 74 442 q 133 644 74 604 q 319 685 193 685 l 426 685 l 426 782 l -14 782 l -14 918 l 435 918 q 379 1143 379 1036 q 445 1302 379 1250 q 611 1354 511 1354 q 726 1335 682 1354 l 726 1196 q 635 1219 676 1219 q 571 1194 594 1219 q 547 1118 547 1169 q 562 1022 547 1068 q 604 918 576 976 l 757 918 l 757 782 l 594 782 l 594 550 l 319 550 z "},"उ":{"ha":811,"x_min":-14,"x_max":825,"o":"m 825 782 l 664 782 q 707 656 707 739 q 678 545 707 590 q 582 475 649 500 q 677 396 647 453 q 707 261 707 339 q 378 0 707 0 q 49 269 49 0 l 49 339 l 215 339 l 215 269 q 378 135 215 135 q 540 269 540 135 q 505 374 540 340 q 390 408 469 408 l 292 408 l 292 544 l 392 544 q 503 578 467 544 q 540 664 540 613 q 517 733 540 708 q 440 782 494 758 l -14 782 l -14 918 l 825 918 l 825 782 z "},"ऊ":{"ha":1151,"x_min":-14,"x_max":1157,"o":"m 1157 782 l 664 782 q 707 656 707 739 q 678 545 707 590 q 582 475 649 500 q 663 418 631 460 q 756 462 711 447 q 857 476 801 476 q 1049 424 988 476 q 1110 239 1110 372 q 1047 54 1110 108 q 853 0 985 0 l 836 0 q 797 2 817 0 q 763 7 776 4 l 763 140 q 825 135 801 135 l 842 135 q 917 158 892 135 q 942 239 942 182 q 917 318 942 294 q 835 342 892 342 q 763 333 793 342 q 704 308 733 325 q 707 261 707 293 q 619 60 707 119 q 378 0 532 0 q 49 269 49 0 l 49 339 l 215 339 l 215 269 q 378 135 215 135 q 540 269 540 135 q 505 374 540 340 q 390 408 469 408 l 292 408 l 292 544 l 392 544 q 503 578 467 544 q 540 664 540 613 q 517 733 540 708 q 440 782 494 758 l -14 782 l -14 918 l 1157 918 l 1157 782 z "},"ऋ":{"ha":1175,"x_min":-14,"x_max":1189,"o":"m 657 782 l 657 511 l 801 511 l 801 663 l 968 663 l 968 489 q 1088 363 1049 421 q 1128 236 1128 306 q 1043 60 1128 119 q 822 0 958 0 l 781 0 l 781 135 l 822 135 q 922 160 883 135 q 961 238 961 186 q 936 310 961 278 q 857 375 911 343 l 657 375 l 657 0 l 490 0 l 490 258 l 160 -15 l 61 93 l 482 439 q 376 508 424 490 q 265 526 328 526 q 74 492 199 526 l 74 638 q 180 661 125 651 q 275 671 235 671 q 387 653 336 671 q 490 592 438 635 l 490 782 l -14 782 l -14 918 l 1189 918 l 1189 782 l 657 782 z "},"ॠ":{"ha":1182,"x_min":-14,"x_max":1215,"o":"m 1057 -176 q 1215 -136 1139 -176 l 1215 -272 q 1043 -303 1149 -303 q 857 -260 918 -303 q 796 -129 796 -218 q 857 -7 796 -47 q 761 131 761 29 q 853 268 761 232 l 797 375 l 657 375 l 657 0 l 490 0 l 490 258 l 160 -15 l 61 93 l 482 439 q 376 508 424 490 q 265 526 328 526 q 74 492 199 526 l 74 638 q 180 661 125 651 q 275 671 235 671 q 387 653 336 671 q 490 592 438 635 l 490 782 l -14 782 l -14 918 l 1193 918 l 1193 782 l 657 782 l 657 511 l 788 511 l 788 663 l 954 663 l 954 397 l 1008 292 q 1090 285 1067 289 l 1090 158 q 1001 165 1061 165 q 944 152 961 165 q 928 114 928 139 q 947 76 928 89 q 1018 64 965 64 l 1118 64 l 1118 -29 l 1108 -29 l 1108 -61 l 1025 -61 q 963 -117 963 -61 q 986 -162 963 -149 q 1057 -176 1010 -176 z "},"ऌ":{"ha":1050,"x_min":-14,"x_max":1100,"o":"m 836 782 l 836 589 q 965 516 919 571 q 1010 382 1010 461 q 990 283 1010 326 q 944 212 971 240 q 874 146 917 183 q 815 90 833 113 q 796 43 796 68 q 886 -28 796 -28 q 978 -13 929 -28 q 1056 22 1026 1 l 1056 -122 q 869 -162 986 -162 q 691 -111 754 -162 q 628 26 628 -60 q 659 132 628 89 q 747 225 690 175 q 819 299 796 269 q 842 369 842 329 q 817 438 842 414 q 744 463 792 463 q 636 311 639 463 l 636 275 l 468 275 l 468 311 q 442 424 468 386 q 364 463 415 463 q 254 311 254 463 q 290 183 256 232 q 417 135 325 135 l 471 135 l 471 0 l 417 0 q 163 90 240 0 q 86 311 86 179 q 153 519 86 442 q 346 597 219 597 q 553 493 493 597 q 669 586 592 563 l 669 782 l -14 782 l -14 918 l 1100 918 l 1100 782 l 836 782 z "},"ॡ":{"ha":1086,"x_min":-14,"x_max":1100,"o":"m 836 782 l 836 589 q 965 516 919 571 q 1010 382 1010 461 q 990 283 1010 326 q 944 212 971 240 q 874 146 917 183 q 815 90 833 113 q 796 43 796 68 q 886 -28 796 -28 q 978 -14 926 -28 l 978 -153 q 945 -159 972 -154 q 881 -164 918 -164 q 860 -162 867 -164 q 835 -222 835 -186 q 856 -268 835 -254 q 924 -282 878 -282 q 999 -272 965 -282 q 1068 -242 1032 -262 l 1068 -378 q 986 -401 1025 -394 q 896 -408 947 -408 q 668 -239 668 -408 q 678 -177 668 -206 q 713 -124 688 -149 q 628 25 628 -68 q 658 130 628 88 q 746 225 688 172 q 818 298 794 267 q 842 369 842 329 q 817 438 842 414 q 744 463 792 463 q 636 311 639 463 l 636 275 l 468 275 l 468 311 q 442 424 468 386 q 364 463 415 463 q 254 311 254 463 q 290 183 256 232 q 417 135 325 135 l 471 135 l 471 0 l 417 0 q 163 90 240 0 q 86 311 86 179 q 153 519 86 442 q 346 597 219 597 q 553 493 493 597 q 669 586 592 563 l 669 782 l -14 782 l -14 918 l 1100 918 l 1100 782 l 836 782 z "},"ऍ":{"ha":836,"x_min":-14,"x_max":850,"o":"m 0 18 m 850 782 l 728 782 l 728 554 q 665 367 728 419 q 467 313 603 314 l 418 313 l 418 449 l 467 449 q 538 469 517 449 q 560 554 560 489 l 560 782 l 301 782 l 301 392 q 337 231 301 282 q 426 167 372 179 q 568 154 479 154 l 704 154 l 704 18 l 568 18 q 335 45 428 18 q 189 153 243 72 q 135 392 135 235 l 135 782 l -14 782 l -14 918 l 850 918 l 850 782 m 415 986 q 192 1047 264 986 q 121 1231 121 1108 l 121 1253 l 274 1253 l 274 1231 q 308 1147 274 1174 q 415 1121 343 1121 q 522 1147 488 1121 q 557 1231 557 1174 l 557 1253 l 710 1253 l 710 1231 q 639 1047 710 1107 q 415 986 568 986 z "},"ऎ":{"ha":836,"x_min":-111,"x_max":850,"o":"m 850 782 l 728 782 l 728 554 q 665 367 728 419 q 467 313 603 314 l 418 313 l 418 449 l 467 449 q 538 469 517 449 q 560 554 560 489 l 560 782 l 301 782 l 301 392 q 337 231 301 282 q 426 167 372 179 q 568 154 479 154 l 704 154 l 704 18 l 568 18 q 335 45 428 18 q 189 153 243 72 q 135 392 135 235 l 135 782 l -14 782 l -14 918 l 569 918 l 569 974 q 541 1073 569 1044 q 432 1101 513 1101 l 200 1101 q 10 1130 78 1101 q -84 1217 -57 1158 q -111 1374 -111 1276 l -111 1414 l 56 1414 l 56 1374 q 66 1292 56 1321 q 108 1250 76 1264 q 200 1236 139 1236 l 432 1236 q 628 1209 563 1236 q 715 1127 693 1182 q 736 974 736 1072 l 736 918 l 850 918 l 850 782 z "},"ए":{"ha":836,"x_min":-14,"x_max":850,"o":"m 850 782 l 728 782 l 728 554 q 665 367 728 419 q 467 313 603 314 l 418 313 l 418 449 l 467 449 q 538 469 517 449 q 560 554 560 489 l 560 782 l 301 782 l 301 392 q 337 231 301 282 q 426 167 372 179 q 568 154 479 154 l 704 154 l 704 18 l 568 18 q 335 45 428 18 q 189 153 243 72 q 135 392 135 235 l 135 782 l -14 782 l -14 918 l 850 918 l 850 782 z "},"ऐ":{"ha":836,"x_min":-14,"x_max":850,"o":"m 850 782 l 728 782 l 728 554 q 665 367 728 419 q 467 313 603 314 l 418 313 l 418 449 l 467 449 q 538 469 517 449 q 560 554 560 489 l 560 782 l 301 782 l 301 392 q 337 231 301 282 q 426 167 372 179 q 568 154 479 154 l 704 154 l 704 18 l 568 18 q 335 45 428 18 q 189 153 243 72 q 135 392 135 235 l 135 782 l -14 782 l -14 918 l 568 918 l 529 1085 q 488 1171 515 1149 q 403 1193 461 1193 l 281 1193 l 281 1328 l 403 1328 q 547 1310 493 1328 q 637 1241 600 1293 q 697 1085 674 1189 l 735 918 l 850 918 l 850 782 z "},"ऑ":{"ha":1443,"x_min":35,"x_max":1528,"o":"m 35 0 m 1457 782 l 1318 782 l 1318 0 l 1151 0 l 1151 782 l 1013 782 l 901 782 l 901 0 l 733 0 l 733 294 l 496 294 q 385 111 492 167 q 115 56 278 56 l 35 56 l 35 190 l 115 190 q 328 322 328 190 q 290 402 328 376 q 169 428 253 428 l 99 428 l 99 563 l 171 563 q 289 594 250 563 q 328 678 328 625 q 285 758 328 735 q 157 782 243 782 l 78 782 l 78 918 l 157 918 q 413 867 331 918 q 496 700 496 817 q 465 581 496 631 q 369 500 433 532 q 463 429 429 481 l 733 429 l 733 782 l 579 782 l 579 918 l 1013 918 l 1457 918 l 1457 782 m 1233 1024 q 1010 1085 1082 1024 q 939 1268 939 1146 l 939 1290 l 1092 1290 l 1092 1268 q 1126 1185 1092 1211 q 1233 1158 1161 1158 q 1340 1185 1306 1158 q 1375 1268 1375 1211 l 1375 1290 l 1528 1290 l 1528 1268 q 1457 1084 1528 1144 q 1233 1024 1386 1024 z "},"ऒ":{"ha":1443,"x_min":35,"x_max":1457,"o":"m 1457 782 l 1318 782 l 1318 0 l 1151 0 l 1151 782 l 1013 782 l 901 782 l 901 0 l 733 0 l 733 294 l 496 294 q 385 111 492 167 q 115 56 278 56 l 35 56 l 35 190 l 115 190 q 328 322 328 190 q 290 402 328 376 q 169 428 253 428 l 99 428 l 99 563 l 171 563 q 289 594 250 563 q 328 678 328 625 q 285 758 328 735 q 157 782 243 782 l 78 782 l 78 918 l 157 918 q 413 867 331 918 q 496 700 496 817 q 465 581 496 631 q 369 500 433 532 q 463 429 429 481 l 733 429 l 733 782 l 579 782 l 579 918 l 1013 918 l 1151 918 l 1151 974 q 1123 1073 1151 1044 q 1014 1101 1094 1101 l 782 1101 q 592 1130 660 1101 q 498 1217 525 1158 q 471 1374 471 1276 l 471 1414 l 638 1414 l 638 1374 q 648 1292 638 1321 q 690 1250 658 1264 q 782 1236 721 1236 l 1014 1236 q 1210 1209 1144 1236 q 1297 1127 1275 1182 q 1318 974 1318 1072 l 1318 918 l 1457 918 l 1457 782 z "},"ओ":{"ha":1443,"x_min":35,"x_max":1457,"o":"m 1457 782 l 1318 782 l 1318 0 l 1151 0 l 1151 782 l 1013 782 l 901 782 l 901 0 l 733 0 l 733 294 l 496 294 q 385 111 492 167 q 115 56 278 56 l 35 56 l 35 190 l 115 190 q 328 322 328 190 q 290 402 328 376 q 169 428 253 428 l 99 428 l 99 563 l 171 563 q 289 594 250 563 q 328 678 328 625 q 285 758 328 735 q 157 782 243 782 l 78 782 l 78 918 l 157 918 q 413 867 331 918 q 496 700 496 817 q 465 581 496 631 q 369 500 433 532 q 463 429 429 481 l 733 429 l 733 782 l 579 782 l 579 918 l 1013 918 l 1150 918 l 1111 1085 q 1070 1171 1097 1149 q 985 1193 1043 1193 l 863 1193 l 863 1328 l 985 1328 q 1128 1310 1075 1328 q 1219 1241 1182 1293 q 1279 1085 1256 1189 l 1317 918 l 1457 918 l 1457 782 z "},"औ":{"ha":1443,"x_min":35,"x_max":1457,"o":"m 1457 782 l 1318 782 l 1318 0 l 1151 0 l 1151 782 l 1013 782 l 901 782 l 901 0 l 733 0 l 733 294 l 496 294 q 385 111 492 167 q 115 56 278 56 l 35 56 l 35 190 l 115 190 q 328 322 328 190 q 290 402 328 376 q 169 428 253 428 l 99 428 l 99 563 l 171 563 q 289 594 250 563 q 328 678 328 625 q 285 758 328 735 q 157 782 243 782 l 78 782 l 78 918 l 157 918 q 413 867 331 918 q 496 700 496 817 q 465 581 496 631 q 369 500 433 532 q 463 429 429 481 l 733 429 l 733 782 l 579 782 l 579 918 l 1013 918 l 1142 918 l 1069 1008 q 987 1072 1032 1056 q 849 1088 942 1088 l 713 1088 l 713 1224 l 849 1224 q 1022 1201 963 1224 q 1133 1115 1081 1178 l 1110 1218 q 1064 1288 1097 1269 q 960 1306 1031 1306 l 838 1306 l 838 1440 l 960 1440 q 1103 1424 1050 1440 q 1192 1360 1157 1407 q 1249 1218 1228 1313 l 1317 918 l 1457 918 l 1457 782 z "},"ॳ":{"ha":1026,"x_min":35,"x_max":1040,"o":"m 1040 918 l 1040 782 l 901 782 l 901 0 l 733 0 l 733 294 l 496 294 q 385 111 492 167 q 115 56 278 56 l 35 56 l 35 190 l 115 190 q 328 322 328 190 q 290 402 328 376 q 169 428 253 428 l 99 428 l 99 563 l 171 563 q 289 594 250 563 q 328 678 328 625 q 285 758 328 735 q 157 782 243 782 l 78 782 l 78 918 l 157 918 q 413 867 331 918 q 496 700 496 817 q 465 581 496 631 q 369 500 433 532 q 463 429 429 481 l 733 429 l 733 782 l 579 782 l 579 918 l 735 918 l 735 1254 l 899 1254 l 899 918 l 1040 918 z "},"ॴ":{"ha":1443,"x_min":35,"x_max":1457,"o":"m 1457 782 l 1318 782 l 1318 0 l 1151 0 l 1151 782 l 1013 782 l 901 782 l 901 0 l 733 0 l 733 294 l 496 294 q 385 111 492 167 q 115 56 278 56 l 35 56 l 35 190 l 115 190 q 328 322 328 190 q 290 402 328 376 q 169 428 253 428 l 99 428 l 99 563 l 171 563 q 289 594 250 563 q 328 678 328 625 q 285 758 328 735 q 157 782 243 782 l 78 782 l 78 918 l 157 918 q 413 867 331 918 q 496 700 496 817 q 465 581 496 631 q 369 500 433 532 q 463 429 429 481 l 733 429 l 733 782 l 579 782 l 579 918 l 1013 918 l 1151 918 l 1151 1254 l 1318 1254 l 1318 918 l 1457 918 l 1457 782 z "},"ॶ":{"ha":1026,"x_min":35,"x_max":1047,"o":"m 35 0 m 1040 918 l 1040 782 l 901 782 l 901 0 l 733 0 l 733 294 l 496 294 q 385 111 492 167 q 115 56 278 56 l 35 56 l 35 190 l 115 190 q 328 322 328 190 q 290 402 328 376 q 169 428 253 428 l 99 428 l 99 563 l 171 563 q 289 594 250 563 q 328 678 328 625 q 285 758 328 735 q 157 782 243 782 l 78 782 l 78 918 l 157 918 q 413 867 331 918 q 496 700 496 817 q 465 581 496 631 q 369 500 433 532 q 463 429 429 481 l 733 429 l 733 782 l 579 782 l 579 918 l 1040 918 m 713 -301 q 513 -256 601 -301 q 378 -135 425 -210 l 481 -53 q 587 -137 531 -108 q 713 -165 643 -165 q 838 -137 782 -165 q 944 -53 894 -108 l 1047 -135 q 912 -256 1000 -210 q 713 -301 824 -301 z "},"ॷ":{"ha":1026,"x_min":35,"x_max":1047,"o":"m 35 0 m 1040 918 l 1040 782 l 901 782 l 901 0 l 733 0 l 733 294 l 496 294 q 385 111 492 167 q 115 56 278 56 l 35 56 l 35 190 l 115 190 q 328 322 328 190 q 290 402 328 376 q 169 428 253 428 l 99 428 l 99 563 l 171 563 q 289 594 250 563 q 328 678 328 625 q 285 758 328 735 q 157 782 243 782 l 78 782 l 78 918 l 157 918 q 413 867 331 918 q 496 700 496 817 q 465 581 496 631 q 369 500 433 532 q 463 429 429 481 l 733 429 l 733 782 l 579 782 l 579 918 l 1040 918 m 713 -301 q 513 -256 601 -301 q 378 -135 425 -210 l 481 -53 q 587 -137 531 -108 q 713 -165 643 -165 q 838 -137 782 -165 q 944 -53 894 -108 l 1047 -135 q 912 -256 1000 -210 q 713 -301 824 -301 m 713 -551 q 513 -506 601 -551 q 378 -385 425 -460 l 481 -303 q 587 -387 531 -358 q 713 -415 643 -415 q 838 -387 782 -415 q 944 -303 894 -358 l 1047 -385 q 912 -506 1000 -460 q 713 -551 824 -551 z "},"ा":{"ha":418,"x_min":-14,"x_max":432,"o":"m 432 782 l 293 782 l 293 0 l 125 0 l 125 782 l -14 782 l -14 918 l 432 918 l 432 782 z "},"ि":{"ha":418,"x_min":-15,"x_max":1072,"o":"m 629 1319 q 884 1285 788 1319 q 1026 1172 981 1250 q 1072 965 1071 1094 l 1072 844 l 906 844 l 906 965 q 873 1107 906 1060 q 783 1169 840 1154 q 629 1183 726 1183 l 569 1183 q 414 1169 471 1183 q 325 1108 357 1154 q 293 965 293 1061 l 293 918 l 432 918 l 432 782 l 293 782 l 293 0 l 125 0 l 125 782 l -15 782 l -15 918 l 125 918 l 125 965 q 171 1172 125 1094 q 313 1285 217 1250 q 569 1319 410 1319 l 629 1319 z "},"ी":{"ha":418,"x_min":-293,"x_max":432,"o":"m 432 782 l 293 782 l 293 0 l 125 0 l 125 782 l -14 782 l -14 918 l 125 918 l 125 1017 q 113 1124 125 1088 q 76 1172 100 1160 q 11 1183 53 1183 l -11 1183 q -76 1172 -53 1183 q -112 1124 -100 1160 q -125 1017 -125 1088 l -125 844 l -293 844 l -293 1025 q -227 1252 -293 1185 q -11 1319 -161 1319 l 11 1319 q 227 1252 161 1319 q 293 1025 293 1185 l 293 918 l 432 918 l 432 782 z "},"ॉ":{"ha":418,"x_min":-87,"x_max":501,"o":"m 0 0 m 432 782 l 293 782 l 293 0 l 125 0 l 125 782 l -14 782 l -14 918 l 432 918 l 432 782 m 207 1024 q -16 1085 56 1024 q -87 1268 -87 1146 l -87 1290 l 65 1290 l 65 1268 q 100 1185 65 1211 q 207 1158 135 1158 q 314 1185 279 1158 q 349 1268 349 1211 l 349 1290 l 501 1290 l 501 1268 q 431 1084 501 1144 q 207 1024 360 1024 z "},"ॊ":{"ha":418,"x_min":-556,"x_max":432,"o":"m 432 782 l 293 782 l 293 0 l 125 0 l 125 782 l -14 782 l -14 918 l 125 918 l 125 974 q 97 1073 125 1044 q -12 1101 68 1101 l -244 1101 q -434 1130 -367 1101 q -528 1217 -501 1158 q -556 1374 -556 1276 l -556 1414 l -387 1414 l -387 1374 q -377 1291 -387 1319 q -336 1249 -367 1263 q -244 1236 -306 1236 l -12 1236 q 184 1209 118 1236 q 272 1127 250 1182 q 293 974 293 1072 l 293 918 l 432 918 l 432 782 z "},"ो":{"ha":418,"x_min":-164,"x_max":432,"o":"m 432 782 l 293 782 l 293 0 l 125 0 l 125 782 l -14 782 l -14 918 l 124 918 l 85 1085 q 44 1171 71 1149 q -42 1193 17 1193 l -164 1193 l -164 1328 l -42 1328 q 103 1310 49 1328 q 193 1241 157 1293 q 253 1085 229 1189 l 292 918 l 432 918 l 432 782 z "},"ौ":{"ha":418,"x_min":-314,"x_max":432,"o":"m 432 782 l 293 782 l 293 0 l 125 0 l 125 782 l -14 782 l -14 918 l 115 918 l 43 1008 q -40 1072 4 1056 q -178 1088 -85 1088 l -314 1088 l -314 1224 l -178 1224 q -5 1201 -64 1224 q 107 1117 54 1178 l 83 1218 q 38 1288 71 1269 q -67 1306 4 1306 l -189 1306 l -189 1440 l -67 1440 q 77 1424 24 1440 q 166 1360 131 1407 q 224 1218 201 1313 l 292 918 l 432 918 l 432 782 z "},"ॎ":{"ha":406,"x_min":113,"x_max":419,"o":"m 419 782 l 281 782 l 281 0 l 113 0 l 113 918 l 419 918 l 419 782 z "},"ऻ":{"ha":418,"x_min":-14,"x_max":432,"o":"m 432 782 l 293 782 l 293 0 l 125 0 l 125 782 l -14 782 l -14 918 l 125 918 l 125 1254 l 293 1254 l 293 918 l 432 918 l 432 782 z "},"क":{"ha":1143,"x_min":-14,"x_max":1157,"o":"m 656 782 l 656 597 q 811 633 732 633 l 824 633 q 1038 579 969 632 q 1106 392 1106 526 q 1039 205 1106 260 q 831 150 972 150 l 814 150 q 769 152 793 150 q 731 157 746 154 l 731 292 q 803 286 775 286 l 819 286 q 908 310 878 286 q 938 392 938 333 q 906 476 938 454 q 803 497 875 497 l 792 497 q 719 490 750 497 q 656 465 689 483 l 656 0 l 488 0 l 488 186 q 333 150 411 150 l 319 150 q 106 204 174 151 q 39 392 39 257 q 106 578 39 524 q 313 633 172 633 l 329 633 q 374 631 350 633 q 413 626 397 629 l 413 492 q 340 497 368 497 l 324 497 q 235 474 265 497 q 206 392 206 450 q 237 308 206 329 q 340 286 268 286 l 353 286 q 424 293 393 286 q 488 318 454 300 l 488 782 l -14 782 l -14 918 l 1157 918 l 1157 782 l 656 782 z "},"ख":{"ha":1286,"x_min":-14,"x_max":1300,"o":"m 1300 782 l 1161 782 l 1161 0 l 993 0 l 993 232 q 863 206 935 206 l 838 206 q 667 257 728 206 q 606 419 606 308 q 665 580 606 526 q 819 633 724 633 l 836 633 q 919 625 865 633 l 919 492 q 864 497 892 497 l 847 497 q 774 419 774 497 q 797 357 774 372 q 871 342 819 342 l 890 342 q 993 364 944 342 l 993 782 l 557 782 l 557 549 q 492 371 557 421 q 288 321 428 321 l 279 321 l 279 271 q 318 165 279 194 q 451 135 357 135 l 681 135 l 681 0 l 451 0 q 200 58 288 0 q 113 271 113 115 l 113 596 l 279 596 l 279 457 l 288 457 q 366 474 342 457 q 390 549 390 492 l 390 782 l -14 782 l -14 918 l 1300 918 l 1300 782 z "},"ग":{"ha":917,"x_min":-14,"x_max":931,"o":"m 931 782 l 792 782 l 792 0 l 624 0 l 624 782 l 432 782 l 432 429 q 258 232 432 232 q 128 268 179 232 q 46 386 78 304 l 171 454 q 203 389 188 411 q 236 367 218 367 q 258 381 253 367 q 264 431 264 396 l 264 782 l -14 782 l -14 918 l 931 918 l 931 782 z "},"घ":{"ha":858,"x_min":-14,"x_max":872,"o":"m 872 918 l 872 782 l 733 782 l 733 0 l 565 0 l 565 181 q 406 146 490 146 l 381 146 q 180 198 244 147 q 115 367 115 249 q 192 533 115 486 q 97 590 128 551 q 65 694 65 629 q 85 782 65 749 l -14 782 l -14 918 l 872 918 m 424 282 q 565 318 503 282 l 565 782 l 254 782 q 233 711 233 756 q 273 630 235 650 q 399 610 311 610 l 453 610 l 453 574 l 457 574 l 457 475 l 399 475 q 312 455 340 475 q 283 378 283 435 q 311 301 283 319 q 399 282 339 282 l 424 282 z "},"ङ":{"ha":850,"x_min":-14,"x_max":864,"o":"m 864 918 l 864 782 l 594 782 l 594 636 l 590 636 l 590 539 l 317 539 q 256 527 275 539 q 238 482 238 515 q 245 447 238 464 q 265 419 253 429 l 414 419 q 618 368 549 419 q 688 207 688 317 q 619 33 688 90 q 418 -25 550 -25 l 406 -25 q 199 2 286 -25 q 28 83 113 29 l 89 214 q 243 134 172 158 q 393 110 314 110 l 410 110 q 521 199 521 110 q 493 264 519 243 q 414 285 467 285 l 176 285 q 104 372 138 314 q 71 496 71 431 q 130 635 71 594 q 317 675 189 675 l 426 675 l 426 782 l -14 782 l -14 918 l 864 918 m 736 576 l 847 465 l 736 357 l 626 465 l 736 576 z "},"च":{"ha":879,"x_min":-14,"x_max":893,"o":"m 893 918 l 893 782 l 754 782 l 754 0 l 586 0 l 586 168 q 451 144 518 144 l 415 144 q 133 372 133 144 q 182 513 133 457 l 51 513 l 51 649 l 497 649 l 497 513 l 351 513 q 301 389 301 474 q 338 304 301 328 q 444 281 374 281 l 468 281 q 586 306 531 281 l 586 782 l -14 782 l -14 918 l 893 918 z "},"छ":{"ha":1047,"x_min":-14,"x_max":1061,"o":"m 885 782 l 885 701 q 938 649 921 685 q 954 557 954 614 l 954 369 q 839 92 954 172 q 522 11 724 13 l 507 11 q 219 72 328 11 q 111 271 111 132 q 222 475 111 429 q 124 539 154 496 q 94 650 94 582 q 144 782 94 735 l -14 782 l -14 918 l 1061 918 l 1061 782 l 885 782 m 718 782 l 372 782 q 290 735 318 763 q 263 658 263 707 q 302 575 263 601 q 425 549 342 549 l 475 549 l 475 413 l 432 413 q 315 382 353 413 q 278 279 278 351 q 344 178 278 208 q 510 147 410 147 l 524 147 q 715 195 642 147 q 788 369 788 243 l 788 550 q 780 578 788 569 q 751 586 772 586 q 724 578 732 586 q 715 550 715 569 l 715 413 l 565 413 l 565 558 q 601 670 565 632 q 718 718 636 708 l 718 782 z "},"ज":{"ha":974,"x_min":-14,"x_max":988,"o":"m 988 918 l 988 782 l 849 782 l 849 0 l 682 0 l 682 483 l 572 483 l 572 406 q 517 203 572 267 q 319 139 461 139 q 133 203 189 139 q 78 406 78 268 l 78 619 l 236 619 l 236 392 q 254 303 236 332 q 319 274 272 274 q 388 301 371 274 q 404 392 404 329 l 404 619 l 682 619 l 682 782 l -14 782 l -14 918 l 988 918 z "},"झ":{"ha":1140,"x_min":-14,"x_max":1154,"o":"m 1154 782 l 1015 782 l 1015 0 l 849 0 l 849 221 l 678 221 q 608 51 676 107 q 415 -6 540 -6 l 401 -6 q 232 25 313 -6 l 232 -86 l 83 -86 l 83 251 l 232 251 l 232 160 q 389 131 300 131 l 407 131 q 510 215 510 131 q 485 283 510 261 q 410 304 461 304 l 181 304 q 108 392 142 333 q 74 515 74 451 q 133 654 74 614 q 319 694 192 694 l 413 694 l 413 782 l -14 782 l -14 918 l 1154 918 l 1154 782 m 849 782 l 581 782 l 581 560 l 319 560 q 260 547 279 560 q 242 501 242 535 q 250 466 242 483 q 269 440 258 449 l 410 440 q 640 357 579 440 l 849 357 l 849 782 z "},"ञ":{"ha":849,"x_min":-14,"x_max":863,"o":"m 863 918 l 863 782 l 724 782 l 724 0 l 556 0 l 556 332 l 438 332 q 343 170 421 221 q 122 119 265 119 l 53 119 l 53 256 l 122 256 q 238 287 200 256 q 275 397 275 318 q 239 510 275 481 q 122 539 203 539 l 53 539 l 53 675 l 122 675 q 344 628 267 675 q 438 468 421 581 l 556 468 l 556 782 l -14 782 l -14 918 l 863 918 z "},"ट":{"ha":725,"x_min":-14,"x_max":739,"o":"m 371 529 q 247 490 288 529 q 207 338 207 450 q 224 218 207 260 q 273 161 240 176 q 357 146 306 146 l 383 146 q 494 178 460 146 q 528 301 528 211 l 528 343 l 694 343 l 694 301 q 619 78 694 147 q 383 10 544 10 l 357 10 q 117 84 193 10 q 40 338 40 158 q 121 591 40 517 q 371 665 201 665 l 433 665 l 433 782 l -14 782 l -14 918 l 739 918 l 739 782 l 600 782 l 600 529 l 371 529 z "},"ठ":{"ha":781,"x_min":-14,"x_max":794,"o":"m 656 751 q 603 617 656 665 q 714 339 714 543 q 679 144 714 217 q 575 41 644 72 q 396 10 506 10 l 375 10 q 135 84 211 10 q 58 339 58 158 q 139 592 58 518 q 389 667 219 667 q 465 685 442 667 q 488 751 488 704 l 488 782 l -14 782 l -14 918 l 794 918 l 794 782 l 656 782 l 656 751 m 396 146 q 481 161 449 146 q 529 218 513 176 q 546 339 546 260 q 507 491 546 450 q 389 532 468 532 q 266 492 306 532 q 226 339 226 451 q 244 218 226 260 q 294 161 261 176 q 383 146 328 146 l 396 146 z "},"ड":{"ha":738,"x_min":-14,"x_max":751,"o":"m 317 539 q 256 527 275 539 q 238 482 238 515 q 245 447 238 464 q 265 419 253 429 l 414 419 q 618 368 549 419 q 688 207 688 317 q 619 33 688 90 q 418 -25 550 -25 l 406 -25 q 199 2 286 -25 q 28 83 113 29 l 89 214 q 243 134 172 158 q 393 110 314 110 l 410 110 q 521 199 521 110 q 493 264 519 243 q 414 285 467 285 l 176 285 q 104 372 138 314 q 71 496 71 431 q 130 635 71 594 q 317 675 189 675 l 426 675 l 426 782 l -14 782 l -14 918 l 751 918 l 751 782 l 594 782 l 594 636 l 590 636 l 590 539 l 317 539 z "},"ढ":{"ha":725,"x_min":-14,"x_max":739,"o":"m 371 529 q 281 514 315 529 q 226 457 246 499 q 207 338 207 415 q 224 218 207 260 q 272 161 240 176 q 357 146 304 146 l 383 146 q 492 167 458 146 q 528 239 526 188 l 528 281 q 519 312 528 303 q 490 321 510 321 q 460 312 469 321 q 450 281 450 303 l 450 224 l 301 224 l 301 297 q 348 412 301 376 q 501 447 394 447 q 649 404 603 447 q 694 279 694 361 l 694 240 q 618 67 694 124 q 383 10 542 10 l 357 10 q 117 84 193 10 q 40 338 40 158 q 121 591 40 517 q 371 665 201 665 l 433 665 l 433 782 l -14 782 l -14 918 l 739 918 l 739 782 l 600 782 l 600 529 l 371 529 z "},"ण":{"ha":1021,"x_min":-14,"x_max":1035,"o":"m 1035 918 l 1035 782 l 896 782 l 896 0 l 729 0 l 729 782 l 601 782 l 601 525 q 541 328 601 385 q 354 272 481 272 q 167 328 226 272 q 107 525 107 385 l 107 782 l -14 782 l -14 918 l 1035 918 m 433 782 l 274 782 l 274 515 q 293 431 274 454 q 354 408 313 408 q 414 431 394 408 q 433 515 433 454 l 433 782 z "},"त":{"ha":807,"x_min":-14,"x_max":821,"o":"m 821 918 l 821 782 l 682 782 l 682 0 l 515 0 l 515 490 l 343 490 q 276 476 300 490 q 239 424 251 461 q 226 315 226 386 q 254 172 226 210 q 343 135 282 135 l 368 135 l 368 0 l 343 0 q 128 73 197 0 q 58 315 58 146 q 88 497 58 429 q 180 594 118 564 q 343 625 242 625 l 515 625 l 515 782 l -14 782 l -14 918 l 821 918 z "},"थ":{"ha":906,"x_min":71,"x_max":919,"o":"m 919 918 l 919 782 l 781 782 l 781 0 l 613 0 l 613 232 q 517 191 565 203 q 411 179 469 179 q 211 237 285 179 q 94 439 138 294 q 229 499 189 476 q 291 560 269 521 q 313 674 313 600 l 313 726 q 303 785 313 769 q 265 800 293 800 q 229 784 239 800 q 219 726 219 768 l 219 636 l 71 636 l 71 726 q 117 876 71 826 q 265 926 163 926 q 416 877 371 926 q 461 726 461 828 l 461 674 q 442 540 461 592 q 388 454 424 488 q 288 386 351 421 q 340 329 310 343 q 426 315 371 315 q 613 369 525 315 l 613 782 l 515 782 l 515 918 l 919 918 z "},"द":{"ha":744,"x_min":-14,"x_max":758,"o":"m 417 540 q 308 528 349 540 q 247 481 268 515 q 226 381 226 446 q 263 253 226 288 q 378 219 299 219 l 392 219 q 485 236 444 219 l 485 353 l 653 353 l 653 -21 l 485 -21 l 485 103 q 369 85 439 85 l 356 85 q 133 151 208 85 q 58 375 58 218 q 146 608 58 540 q 417 676 233 676 l 451 676 l 451 782 l -14 782 l -14 918 l 758 918 l 758 782 l 619 782 l 619 540 l 417 540 z "},"ध":{"ha":921,"x_min":72,"x_max":935,"o":"m 935 918 l 935 782 l 796 782 l 796 0 l 628 0 l 628 147 q 446 118 547 118 l 428 118 q 206 174 281 119 q 132 350 132 228 q 152 456 132 413 q 218 529 172 499 q 107 604 142 557 q 72 729 72 651 q 146 889 72 842 q 375 936 219 936 l 392 936 q 435 933 415 936 l 435 797 l 392 800 l 375 800 q 272 781 304 800 q 240 708 240 763 q 285 629 240 649 q 433 610 331 610 l 496 610 l 496 465 l 443 465 q 334 442 369 465 q 299 360 299 418 q 334 277 299 300 q 443 254 369 254 l 468 254 q 553 260 514 254 q 628 282 592 265 l 628 782 l 507 782 l 507 918 l 935 918 z "},"न":{"ha":801,"x_min":-14,"x_max":815,"o":"m 815 918 l 815 782 l 676 782 l 676 0 l 508 0 l 508 451 l 257 451 q 217 442 229 451 q 206 408 206 433 q 278 336 206 365 l 210 222 q 84 303 122 256 q 46 424 46 350 q 251 586 46 586 l 508 586 l 508 782 l -14 782 l -14 918 l 815 918 z "},"ऩ":{"ha":801,"x_min":-14,"x_max":815,"o":"m 0 0 m 815 918 l 815 782 l 676 782 l 676 0 l 508 0 l 508 451 l 257 451 q 217 442 229 451 q 206 408 206 433 q 278 336 206 365 l 210 222 q 84 303 122 256 q 46 424 46 350 q 251 586 46 586 l 508 586 l 508 782 l -14 782 l -14 918 l 815 918 m 178 0 l 289 111 l 399 0 l 289 -110 l 178 0 z "},"प":{"ha":817,"x_min":-14,"x_max":831,"o":"m 831 918 l 831 782 l 692 782 l 692 0 l 525 0 l 525 300 q 365 260 456 260 q 164 320 231 260 q 97 531 97 381 l 97 782 l -14 782 l -14 918 l 831 918 m 394 396 q 525 442 461 396 l 525 782 l 265 782 l 265 531 q 294 426 265 456 q 394 396 322 396 z "},"फ":{"ha":1161,"x_min":-14,"x_max":1175,"o":"m 674 782 l 674 597 q 829 633 750 633 l 842 633 q 1056 579 988 632 q 1124 392 1124 526 q 1057 205 1124 260 q 850 150 990 150 l 833 150 q 789 152 813 150 q 750 157 765 154 l 750 292 q 822 286 794 286 l 839 286 q 926 310 897 286 q 956 392 956 333 q 924 476 956 454 q 822 497 893 497 l 810 497 q 738 490 769 497 q 674 465 707 483 l 674 0 l 506 0 l 506 300 q 347 260 440 260 q 159 320 221 260 q 97 531 97 381 l 97 782 l -14 782 l -14 918 l 1175 918 l 1175 782 l 674 782 m 375 396 q 506 439 450 396 l 506 782 l 265 782 l 265 531 q 290 426 265 456 q 375 396 314 396 z "},"ब":{"ha":781,"x_min":-14,"x_max":794,"o":"m 794 918 l 794 782 l 656 782 l 656 0 l 488 0 l 488 186 q 333 150 411 150 l 319 150 q 106 204 174 151 q 39 392 39 257 q 106 578 39 524 q 313 633 172 633 l 329 633 q 374 631 350 633 q 413 626 397 629 l 413 492 q 340 497 368 497 l 324 497 l 315 497 l 478 313 l 488 318 l 488 782 l -14 782 l -14 918 l 794 918 m 353 286 l 369 286 l 221 456 q 206 392 206 432 q 237 308 206 329 q 340 286 268 286 l 353 286 z "},"भ":{"ha":1006,"x_min":56,"x_max":1019,"o":"m 1019 918 l 1019 782 l 881 782 l 881 0 l 713 0 l 713 340 l 453 340 l 453 224 l 285 224 l 285 744 q 276 788 285 776 q 244 800 268 800 q 214 788 222 800 q 206 744 206 776 l 206 656 l 56 656 l 56 744 q 102 881 56 835 q 254 926 149 926 q 406 881 360 926 q 453 744 453 836 l 453 475 l 713 475 l 713 782 l 571 782 l 571 918 l 1019 918 z "},"म":{"ha":825,"x_min":-14,"x_max":839,"o":"m 839 918 l 839 782 l 700 782 l 700 0 l 532 0 l 532 350 l 272 350 l 272 235 l 104 235 l 104 782 l -14 782 l -14 918 l 839 918 m 532 486 l 532 782 l 272 782 l 272 486 l 532 486 z "},"य":{"ha":851,"x_min":-14,"x_max":865,"o":"m 865 918 l 865 782 l 726 782 l 726 0 l 560 0 l 560 226 q 474 199 518 207 q 394 190 431 190 q 239 211 301 190 q 130 288 176 232 q 50 449 83 343 q 192 533 153 490 q 232 632 232 575 q 176 782 232 701 l -14 782 l -14 918 l 865 918 m 394 325 q 560 369 475 325 l 560 782 l 343 782 q 384 697 369 740 q 399 619 399 653 q 362 497 399 550 q 242 401 325 444 q 303 342 264 358 q 394 325 343 325 z "},"र":{"ha":681,"x_min":-14,"x_max":694,"o":"m 282 321 l 282 271 q 321 165 282 194 q 454 135 360 135 l 625 135 l 625 0 l 454 0 q 201 58 289 0 q 114 271 114 115 l 114 596 l 282 596 l 282 457 l 288 457 q 366 474 342 457 q 390 549 390 492 l 390 782 l -14 782 l -14 918 l 694 918 l 694 782 l 557 782 l 557 549 q 492 371 557 421 q 288 321 428 321 l 282 321 z "},"ऱ":{"ha":681,"x_min":-14,"x_max":694,"o":"m 0 0 m 282 321 l 282 271 q 321 165 282 194 q 454 135 360 135 l 625 135 l 625 0 l 454 0 q 201 58 289 0 q 114 271 114 115 l 114 596 l 282 596 l 282 457 l 288 457 q 366 474 342 457 q 390 549 390 492 l 390 782 l -14 782 l -14 918 l 694 918 l 694 782 l 557 782 l 557 549 q 492 371 557 421 q 288 321 428 321 l 282 321 m 0 -107 l 111 4 l 221 -107 l 111 -217 l 0 -107 z "},"ल":{"ha":1110,"x_min":-14,"x_max":1124,"o":"m 1124 918 l 1124 782 l 985 782 l 983 0 l 815 0 l 817 460 q 753 476 788 476 q 636 315 639 476 l 636 279 l 590 279 l 590 275 l 468 275 l 468 311 q 442 424 468 386 q 364 463 415 463 q 254 311 254 463 q 290 183 256 232 q 417 135 325 135 l 471 135 l 471 0 l 417 0 q 163 90 240 0 q 86 311 86 179 q 153 519 86 442 q 346 597 219 597 q 547 503 485 597 q 622 583 574 554 q 743 611 671 611 q 817 601 778 611 l 817 782 l -14 782 l -14 918 l 1124 918 z "},"ळ":{"ha":1074,"x_min":-14,"x_max":1088,"o":"m 831 782 l 831 639 q 976 549 925 618 q 1026 383 1026 479 q 958 194 1026 268 q 764 119 889 119 q 629 146 686 119 q 538 219 572 172 q 318 119 465 119 q 117 194 188 119 q 47 383 47 268 q 117 572 47 497 q 318 646 188 646 q 538 547 465 646 q 663 633 579 608 l 663 782 l -14 782 l -14 918 l 1088 918 l 1088 782 l 831 782 m 336 254 q 424 290 396 254 q 453 383 453 325 q 424 476 453 440 q 336 511 396 511 q 244 476 274 511 q 214 383 214 440 q 244 290 214 325 q 336 254 274 254 m 740 254 q 829 290 800 254 q 858 383 858 325 q 829 476 858 440 q 740 511 800 511 q 650 476 679 511 q 621 383 621 440 q 650 290 621 325 q 740 254 679 254 z "},"ऴ":{"ha":1074,"x_min":-14,"x_max":1088,"o":"m 0 0 m 831 782 l 831 639 q 976 549 925 618 q 1026 383 1026 479 q 958 194 1026 268 q 764 119 889 119 q 629 146 686 119 q 538 219 572 172 q 318 119 465 119 q 117 194 188 119 q 47 383 47 268 q 117 572 47 497 q 318 646 188 646 q 538 547 465 646 q 663 633 579 608 l 663 782 l -14 782 l -14 918 l 1088 918 l 1088 782 l 831 782 m 336 254 q 424 290 396 254 q 453 383 453 325 q 424 476 453 440 q 336 511 396 511 q 244 476 274 511 q 214 383 214 440 q 244 290 214 325 q 336 254 274 254 m 740 254 q 829 290 800 254 q 858 383 858 325 q 829 476 858 440 q 740 511 800 511 q 650 476 679 511 q 621 383 621 440 q 650 290 621 325 q 740 254 679 254 m 425 0 l 536 111 l 646 0 l 536 -110 l 425 0 z "},"व":{"ha":781,"x_min":-14,"x_max":794,"o":"m 794 918 l 794 782 l 656 782 l 656 0 l 488 0 l 488 186 q 333 150 411 150 l 319 150 q 106 204 174 151 q 39 392 39 257 q 106 578 39 524 q 313 633 172 633 l 329 633 q 374 631 350 633 q 413 626 397 629 l 413 492 q 340 497 368 497 l 324 497 q 235 474 265 497 q 206 392 206 450 q 237 308 206 329 q 340 286 268 286 l 353 286 q 424 293 393 286 q 488 318 454 300 l 488 782 l -14 782 l -14 918 l 794 918 z "},"श":{"ha":1003,"x_min":61,"x_max":1017,"o":"m 314 319 q 338 206 317 246 q 400 150 360 165 q 506 135 440 135 l 589 135 l 589 0 l 496 0 q 249 72 335 0 q 156 311 164 143 l 61 311 l 61 446 l 214 446 q 367 498 321 446 q 415 658 414 550 q 398 769 415 739 q 336 800 381 800 q 276 772 296 800 q 256 676 257 744 l 256 596 l 89 596 l 89 694 q 150 868 90 810 q 336 926 210 926 q 526 863 468 926 q 583 658 583 799 q 515 433 582 522 q 314 319 447 343 m 1017 782 l 878 782 l 878 0 l 710 0 l 710 918 l 1017 918 l 1017 782 z "},"ष":{"ha":831,"x_min":-14,"x_max":844,"o":"m 844 918 l 844 782 l 706 782 l 706 0 l 538 0 l 538 301 q 372 260 465 260 q 165 320 233 260 q 97 531 97 381 l 97 782 l -14 782 l -14 918 l 844 918 m 538 782 l 350 782 l 538 517 l 538 782 m 264 531 q 294 426 264 456 q 400 396 325 396 q 489 414 446 396 l 264 731 l 264 531 z "},"स":{"ha":1115,"x_min":-14,"x_max":1129,"o":"m 1129 918 l 1129 782 l 990 782 l 990 0 l 824 0 l 824 351 l 594 351 l 594 488 l 824 488 l 824 782 l 557 782 l 557 549 q 492 371 557 421 q 288 321 428 321 l 279 321 l 279 271 q 318 165 279 194 q 451 135 357 135 l 653 135 l 653 0 l 451 0 q 200 58 288 0 q 113 271 113 115 l 113 596 l 279 596 l 279 457 l 288 457 q 366 474 342 457 q 390 549 390 492 l 390 782 l -14 782 l -14 918 l 1129 918 z "},"ह":{"ha":743,"x_min":-14,"x_max":772,"o":"m 319 550 q 260 538 279 550 q 242 493 242 525 q 278 421 242 454 q 396 439 332 439 l 433 439 q 615 376 551 439 q 679 213 679 314 l 679 179 l 535 179 l 535 213 q 508 278 535 253 q 433 304 481 304 l 396 304 q 316 278 351 304 q 281 190 281 251 q 338 75 281 106 q 486 44 394 44 l 589 44 l 589 -90 l 476 -90 q 213 -23 313 -90 q 114 199 114 44 q 154 336 114 281 q 97 415 121 369 q 74 507 74 460 q 131 644 74 604 q 311 685 189 685 l 447 685 l 447 782 l -14 782 l -14 918 l 772 918 l 772 782 l 614 782 l 614 550 l 319 550 z "},"क़":{"ha":1143,"x_min":-14,"x_max":1157,"o":"m 0 0 m 656 782 l 656 597 q 811 633 732 633 l 824 633 q 1038 579 969 632 q 1106 392 1106 526 q 1039 205 1106 260 q 831 150 972 150 l 814 150 q 769 152 793 150 q 731 157 746 154 l 731 292 q 803 286 775 286 l 819 286 q 908 310 878 286 q 938 392 938 333 q 906 476 938 454 q 803 497 875 497 l 792 497 q 719 490 750 497 q 656 465 689 483 l 656 0 l 488 0 l 488 186 q 333 150 411 150 l 319 150 q 106 204 174 151 q 39 392 39 257 q 106 578 39 524 q 313 633 172 633 l 329 633 q 374 631 350 633 q 413 626 397 629 l 413 492 q 340 497 368 497 l 324 497 q 235 474 265 497 q 206 392 206 450 q 237 308 206 329 q 340 286 268 286 l 353 286 q 424 293 393 286 q 488 318 454 300 l 488 782 l -14 782 l -14 918 l 1157 918 l 1157 782 l 656 782 m 174 -18 l 285 93 l 394 -18 l 285 -128 l 174 -18 z "},"ख़":{"ha":1286,"x_min":-14,"x_max":1300,"o":"m 0 0 m 1300 782 l 1161 782 l 1161 0 l 993 0 l 993 232 q 863 206 935 206 l 838 206 q 667 257 728 206 q 606 419 606 308 q 665 580 606 526 q 819 633 724 633 l 836 633 q 919 625 865 633 l 919 492 q 864 497 892 497 l 847 497 q 774 419 774 497 q 797 357 774 372 q 871 342 819 342 l 890 342 q 993 364 944 342 l 993 782 l 557 782 l 557 549 q 492 371 557 421 q 288 321 428 321 l 279 321 l 279 271 q 318 165 279 194 q 451 135 357 135 l 681 135 l 681 0 l 451 0 q 200 58 288 0 q 113 271 113 115 l 113 596 l 279 596 l 279 457 l 288 457 q 366 474 342 457 q 390 549 390 492 l 390 782 l -14 782 l -14 918 l 1300 918 l 1300 782 m 86 -140 l 197 -29 l 307 -140 l 197 -250 l 86 -140 z "},"ग़":{"ha":917,"x_min":-14,"x_max":931,"o":"m 0 0 m 931 782 l 792 782 l 792 0 l 624 0 l 624 782 l 432 782 l 432 429 q 258 232 432 232 q 128 268 179 232 q 46 386 78 304 l 171 454 q 203 389 188 411 q 236 367 218 367 q 258 381 253 367 q 264 431 264 396 l 264 782 l -14 782 l -14 918 l 931 918 l 931 782 m 236 0 l 347 111 l 457 0 l 347 -110 l 236 0 z "},"ज़":{"ha":974,"x_min":-14,"x_max":988,"o":"m 0 0 m 988 918 l 988 782 l 849 782 l 849 0 l 682 0 l 682 483 l 572 483 l 572 406 q 517 203 572 267 q 319 139 461 139 q 133 203 189 139 q 78 406 78 268 l 78 619 l 236 619 l 236 392 q 254 303 236 332 q 319 274 272 274 q 388 301 371 274 q 404 392 404 329 l 404 619 l 682 619 l 682 782 l -14 782 l -14 918 l 988 918 m 211 -37 l 322 74 l 432 -37 l 322 -147 l 211 -37 z "},"ड़":{"ha":738,"x_min":-14,"x_max":751,"o":"m 0 0 m 317 539 q 256 527 275 539 q 238 482 238 515 q 245 447 238 464 q 265 419 253 429 l 414 419 q 618 368 549 419 q 688 207 688 317 q 619 33 688 90 q 418 -25 550 -25 l 406 -25 q 199 2 286 -25 q 28 83 113 29 l 89 214 q 243 134 172 158 q 393 110 314 110 l 410 110 q 521 199 521 110 q 493 264 519 243 q 414 285 467 285 l 176 285 q 104 372 138 314 q 71 496 71 431 q 130 635 71 594 q 317 675 189 675 l 426 675 l 426 782 l -14 782 l -14 918 l 751 918 l 751 782 l 594 782 l 594 636 l 590 636 l 590 539 l 317 539 m 271 -181 l 382 -69 l 492 -181 l 382 -290 l 271 -181 z "},"ढ़":{"ha":725,"x_min":-14,"x_max":739,"o":"m 0 0 m 371 529 q 281 514 315 529 q 226 457 246 499 q 207 338 207 415 q 224 218 207 260 q 272 161 240 176 q 357 146 304 146 l 383 146 q 492 167 458 146 q 528 239 526 188 l 528 281 q 519 312 528 303 q 490 321 510 321 q 460 312 469 321 q 450 281 450 303 l 450 224 l 301 224 l 301 297 q 348 412 301 376 q 501 447 394 447 q 649 404 603 447 q 694 279 694 361 l 694 240 q 618 67 694 124 q 383 10 542 10 l 357 10 q 117 84 193 10 q 40 338 40 158 q 121 591 40 517 q 371 665 201 665 l 433 665 l 433 782 l -14 782 l -14 918 l 739 918 l 739 782 l 600 782 l 600 529 l 371 529 m 261 -153 l 372 -42 l 482 -153 l 372 -262 l 261 -153 z "},"फ़":{"ha":1161,"x_min":-14,"x_max":1175,"o":"m 0 0 m 674 782 l 674 597 q 829 633 750 633 l 842 633 q 1056 579 988 632 q 1124 392 1124 526 q 1057 205 1124 260 q 850 150 990 150 l 833 150 q 789 152 813 150 q 750 157 765 154 l 750 292 q 822 286 794 286 l 839 286 q 926 310 897 286 q 956 392 956 333 q 924 476 956 454 q 822 497 893 497 l 810 497 q 738 490 769 497 q 674 465 707 483 l 674 0 l 506 0 l 506 300 q 347 260 440 260 q 159 320 221 260 q 97 531 97 381 l 97 782 l -14 782 l -14 918 l 1175 918 l 1175 782 l 674 782 m 375 396 q 506 439 450 396 l 506 782 l 265 782 l 265 531 q 290 426 265 456 q 375 396 314 396 m 104 101 l 215 213 l 325 101 l 215 -8 l 104 101 z "},"य़":{"ha":851,"x_min":-14,"x_max":865,"o":"m 0 0 m 865 918 l 865 782 l 726 782 l 726 0 l 560 0 l 560 226 q 474 199 518 207 q 394 190 431 190 q 239 211 301 190 q 130 288 176 232 q 50 449 83 343 q 192 533 153 490 q 232 632 232 575 q 176 782 232 701 l -14 782 l -14 918 l 865 918 m 394 325 q 560 369 475 325 l 560 782 l 343 782 q 384 697 369 740 q 399 619 399 653 q 362 497 399 550 q 242 401 325 444 q 303 342 264 358 q 394 325 343 325 m 90 42 l 201 153 l 311 42 l 201 -68 l 90 42 z "},"ॹ":{"ha":974,"x_min":-14,"x_max":988,"o":"m 0 0 m 988 918 l 988 782 l 849 782 l 849 0 l 682 0 l 682 483 l 572 483 l 572 406 q 517 203 572 267 q 319 139 461 139 q 133 203 189 139 q 78 406 78 268 l 78 619 l 236 619 l 236 392 q 254 303 236 332 q 319 274 272 274 q 388 301 371 274 q 404 392 404 329 l 404 619 l 682 619 l 682 782 l -14 782 l -14 918 l 988 918 m 61 11 l 172 122 l 282 11 l 172 -99 l 61 11 m 215 -140 l 326 -29 l 436 -140 l 326 -250 l 215 -140 m 371 11 l 482 122 l 592 11 l 482 -99 l 371 11 z "},"ॺ":{"ha":806,"x_min":-14,"x_max":865,"o":"m 865 918 l 865 782 l 726 782 l 726 0 l 560 0 l 560 226 q 474 199 518 207 q 394 190 431 190 q 239 211 301 190 q 130 288 176 232 q 50 449 83 343 q 192 533 153 490 q 232 632 232 575 q 176 782 232 701 l -14 782 l -14 918 l 865 918 m 560 782 l 375 782 l 560 538 l 560 782 m 242 401 q 303 342 264 358 q 394 325 343 325 q 538 358 465 325 l 390 554 q 340 472 376 508 q 242 401 304 435 z "},"ॻ":{"ha":917,"x_min":-14,"x_max":931,"o":"m 931 782 l 792 782 l 792 0 l 782 0 l 782 -74 l 69 -74 l 69 61 l 624 61 l 624 782 l 432 782 l 432 429 q 258 232 432 232 q 128 268 179 232 q 46 386 78 304 l 171 454 q 203 389 188 411 q 236 367 218 367 q 258 381 253 367 q 264 431 264 396 l 264 782 l -14 782 l -14 918 l 931 918 l 931 782 z "},"ॼ":{"ha":956,"x_min":-14,"x_max":988,"o":"m 988 918 l 988 782 l 849 782 l 849 0 l 838 0 l 838 -74 l 69 -74 l 69 61 l 682 61 l 682 483 l 572 483 l 572 406 q 517 203 572 267 q 319 139 461 139 q 133 203 189 139 q 78 406 78 268 l 78 619 l 236 619 l 236 392 q 254 303 236 332 q 319 274 272 274 q 388 301 371 274 q 404 392 404 329 l 404 619 l 682 619 l 682 782 l -14 782 l -14 918 l 988 918 z "},"ॾ":{"ha":738,"x_min":-14,"x_max":751,"o":"m 317 539 q 256 527 275 539 q 238 482 238 515 q 245 447 238 464 q 265 419 253 429 l 414 419 q 618 368 549 419 q 688 207 688 317 q 619 33 688 90 q 418 -25 550 -25 l 406 -25 q 199 2 286 -25 q 28 83 113 29 l 89 214 q 243 134 172 158 q 393 110 314 110 l 410 110 q 521 199 521 110 q 493 264 519 243 q 414 285 467 285 l 176 285 q 104 372 138 314 q 71 496 71 431 q 130 635 71 594 q 317 675 189 675 l 426 675 l 426 782 l -14 782 l -14 918 l 751 918 l 751 782 l 594 782 l 594 636 l 590 636 l 590 539 l 317 539 m 69 -106 l 667 -106 l 667 -240 l 69 -240 l 69 -106 z "},"ॿ":{"ha":781,"x_min":-14,"x_max":794,"o":"m 794 918 l 794 782 l 656 782 l 656 0 l 643 0 l 643 -115 l 69 -115 l 69 21 l 488 21 l 488 186 q 333 150 411 150 l 319 150 q 106 204 174 151 q 39 392 39 257 q 106 578 39 524 q 313 633 172 633 l 329 633 q 374 631 350 633 q 413 626 397 629 l 413 492 q 340 497 368 497 l 324 497 l 315 497 l 478 313 l 488 318 l 488 782 l -14 782 l -14 918 l 794 918 m 353 286 l 369 286 l 221 456 q 206 392 206 432 q 237 308 206 329 q 340 286 268 286 l 353 286 z "},"⁄":{"ha":549,"x_min":-93,"x_max":642,"o":"m 486 1074 l 642 1074 l 63 -46 l -93 -46 l 486 1074 z "},"½":{"ha":1564,"x_min":90,"x_max":1538,"o":"m 90 0 m 451 303 l 451 182 l 90 182 l 90 303 l 206 303 l 206 814 l 110 814 l 110 935 l 336 935 l 336 303 l 451 303 m 999 1074 l 1154 1074 l 575 -46 l 419 -46 l 999 1074 m 1083 242 q 1265 442 1206 374 q 1354 564 1324 510 q 1385 665 1385 618 q 1278 769 1385 769 q 1107 728 1190 769 l 1107 850 q 1281 888 1192 888 q 1453 831 1389 888 q 1518 671 1518 775 q 1451 484 1518 581 q 1244 242 1385 388 l 1538 242 l 1538 121 l 1083 121 l 1083 242 z "},"¼":{"ha":1532,"x_min":90,"x_max":1518,"o":"m 90 0 m 451 303 l 451 182 l 90 182 l 90 303 l 206 303 l 206 814 l 110 814 l 110 935 l 336 935 l 336 303 l 451 303 m 999 1074 l 1154 1074 l 575 -46 l 419 -46 l 999 1074 m 1518 292 l 1439 292 l 1439 121 l 1308 121 l 1308 292 l 1008 292 l 1008 410 l 1299 886 l 1439 886 l 1439 410 l 1518 410 l 1518 292 m 1308 410 l 1308 678 l 1146 410 l 1308 410 z "},"¾":{"ha":1529,"x_min":61,"x_max":1515,"o":"m 61 0 m 379 581 q 469 506 439 551 q 500 403 500 461 q 429 228 500 290 q 236 167 358 167 q 61 194 135 167 l 61 317 q 226 285 138 285 q 327 315 289 285 q 365 403 365 346 q 324 487 365 458 q 207 515 283 515 l 140 515 l 140 643 l 207 643 q 317 669 279 643 q 356 746 356 694 q 325 808 356 785 q 236 831 294 831 q 71 803 143 831 l 71 924 q 236 949 142 949 q 426 894 361 949 q 490 746 490 840 q 379 581 490 635 m 996 1074 l 1151 1074 l 572 -46 l 417 -46 l 996 1074 m 1515 292 l 1436 292 l 1436 121 l 1306 121 l 1306 292 l 1006 292 l 1006 410 l 1296 886 l 1436 886 l 1436 410 l 1515 410 l 1515 292 m 1306 410 l 1306 678 l 1143 410 l 1306 410 z "},"¹":{"ha":542,"x_min":90,"x_max":451,"o":"m 451 303 l 451 182 l 90 182 l 90 303 l 206 303 l 206 814 l 110 814 l 110 935 l 336 935 l 336 303 l 451 303 z "},"²":{"ha":542,"x_min":61,"x_max":515,"o":"m 61 303 q 242 503 183 435 q 332 625 301 571 q 363 726 363 679 q 256 831 363 831 q 85 789 168 831 l 85 911 q 258 949 169 949 q 431 892 367 949 q 496 732 496 836 q 429 545 496 642 q 222 303 363 449 l 515 303 l 515 182 l 61 182 l 61 303 z "},"³":{"ha":542,"x_min":61,"x_max":500,"o":"m 379 581 q 469 506 439 551 q 500 403 500 461 q 429 228 500 290 q 236 167 358 167 q 61 194 135 167 l 61 317 q 226 285 138 285 q 327 315 289 285 q 365 403 365 346 q 324 487 365 458 q 207 515 283 515 l 140 515 l 140 643 l 207 643 q 317 669 279 643 q 356 746 356 694 q 325 808 356 785 q 236 831 294 831 q 71 803 143 831 l 71 924 q 236 949 142 949 q 426 894 361 949 q 490 746 490 840 q 379 581 490 635 z "},"०":{"ha":886,"x_min":99,"x_max":788,"o":"m 443 144 q 259 188 338 144 q 140 303 181 231 q 99 465 99 376 q 140 627 99 554 q 259 743 181 700 q 443 786 338 786 q 627 743 549 786 q 747 627 706 700 q 788 465 788 554 q 747 303 788 376 q 627 188 706 231 q 443 144 549 144 m 443 279 q 573 331 526 279 q 619 465 619 383 q 573 599 619 547 q 443 651 526 651 q 313 599 360 651 q 267 465 267 547 q 313 331 267 383 q 443 279 360 279 z "},"१":{"ha":667,"x_min":61,"x_max":619,"o":"m 619 667 q 549 434 619 532 q 360 289 478 336 l 549 71 l 440 -22 l 203 251 l 163 250 l 79 250 l 79 386 l 163 386 q 307 417 242 386 q 413 510 372 447 q 453 667 453 574 q 428 778 453 746 q 344 810 404 810 q 258 776 286 810 q 228 667 229 742 l 228 614 l 61 614 l 61 667 q 131 875 63 806 q 344 944 199 944 q 555 875 490 944 q 619 667 619 806 z "},"२":{"ha":686,"x_min":88,"x_max":635,"o":"m 635 135 l 635 0 l 551 0 q 165 368 165 0 l 88 368 l 88 504 l 240 504 q 383 533 338 504 q 431 643 429 563 q 383 753 429 724 q 240 782 338 782 l 88 782 l 88 918 l 240 918 q 509 854 422 918 q 597 643 596 790 q 531 451 596 515 q 332 372 467 388 l 332 368 q 392 185 333 235 q 551 135 450 135 l 635 135 z "},"३":{"ha":672,"x_min":54,"x_max":636,"o":"m 439 511 q 585 426 533 485 q 636 282 636 368 q 549 89 636 154 q 321 24 461 24 q 213 35 261 24 l 213 -71 l 54 -71 l 54 283 l 213 283 l 213 172 q 321 158 264 158 q 434 189 390 158 q 478 289 478 219 q 416 392 478 357 q 235 428 354 428 l 132 428 l 132 563 l 236 563 q 356 597 317 563 q 394 685 394 631 q 354 759 394 736 q 232 782 314 782 l 69 782 l 69 918 l 232 918 q 473 866 393 918 q 553 700 553 814 q 525 585 553 632 q 439 511 497 539 z "},"४":{"ha":797,"x_min":61,"x_max":736,"o":"m 736 850 q 718 685 736 747 q 667 586 700 624 q 572 508 633 549 l 531 482 q 637 375 600 432 q 674 232 674 318 q 640 101 674 160 q 544 10 607 43 q 399 -22 482 -22 q 253 10 315 -22 q 157 101 190 43 q 124 232 124 160 q 163 372 124 313 q 268 481 201 432 l 225 508 q 128 590 163 549 q 78 692 94 631 q 61 850 61 753 l 61 918 l 228 918 l 228 850 q 241 719 228 763 q 286 647 254 675 q 399 568 318 619 q 507 647 475 618 q 554 722 539 676 q 569 850 569 767 l 569 918 l 736 918 l 736 850 m 399 113 q 477 142 447 113 q 507 232 507 172 q 481 323 507 286 q 400 396 454 360 q 318 320 346 357 q 290 232 290 283 q 320 142 290 172 q 399 113 350 113 z "},"५":{"ha":794,"x_min":107,"x_max":688,"o":"m 688 749 l 688 224 q 604 38 688 99 q 374 -24 521 -24 q 251 -12 310 -24 q 150 19 193 0 l 124 172 q 230 127 175 143 q 356 111 285 111 q 476 141 432 111 q 521 251 521 171 l 521 340 q 375 307 454 307 q 172 367 238 307 q 107 578 107 426 l 107 918 l 274 918 l 274 578 q 299 473 274 503 q 385 443 324 443 q 521 479 463 443 l 521 749 l 688 749 z "},"६":{"ha":704,"x_min":47,"x_max":667,"o":"m 667 346 l 667 -28 l 500 -28 l 500 86 q 414 76 460 76 l 389 76 q 164 143 240 78 q 88 328 88 208 q 196 524 88 465 q 84 594 121 546 q 47 725 47 642 q 127 888 47 839 q 376 936 207 936 l 401 936 q 506 925 461 936 l 506 786 q 401 800 460 800 l 376 800 q 253 780 292 800 q 214 701 214 760 q 258 621 215 640 q 399 601 300 601 l 443 601 l 443 564 l 453 564 l 453 465 l 389 465 q 289 432 324 465 q 254 332 254 399 q 389 213 254 213 l 414 213 q 500 224 460 213 l 500 346 l 667 346 z "},"७":{"ha":819,"x_min":79,"x_max":740,"o":"m 410 35 q 224 70 296 35 q 115 188 151 106 q 79 407 79 269 l 79 918 l 247 918 l 247 415 q 265 263 247 317 q 317 190 282 210 q 410 169 351 169 q 501 190 465 169 q 554 263 536 210 q 572 415 572 317 l 572 772 q 567 801 572 793 q 546 810 561 810 q 526 801 532 810 q 519 772 519 792 l 519 636 l 351 636 l 351 782 q 397 897 351 857 q 546 936 443 936 q 694 897 649 936 q 740 782 740 857 l 740 407 q 658 120 740 206 q 410 35 575 35 z "},"८":{"ha":654,"x_min":19,"x_max":592,"o":"m 493 0 q 138 91 256 0 q 19 335 19 182 q 49 476 19 411 q 133 600 79 540 q 276 738 188 660 l 488 921 l 592 808 l 381 625 q 270 522 310 564 q 208 434 231 479 q 186 335 186 389 q 262 188 186 240 q 493 135 338 135 l 572 135 l 572 0 l 493 0 z "},"९":{"ha":724,"x_min":33,"x_max":700,"o":"m 379 186 l 349 214 q 181 372 243 308 q 76 512 118 436 q 33 668 33 588 q 114 869 33 803 q 343 936 194 936 q 541 869 471 936 q 611 668 611 803 l 611 581 l 444 581 l 444 668 q 332 800 444 800 q 236 769 269 800 q 203 668 203 739 q 233 557 203 610 q 310 457 263 504 q 444 333 357 410 l 485 297 l 700 104 l 594 -7 l 379 186 z "},"*":{"ha":858,"x_min":93,"x_max":765,"o":"m 538 867 l 765 761 l 689 628 l 483 772 l 506 522 l 353 522 l 375 772 l 169 628 l 93 761 l 321 867 l 93 972 l 169 1106 l 375 961 l 353 1211 l 506 1211 l 483 961 l 689 1106 l 765 972 l 538 867 z "},"\\":{"ha":589,"x_min":-17,"x_max":604,"o":"m -17 1293 l 172 1293 l 604 -246 l 415 -246 l -17 1293 z "},"·":{"ha":394,"x_min":97,"x_max":297,"o":"m 97 601 l 297 601 l 297 364 l 97 364 l 97 601 z "},"•":{"ha":482,"x_min":40,"x_max":442,"o":"m 242 328 q 141 355 188 328 q 67 428 94 382 q 40 529 40 475 q 67 631 40 585 q 140 703 94 676 q 242 729 186 729 q 385 672 328 729 q 442 529 442 615 q 415 428 442 474 q 343 355 389 382 q 242 328 297 328 z "},":":{"ha":394,"x_min":97,"x_max":297,"o":"m 97 0 m 97 238 l 297 238 l 297 0 l 97 0 l 97 238 m 97 786 l 297 786 l 297 549 l 97 549 l 97 786 z "},",":{"ha":394,"x_min":51,"x_max":329,"o":"m 135 238 l 329 238 l 219 -210 l 51 -210 l 135 238 z "},"…":{"ha":1183,"x_min":97,"x_max":1086,"o":"m 97 238 l 297 238 l 297 0 l 97 0 l 97 238 m 492 238 l 692 238 l 692 0 l 492 0 l 492 238 m 1086 238 l 1086 0 l 886 0 l 886 238 l 1086 238 z "},"!":{"ha":394,"x_min":92,"x_max":303,"o":"m 92 1053 l 303 1053 l 276 319 l 118 319 l 92 1053 m 97 228 l 297 228 l 297 0 l 97 0 l 97 228 z "},"¡":{"ha":394,"x_min":92,"x_max":303,"o":"m 97 1053 l 297 1053 l 297 825 l 97 825 l 97 1053 m 118 733 l 276 733 l 303 0 l 92 0 l 118 733 z "},"#":{"ha":976,"x_min":83,"x_max":892,"o":"m 757 561 l 733 375 l 850 375 l 850 208 l 713 208 l 685 0 l 515 0 l 542 208 l 367 208 l 339 0 l 169 0 l 196 208 l 83 208 l 83 375 l 218 375 l 242 561 l 125 561 l 125 728 l 263 728 l 290 936 l 460 936 l 433 728 l 608 728 l 636 936 l 806 936 l 779 728 l 892 728 l 892 561 l 757 561 m 588 561 l 411 561 l 388 375 l 564 375 l 588 561 z "},".":{"ha":394,"x_min":97,"x_max":297,"o":"m 97 238 l 297 238 l 297 0 l 97 0 l 97 238 z "},"?":{"ha":718,"x_min":75,"x_max":653,"o":"m 213 397 q 239 521 213 475 q 329 619 265 567 l 388 667 q 446 727 431 703 q 461 789 461 751 q 422 876 461 846 q 317 907 383 907 q 75 850 189 907 l 75 1021 q 203 1061 140 1050 q 335 1072 265 1072 q 564 1002 475 1072 q 653 803 653 932 q 618 664 653 717 q 517 556 583 611 l 476 522 q 417 457 433 485 q 401 382 401 429 l 401 319 l 213 319 l 213 397 m 207 228 l 407 228 l 407 0 l 207 0 l 207 228 z "},"¿":{"ha":718,"x_min":65,"x_max":643,"o":"m 340 983 l 482 983 l 482 894 l 340 894 l 340 983 m 383 -19 q 153 51 242 -19 q 65 250 65 121 q 100 389 65 336 q 201 497 135 442 l 242 531 q 301 596 285 568 q 317 671 317 624 l 317 733 l 506 733 l 506 656 q 479 533 506 578 q 389 433 453 488 l 329 386 q 272 326 286 350 q 257 264 257 301 q 296 176 257 207 q 401 146 335 146 q 643 203 526 146 l 643 32 q 515 -8 578 4 q 383 -19 453 -19 z "},"\"":{"ha":672,"x_min":113,"x_max":560,"o":"m 113 633 m 113 1053 l 282 1053 l 282 633 l 113 633 l 113 1053 m 390 1053 l 560 1053 l 560 633 l 390 633 l 390 1053 z "},"'":{"ha":394,"x_min":113,"x_max":282,"o":"m 113 1053 l 282 1053 l 282 633 l 113 633 l 113 1053 z "},";":{"ha":394,"x_min":51,"x_max":329,"o":"m 51 0 m 135 238 l 329 238 l 219 -210 l 51 -210 l 135 238 m 97 786 l 297 786 l 297 549 l 97 549 l 97 786 z "},"/":{"ha":589,"x_min":-17,"x_max":604,"o":"m 415 1293 l 604 1293 l 172 -246 l -17 -246 l 415 1293 z "},"_":{"ha":694,"x_min":0,"x_max":694,"o":"m 0 -107 l 694 -107 l 694 -275 l 0 -275 l 0 -107 z "},"{":{"ha":526,"x_min":53,"x_max":481,"o":"m 346 693 q 322 557 346 599 q 232 499 297 515 q 322 439 297 481 q 346 304 346 397 l 346 90 q 361 10 346 31 q 417 -11 376 -11 q 481 -6 453 -11 l 481 -174 q 396 -179 440 -179 q 257 -160 308 -179 q 181 -95 206 -142 q 157 35 157 -49 l 157 276 q 151 364 157 335 q 130 404 144 393 q 88 415 115 415 l 53 415 l 53 582 l 88 582 q 130 593 115 582 q 151 633 144 604 q 157 721 157 663 l 157 963 q 181 1092 157 1046 q 257 1158 206 1139 q 396 1176 308 1176 q 481 1171 440 1176 l 481 1003 q 417 1008 453 1008 q 361 988 376 1008 q 346 907 346 967 l 346 693 z "},"}":{"ha":450,"x_min":-31,"x_max":397,"o":"m 0 0 m 104 693 q 128 557 104 599 q 218 499 153 515 q 128 439 153 481 q 104 304 104 397 l 104 90 q 89 10 104 31 q 33 -11 74 -11 q -31 -6 -3 -11 l -31 -174 q 54 -179 10 -179 q 193 -160 142 -179 q 269 -95 244 -142 q 293 35 293 -49 l 293 276 q 299 364 293 335 q 320 404 306 393 q 363 415 335 415 l 397 415 l 397 582 l 363 582 q 320 593 335 582 q 299 633 306 604 q 293 721 293 663 l 293 963 q 269 1092 293 1046 q 193 1158 244 1139 q 54 1176 142 1176 q -31 1171 10 1176 l -31 1003 q 33 1008 -3 1008 q 89 988 74 1008 q 104 907 104 967 l 104 693 z "},"[":{"ha":468,"x_min":111,"x_max":413,"o":"m 413 -11 l 413 -179 l 111 -179 l 111 1176 l 406 1176 l 406 1008 l 300 1008 l 300 -11 l 413 -11 z "},"]":{"ha":468,"x_min":58,"x_max":357,"o":"m 357 -179 l 60 -179 l 60 -11 l 168 -11 l 168 1008 l 58 1008 l 58 1176 l 357 1176 l 357 -179 z "},"(":{"ha":508,"x_min":78,"x_max":463,"o":"m 329 -179 q 145 115 213 -47 q 78 499 78 278 q 145 882 78 719 q 329 1176 213 1044 l 463 1083 q 279 499 279 838 q 463 -86 279 160 l 329 -179 z "},")":{"ha":508,"x_min":46,"x_max":431,"o":"m 46 -86 q 229 499 229 160 q 46 1083 229 838 l 179 1176 q 363 882 296 1044 q 431 499 431 719 q 363 115 431 278 q 179 -179 296 -47 l 46 -86 z "},"—":{"ha":1389,"x_min":174,"x_max":1215,"o":"m 174 494 l 1215 494 l 1215 328 l 174 328 l 174 494 z "},"–":{"ha":694,"x_min":0,"x_max":694,"o":"m 0 494 l 694 494 l 694 328 l 0 328 l 0 494 z "},"-":{"ha":631,"x_min":111,"x_max":519,"o":"m 111 494 l 519 494 l 519 328 l 111 328 l 111 494 z "},"«":{"ha":1050,"x_min":139,"x_max":908,"o":"m 508 40 m 671 375 l 908 149 l 794 40 l 508 308 l 508 442 l 794 710 l 908 601 l 671 375 m 301 375 l 539 149 l 425 40 l 139 308 l 139 442 l 425 710 l 539 601 l 301 375 z "},"»":{"ha":1050,"x_min":142,"x_max":911,"o":"m 142 40 m 379 375 l 142 149 l 256 40 l 542 308 l 542 442 l 256 710 l 142 601 l 379 375 m 749 375 l 511 149 l 625 40 l 911 308 l 911 442 l 625 710 l 511 601 l 749 375 z "},"‹":{"ha":681,"x_min":139,"x_max":539,"o":"m 301 375 l 539 149 l 425 40 l 139 308 l 139 442 l 425 710 l 539 601 l 301 375 z "},"›":{"ha":681,"x_min":142,"x_max":542,"o":"m 142 40 m 379 375 l 142 149 l 256 40 l 542 308 l 542 442 l 256 710 l 142 601 l 379 375 z "},"„":{"ha":690,"x_min":51,"x_max":625,"o":"m 135 238 l 329 238 l 219 -210 l 51 -210 l 135 238 m 625 238 l 515 -210 l 347 -210 l 431 238 l 625 238 z "},"“":{"ha":690,"x_min":65,"x_max":639,"o":"m 233 1053 l 343 606 l 149 606 l 65 1053 l 233 1053 m 639 606 l 444 606 l 361 1053 l 529 1053 l 639 606 z "},"”":{"ha":690,"x_min":51,"x_max":625,"o":"m 51 606 m 135 1053 l 329 1053 l 219 606 l 51 606 l 135 1053 m 431 1053 l 625 1053 l 515 606 l 347 606 l 431 1053 z "},"‘":{"ha":394,"x_min":65,"x_max":343,"o":"m 65 606 m 149 606 l 343 606 l 233 1053 l 65 1053 l 149 606 z "},"’":{"ha":394,"x_min":51,"x_max":329,"o":"m 51 606 m 135 1053 l 329 1053 l 219 606 l 51 606 l 135 1053 z "},"‚":{"ha":394,"x_min":51,"x_max":329,"o":"m 51 0 m 135 238 l 329 238 l 219 -210 l 51 -210 l 135 238 z "},"ॽ":{"ha":664,"x_min":88,"x_max":597,"o":"m 597 636 q 528 435 597 504 q 311 356 458 365 l 311 0 l 144 0 l 144 489 l 254 489 q 389 523 347 489 q 431 636 431 557 q 384 748 431 714 q 240 782 338 782 l 88 782 l 88 918 l 240 918 q 508 849 418 918 q 597 636 597 779 z "},"।":{"ha":656,"x_min":351,"x_max":518,"o":"m 351 881 l 518 881 l 518 0 l 351 0 l 351 881 z "},"॥":{"ha":986,"x_min":351,"x_max":879,"o":"m 351 0 m 351 881 l 518 881 l 518 0 l 351 0 l 351 881 m 713 881 l 879 881 l 879 0 l 713 0 l 713 881 z "},"॰":{"ha":640,"x_min":68,"x_max":572,"o":"m 321 142 q 194 172 251 142 q 102 256 136 201 q 68 385 68 311 q 102 513 68 458 q 194 597 136 568 q 321 626 251 626 q 448 597 390 626 q 539 513 506 568 q 572 385 572 458 q 539 256 572 311 q 448 172 506 201 q 321 142 390 142 m 321 268 q 394 300 367 268 q 422 385 422 332 q 394 469 422 438 q 321 500 367 500 q 247 468 275 500 q 218 385 218 436 q 247 301 218 333 q 321 268 275 268 z "},"ॱ":{"ha":381,"x_min":79,"x_max":301,"o":"m 79 850 l 190 961 l 301 850 l 190 740 l 79 850 z "}," ":{"ha":306,"x_min":0,"x_max":0,"o":""},"‍":{"ha":0,"x_min":0,"x_max":0,"o":""},"":{"ha":833,"x_min":0,"x_max":0,"o":""},"¢":{"ha":764,"x_min":58,"x_max":736,"o":"m 736 49 q 546 -17 649 -1 l 546 -133 l 385 -133 l 385 -19 q 142 105 226 0 q 58 381 58 210 q 142 653 58 549 q 385 776 226 757 l 385 890 l 546 890 l 546 776 q 678 742 611 768 l 678 569 q 546 608 614 600 l 546 151 q 682 204 610 165 l 736 49 m 253 382 q 385 156 253 196 l 385 601 q 253 382 253 560 z "},"¤":{"ha":764,"x_min":56,"x_max":703,"o":"m 57 242 l 154 342 q 121 467 121 400 q 154 590 121 532 l 56 690 l 156 792 l 256 692 q 378 724 315 724 q 504 690 444 724 l 603 789 l 703 688 l 604 588 q 635 467 635 531 q 603 343 635 399 l 701 243 l 600 142 l 501 242 q 378 210 442 210 q 257 240 311 210 l 157 140 l 57 242 m 378 332 q 467 372 429 332 q 504 467 504 411 q 467 562 504 522 q 378 601 429 601 q 289 562 326 601 q 251 467 251 522 q 289 372 251 411 q 378 332 326 332 z "},"$":{"ha":788,"x_min":46,"x_max":726,"o":"m 726 263 q 653 71 725 144 q 451 -19 581 -3 l 451 -133 l 290 -133 l 290 -19 q 47 49 163 -10 l 47 222 q 290 146 161 161 l 290 390 l 288 392 q 109 488 172 425 q 46 669 46 550 q 115 867 46 794 q 314 951 185 939 l 314 1053 l 475 1053 l 475 949 q 671 886 571 936 l 671 717 q 475 782 583 765 l 475 533 l 493 528 q 669 433 611 496 q 726 263 726 371 m 231 683 q 251 619 231 642 q 314 581 271 596 l 314 788 q 231 683 231 771 m 542 247 q 519 306 542 285 q 451 343 497 328 l 451 149 q 522 184 501 158 q 542 247 542 210 z "},"€":{"ha":764,"x_min":44,"x_max":726,"o":"m 726 57 q 609 -4 669 15 q 471 -24 549 -24 q 154 288 207 -24 l 46 288 l 99 428 l 142 428 l 142 467 l 142 507 l 44 507 l 97 646 l 156 646 q 265 878 183 801 q 486 956 347 956 q 703 890 607 956 l 638 740 q 497 790 565 790 q 350 646 383 790 l 614 646 l 561 507 l 333 507 l 333 467 l 333 428 l 533 428 l 481 288 l 349 288 q 403 176 365 211 q 497 142 440 142 q 579 157 543 142 q 665 207 615 172 l 726 57 z "},"ƒ":{"ha":764,"x_min":143,"x_max":650,"o":"m 575 1025 q 513 1006 532 1025 q 490 943 494 988 l 471 758 l 632 758 l 600 590 l 454 590 l 360 -325 l 174 -325 l 268 590 l 143 590 l 143 758 l 285 758 l 304 953 q 342 1097 314 1046 q 424 1171 369 1149 q 575 1193 479 1193 q 650 1188 613 1193 l 650 1019 q 575 1025 617 1025 z "},"₹":{"ha":764,"x_min":58,"x_max":707,"o":"m 560 782 l 560 700 l 707 700 l 707 565 l 560 565 l 560 511 q 490 334 560 389 q 269 275 419 279 l 269 271 q 308 136 269 174 q 442 99 347 99 l 626 99 l 626 -37 l 442 -37 q 261 -12 335 -37 q 145 81 188 14 q 103 271 103 149 l 103 489 l 269 489 l 269 411 q 364 434 336 414 q 392 511 392 454 l 392 565 l 58 565 l 58 700 l 392 700 l 392 782 l 58 782 l 58 918 l 707 918 l 707 782 l 560 782 z "},"£":{"ha":764,"x_min":56,"x_max":715,"o":"m 715 168 l 715 0 l 56 0 l 56 168 l 188 168 l 188 404 l 97 404 l 97 571 l 188 571 l 188 663 q 213 831 188 768 q 300 925 239 894 q 469 956 361 956 q 565 949 517 956 q 638 931 613 942 l 638 758 q 494 788 571 788 q 401 760 428 788 q 374 664 374 733 l 374 571 l 571 571 l 571 404 l 374 404 l 374 168 l 715 168 z "},"¥":{"ha":764,"x_min":6,"x_max":760,"o":"m 532 511 l 681 511 l 681 371 l 476 371 l 476 292 l 681 292 l 681 153 l 476 153 l 476 0 l 288 0 l 288 153 l 83 153 l 83 292 l 288 292 l 288 371 l 83 371 l 83 511 l 233 511 l 6 936 l 192 936 l 382 567 l 574 936 l 760 936 l 532 511 z "},"≈":{"ha":764,"x_min":54,"x_max":708,"o":"m 496 478 q 426 490 457 478 q 354 525 394 503 q 329 538 349 528 q 294 553 310 549 q 264 558 278 558 q 205 542 233 558 q 133 490 176 526 l 54 603 q 156 689 110 660 q 256 718 203 718 q 328 706 296 718 q 400 671 360 693 q 448 646 428 654 q 488 638 468 638 q 548 653 521 638 q 619 706 575 668 l 699 593 q 596 506 642 535 q 496 478 550 478 m 504 200 q 434 213 465 200 q 363 247 403 225 q 313 272 332 264 q 274 281 293 281 q 215 265 242 281 q 142 213 188 250 l 63 325 q 166 411 119 382 q 265 440 213 440 q 338 428 306 440 q 410 393 369 415 q 458 368 439 376 q 496 360 476 360 q 557 375 529 360 q 629 428 585 390 l 708 315 q 606 228 651 257 q 504 200 560 200 z "},"~":{"ha":764,"x_min":50,"x_max":714,"o":"m 510 363 q 433 376 467 363 q 358 415 399 390 q 306 444 326 435 q 265 453 286 453 q 205 436 233 453 q 129 379 176 419 l 50 492 q 153 581 106 551 q 257 611 200 611 q 336 597 301 611 q 411 558 371 583 q 461 531 442 540 q 501 522 481 522 q 563 538 535 522 q 635 589 590 553 l 714 478 q 612 391 658 419 q 510 363 565 363 z "},"÷":{"ha":764,"x_min":93,"x_max":671,"o":"m 93 54 m 282 292 l 482 292 l 482 54 l 282 54 l 282 292 m 93 551 l 671 551 l 671 385 l 93 385 l 93 551 m 282 892 l 482 892 l 482 654 l 282 654 l 282 892 z "},"=":{"ha":764,"x_min":93,"x_max":671,"o":"m 93 690 l 671 690 l 671 524 l 93 524 l 93 690 m 93 413 l 671 413 l 671 246 l 93 246 l 93 413 z "},">":{"ha":764,"x_min":92,"x_max":671,"o":"m 92 94 m 469 464 l 92 242 l 172 94 l 671 389 l 671 540 l 171 835 l 92 686 l 469 464 z "},"≥":{"ha":764,"x_min":83,"x_max":671,"o":"m 83 0 m 469 511 l 83 329 l 150 193 l 671 444 l 671 578 l 150 839 l 83 703 l 469 511 m 671 168 l 93 168 l 93 0 l 671 0 l 671 168 z "},"∆":{"ha":1078,"x_min":39,"x_max":1038,"o":"m 1038 0 l 39 0 l 421 1065 l 654 1065 l 1038 0 m 783 168 l 538 856 l 293 168 l 783 168 z "},"∞":{"ha":764,"x_min":4,"x_max":760,"o":"m 539 701 q 699 635 638 701 q 760 467 760 569 q 699 297 760 363 q 539 231 638 231 q 439 256 483 231 q 367 326 394 282 q 301 272 340 292 q 214 251 261 251 q 106 279 154 251 q 31 356 58 307 q 4 467 4 406 q 31 577 4 528 q 106 654 58 626 q 214 682 154 682 q 301 662 261 682 q 367 607 340 642 q 439 676 394 651 q 539 701 483 701 m 529 372 q 591 398 568 372 q 614 467 614 424 q 591 534 614 508 q 529 560 568 560 q 467 534 490 560 q 443 467 443 508 q 467 398 443 424 q 529 372 490 372 m 224 393 q 277 412 257 393 q 297 467 297 431 q 277 522 297 503 q 224 540 257 540 q 170 522 190 540 q 150 467 150 503 q 170 412 150 431 q 224 393 190 393 z "},"∫":{"ha":764,"x_min":136,"x_max":628,"o":"m 508 1193 q 628 1178 563 1193 l 628 1017 q 551 1025 594 1025 q 492 1006 508 1025 q 475 936 475 986 l 475 -133 q 424 -296 475 -244 q 256 -347 372 -347 q 136 -333 206 -347 l 136 -171 q 213 -181 175 -181 q 273 -158 257 -181 q 289 -72 289 -135 l 289 997 q 342 1145 289 1097 q 508 1193 394 1193 z "},"<":{"ha":764,"x_min":93,"x_max":672,"o":"m 294 464 l 672 242 l 592 94 l 93 389 l 93 540 l 593 835 l 672 686 l 294 464 z "},"≤":{"ha":764,"x_min":93,"x_max":681,"o":"m 294 511 l 681 329 l 614 193 l 93 444 l 93 578 l 614 839 l 681 703 l 294 511 m 93 168 l 671 168 l 671 0 l 93 0 l 93 168 z "},"¬":{"ha":764,"x_min":93,"x_max":671,"o":"m 671 551 l 671 179 l 500 179 l 500 385 l 93 385 l 93 551 l 671 551 z "},"−":{"ha":764,"x_min":93,"x_max":671,"o":"m 93 551 l 671 551 l 671 385 l 93 385 l 93 551 z "},"≠":{"ha":833,"x_min":93,"x_max":671,"o":"m 496 524 l 465 413 l 671 413 l 671 246 l 418 246 l 383 125 l 194 125 l 229 246 l 93 246 l 93 413 l 276 413 l 307 524 l 93 524 l 93 690 l 356 690 l 385 797 l 574 797 l 544 690 l 671 690 l 671 524 l 496 524 z "},"∂":{"ha":857,"x_min":47,"x_max":801,"o":"m 386 1072 q 692 788 583 954 q 801 414 801 621 q 701 94 801 213 q 415 -24 601 -24 q 222 21 304 -24 q 93 149 139 65 q 47 346 47 233 q 92 549 47 465 q 213 674 138 632 q 375 715 288 715 q 539 674 463 715 q 242 944 443 832 l 386 1072 m 613 403 q 607 475 613 443 q 418 549 519 549 q 290 499 343 549 q 236 346 236 450 q 288 196 236 247 q 419 144 339 144 q 560 211 510 144 q 613 403 611 278 z "},"%":{"ha":1428,"x_min":38,"x_max":1390,"o":"m 929 1074 l 1085 1074 l 506 -46 l 350 -46 l 929 1074 m 331 432 q 176 472 243 432 q 74 578 110 511 q 38 726 38 644 q 74 874 38 808 q 176 979 110 940 q 331 1018 243 1018 q 485 979 418 1018 q 588 874 551 940 q 624 726 624 808 q 588 577 624 644 q 485 471 551 510 q 331 432 418 432 m 331 563 q 440 610 400 563 q 479 726 479 657 q 440 842 479 796 q 331 889 400 889 q 222 842 263 889 q 181 726 181 796 q 222 610 181 657 q 331 563 263 563 m 1097 -24 q 943 15 1010 -24 q 840 121 876 54 q 804 269 804 188 q 840 418 804 351 q 943 524 876 485 q 1097 563 1010 563 q 1251 524 1185 563 q 1354 418 1318 485 q 1390 269 1390 351 q 1354 121 1390 188 q 1251 15 1318 54 q 1097 -24 1185 -24 m 1097 106 q 1206 153 1167 106 q 1246 269 1246 200 q 1206 386 1246 340 q 1097 432 1167 432 q 988 385 1029 432 q 947 269 947 339 q 988 153 947 200 q 1097 106 1029 106 z "},"‰":{"ha":2071,"x_min":38,"x_max":2033,"o":"m 929 1074 l 1085 1074 l 506 -46 l 350 -46 l 929 1074 m 331 432 q 176 472 243 432 q 74 578 110 511 q 38 726 38 644 q 74 874 38 808 q 176 979 110 940 q 331 1018 243 1018 q 485 979 418 1018 q 588 874 551 940 q 624 726 624 808 q 588 577 624 644 q 485 471 551 510 q 331 432 418 432 m 331 563 q 440 610 400 563 q 479 726 479 657 q 440 842 479 796 q 331 889 400 889 q 222 842 263 889 q 181 726 181 796 q 222 610 181 657 q 331 563 263 563 m 1097 -24 q 943 15 1010 -24 q 840 121 876 54 q 804 269 804 188 q 840 418 804 351 q 943 524 876 485 q 1097 563 1010 563 q 1251 524 1185 563 q 1354 418 1318 485 q 1390 269 1390 351 q 1354 121 1390 188 q 1251 15 1318 54 q 1097 -24 1185 -24 m 1742 -24 q 1587 15 1654 -24 q 1483 121 1519 54 q 1447 269 1447 188 q 1483 418 1447 351 q 1587 524 1519 485 q 1742 563 1654 563 q 1895 524 1829 563 q 1997 418 1961 485 q 2033 269 2033 351 q 1997 121 2033 188 q 1895 15 1961 54 q 1742 -24 1829 -24 m 1097 106 q 1206 153 1167 106 q 1246 269 1246 200 q 1206 386 1246 340 q 1097 432 1167 432 q 988 385 1029 432 q 947 269 947 339 q 988 153 947 200 q 1097 106 1029 106 m 1742 106 q 1850 153 1810 106 q 1890 269 1890 200 q 1851 385 1890 339 q 1742 432 1811 432 q 1632 385 1672 432 q 1592 269 1592 339 q 1633 153 1592 200 q 1742 106 1674 106 z "},"+":{"ha":764,"x_min":93,"x_max":671,"o":"m 671 385 l 467 385 l 467 178 l 297 178 l 297 385 l 93 385 l 93 551 l 297 551 l 297 756 l 467 756 l 467 551 l 671 551 l 671 385 z "},"±":{"ha":764,"x_min":93,"x_max":671,"o":"m 93 0 m 671 385 l 467 385 l 467 178 l 297 178 l 297 385 l 93 385 l 93 551 l 297 551 l 297 756 l 467 756 l 467 551 l 671 551 l 671 385 m 93 121 l 671 121 l 671 -46 l 93 -46 l 93 121 z "},"∏":{"ha":1117,"x_min":129,"x_max":988,"o":"m 988 -329 l 794 -329 l 794 885 l 322 885 l 322 -329 l 129 -329 l 129 1053 l 988 1053 l 988 -329 z "},"√":{"ha":972,"x_min":35,"x_max":1065,"o":"m 1065 1304 l 611 -240 l 457 -240 l 218 326 l 124 257 l 35 403 l 289 583 l 525 22 l 892 1304 l 1065 1304 z "},"∑":{"ha":993,"x_min":111,"x_max":910,"o":"m 910 -161 l 910 -329 l 111 -329 l 111 -164 l 494 361 l 111 888 l 111 1053 l 892 1053 l 892 885 l 353 885 l 697 410 l 697 313 l 353 -161 l 910 -161 z "},"◌":{"ha":1069,"x_min":129,"x_max":940,"o":"m 536 742 q 496 758 513 742 q 479 799 479 775 q 496 838 479 821 q 536 856 513 856 q 576 838 558 856 q 593 799 593 821 q 576 758 593 775 q 536 742 558 742 m 358 697 q 319 714 336 697 q 303 754 303 731 q 319 794 303 778 q 358 811 336 811 q 399 794 382 811 q 415 754 415 778 q 399 715 415 732 q 358 697 382 697 m 708 697 q 669 715 686 697 q 651 754 651 732 q 669 794 651 778 q 708 811 686 811 q 749 794 732 811 q 765 754 765 778 q 749 714 765 731 q 708 697 732 697 m 229 568 q 189 585 206 568 q 172 625 172 601 q 189 665 172 649 q 229 682 206 682 q 269 665 253 682 q 286 625 286 649 q 269 585 286 601 q 229 568 253 568 m 840 568 q 800 585 817 568 q 783 625 783 601 q 801 665 783 649 q 840 682 818 682 q 881 665 864 682 q 897 625 897 649 q 881 585 897 601 q 840 568 864 568 m 186 392 q 146 408 163 392 q 129 449 129 425 q 146 489 129 472 q 186 506 163 506 q 226 489 210 506 q 243 449 243 472 q 226 409 243 426 q 186 392 210 392 m 883 392 q 844 409 861 392 q 828 449 828 426 q 844 489 828 472 q 883 506 861 506 q 924 489 907 506 q 940 449 940 472 q 924 408 940 425 q 883 392 907 392 m 229 217 q 189 233 206 217 q 172 274 172 250 q 189 313 172 297 q 229 329 206 329 q 269 313 253 329 q 286 274 286 296 q 269 234 286 251 q 229 217 253 217 m 840 217 q 801 234 818 217 q 783 274 783 251 q 800 313 783 296 q 840 329 817 329 q 881 313 864 329 q 897 274 897 297 q 881 233 897 250 q 840 217 864 217 m 358 85 q 319 101 336 85 q 303 142 303 118 q 319 181 303 165 q 358 197 336 197 q 399 181 382 197 q 415 142 415 164 q 399 102 415 119 q 358 85 382 85 m 708 85 q 669 102 686 85 q 651 142 651 119 q 668 181 651 164 q 708 197 685 197 q 749 181 732 197 q 765 142 765 165 q 749 101 765 118 q 708 85 732 85 m 536 42 q 496 58 513 42 q 479 99 479 75 q 496 139 479 122 q 536 156 513 156 q 576 139 558 156 q 593 99 593 122 q 576 59 593 76 q 536 42 558 42 z "},"◊":{"ha":764,"x_min":35,"x_max":739,"o":"m 739 468 l 463 0 l 313 0 l 35 468 l 311 936 l 463 936 l 739 468 m 544 467 l 386 735 l 231 469 l 388 201 l 544 467 z "},"|":{"ha":449,"x_min":129,"x_max":318,"o":"m 129 1176 l 318 1176 l 318 -179 l 129 -179 l 129 1176 z "},"¦":{"ha":449,"x_min":129,"x_max":318,"o":"m 129 1176 l 318 1176 l 318 654 l 129 654 l 129 1176 m 129 343 l 318 343 l 318 -179 l 129 -179 l 129 343 z "},"@":{"ha":1369,"x_min":75,"x_max":1294,"o":"m 908 221 q 901 183 901 197 q 957 138 901 138 q 1063 184 1018 138 q 1130 306 1107 231 q 1153 468 1153 382 q 1040 776 1153 668 q 725 885 926 885 q 474 813 590 885 q 287 610 357 740 q 217 317 217 481 q 333 -43 217 90 q 675 -176 450 -176 q 847 -151 765 -176 q 1021 -75 928 -125 l 1067 -190 q 874 -268 964 -242 q 675 -294 783 -294 q 363 -223 499 -294 q 151 -13 226 -151 q 75 317 75 125 q 163 673 75 517 q 401 916 251 829 q 725 1003 550 1003 q 1028 938 899 1003 q 1226 751 1157 872 q 1294 468 1294 631 q 1248 235 1294 338 q 1119 76 1201 133 q 931 19 1036 19 q 817 46 861 19 q 760 121 774 72 q 671 59 719 81 q 574 38 622 38 q 419 99 478 38 q 360 272 360 160 q 407 493 360 394 q 535 647 454 592 q 713 703 615 703 q 876 629 822 703 l 892 681 l 1044 681 l 908 221 m 603 169 q 775 282 696 169 l 842 511 q 725 572 793 572 q 615 532 664 572 q 540 425 567 492 q 511 283 513 358 q 534 196 511 222 q 603 169 557 169 z "},"&":{"ha":1131,"x_min":56,"x_max":1089,"o":"m 1089 168 l 1089 0 l 1013 0 q 872 22 940 0 q 735 88 804 43 q 425 -24 590 -24 q 151 56 246 -24 q 56 274 56 135 q 108 447 56 376 q 254 576 161 517 q 183 697 208 638 q 158 821 158 756 q 238 1012 158 942 q 443 1082 318 1082 q 648 1015 569 1082 q 726 829 726 947 q 672 678 726 747 q 528 553 617 608 l 513 543 q 728 321 614 424 q 799 489 774 394 q 825 692 824 583 l 1017 692 q 976 440 1017 563 q 863 218 936 318 q 1014 168 943 168 l 1089 168 m 443 926 q 350 821 350 926 q 364 747 350 782 q 408 669 378 713 l 433 685 q 508 753 482 714 q 535 832 535 793 q 513 900 535 874 q 443 926 492 926 m 247 279 q 292 180 247 218 q 425 142 336 142 q 600 192 524 142 q 360 446 496 289 q 272 368 296 404 q 247 279 247 332 z "},"¶":{"ha":1035,"x_min":56,"x_max":906,"o":"m 439 371 l 399 371 q 142 458 228 371 q 56 711 56 544 q 399 1053 56 1053 l 906 1053 l 906 -139 l 735 -139 l 735 888 l 610 888 l 610 -139 l 439 -139 l 439 371 z "},"©":{"ha":1299,"x_min":93,"x_max":1206,"o":"m 650 -24 q 369 48 497 -24 q 167 244 242 119 q 93 525 93 369 q 168 798 93 672 q 371 998 243 924 q 650 1072 499 1072 q 926 998 799 1072 q 1130 798 1054 924 q 1206 525 1206 672 q 1131 245 1206 371 q 928 48 1056 119 q 650 -24 800 -24 m 650 104 q 856 160 760 104 q 1008 313 951 215 q 1065 528 1065 410 q 1008 735 1065 639 q 854 888 950 831 q 650 944 758 944 q 442 888 538 944 q 290 734 346 831 q 233 525 233 638 q 290 310 233 406 q 441 159 346 214 q 650 104 536 104 m 668 215 q 496 256 567 215 q 389 368 425 297 q 353 525 353 439 q 433 747 353 661 q 668 833 513 833 q 744 827 711 833 q 813 806 776 821 l 813 663 q 668 696 750 696 q 550 649 593 696 q 507 528 507 601 q 549 400 507 446 q 668 354 590 354 q 749 364 710 354 q 832 393 788 374 l 860 264 q 764 228 814 240 q 668 215 714 215 z "},"®":{"ha":1001,"x_min":99,"x_max":903,"o":"m 501 1068 q 702 1014 610 1068 q 849 868 794 960 q 903 671 903 776 q 849 467 903 558 q 702 324 794 376 q 501 272 610 272 q 298 324 390 272 q 152 467 206 375 q 99 671 99 558 q 153 868 99 776 q 299 1014 207 960 q 501 1068 392 1068 m 501 375 q 649 414 581 375 q 757 521 717 453 q 797 674 797 589 q 756 819 797 751 q 647 926 715 886 q 501 965 579 965 q 353 925 421 965 q 244 817 285 885 q 204 671 204 750 q 244 519 204 586 q 351 413 283 451 q 501 375 419 375 m 664 736 q 592 614 664 644 l 683 469 l 567 469 l 489 599 l 440 599 l 440 469 l 338 469 l 338 872 l 504 872 q 664 736 664 872 m 440 686 l 488 686 q 543 697 528 686 q 558 736 558 707 q 543 774 558 763 q 488 785 528 785 l 440 785 l 440 686 z "},"§":{"ha":764,"x_min":43,"x_max":721,"o":"m 721 417 q 592 236 721 296 q 658 79 658 179 q 581 -84 658 -26 q 371 -142 504 -142 q 241 -133 299 -142 q 128 -101 183 -124 l 128 63 q 371 14 229 14 q 485 79 485 14 q 464 123 485 107 q 404 150 443 139 l 276 186 q 156 229 206 206 q 75 297 107 253 q 43 408 43 340 q 171 585 43 528 q 110 738 110 642 q 185 900 110 844 q 392 956 260 956 q 522 945 464 956 q 635 911 579 935 l 635 749 q 392 800 526 800 q 283 738 283 800 q 302 695 283 710 q 358 669 321 681 l 486 635 q 657 558 593 606 q 721 417 721 511 m 460 300 q 464 299 461 299 q 547 393 547 329 q 517 449 547 429 q 419 489 488 469 l 303 521 l 297 522 q 217 432 217 494 q 242 373 217 392 q 343 332 268 354 l 460 300 z "},"™":{"ha":1583,"x_min":56,"x_max":1454,"o":"m 586 904 l 401 904 l 401 300 l 240 300 l 240 904 l 56 904 l 56 1053 l 586 1053 l 586 904 m 1454 1053 l 1454 300 l 1293 300 l 1293 796 l 1117 556 l 1032 556 l 857 796 l 857 300 l 696 300 l 696 1053 l 838 1053 l 1075 726 l 1313 1053 l 1454 1053 z "},"°":{"ha":657,"x_min":47,"x_max":610,"o":"m 329 411 q 188 449 253 411 q 85 552 124 488 q 47 693 47 617 q 85 834 47 769 q 188 936 124 899 q 329 974 253 974 q 470 936 406 974 q 572 834 535 899 q 610 693 610 769 q 572 552 610 617 q 470 449 535 488 q 329 411 406 411 m 329 557 q 420 597 385 557 q 456 693 456 636 q 420 789 456 750 q 329 828 385 828 q 238 789 274 828 q 201 693 201 750 q 238 597 201 636 q 329 557 274 557 z "},"^":{"ha":763,"x_min":11,"x_max":751,"o":"m 603 165 l 381 543 l 158 165 l 11 246 l 306 744 l 457 744 l 751 244 l 603 165 z "},"†":{"ha":644,"x_min":44,"x_max":600,"o":"m 600 724 l 417 724 l 417 65 l 228 65 l 228 724 l 44 724 l 44 900 l 228 900 l 228 1118 l 417 1118 l 417 900 l 600 900 l 600 724 z "},"‡":{"ha":644,"x_min":44,"x_max":600,"o":"m 417 724 l 417 483 l 600 483 l 600 307 l 417 307 l 417 -249 l 228 -249 l 228 307 l 44 307 l 44 483 l 228 483 l 228 724 l 44 724 l 44 900 l 228 900 l 228 1118 l 417 1118 l 417 900 l 600 900 l 600 724 l 417 724 z "},"ऽ":{"ha":674,"x_min":-4,"x_max":632,"o":"m -4 135 l 172 135 q 335 163 288 135 q 382 263 382 192 q 353 345 382 310 q 265 431 325 381 q 183 507 214 475 q 129 585 151 539 q 107 690 107 632 q 171 857 107 796 q 372 918 235 918 l 632 918 l 632 782 l 418 782 q 306 761 339 782 q 274 690 274 740 q 301 614 274 649 q 386 532 329 579 q 470 453 438 488 q 526 372 503 419 q 549 263 549 324 q 218 0 549 0 l -4 0 l -4 135 z "},"ॐ":{"ha":1297,"x_min":35,"x_max":1250,"o":"m 813 986 l 701 1096 l 813 1206 l 924 1096 l 813 986 m 813 763 q 590 824 661 763 q 518 1007 518 885 l 518 1029 l 671 1029 l 671 1007 q 706 924 671 950 q 813 897 740 897 q 919 924 885 897 q 954 1007 954 950 l 954 1029 l 1107 1029 l 1107 1007 q 1036 823 1107 883 q 813 763 965 763 m 954 696 q 1128 662 1064 696 q 1222 557 1193 628 q 1250 371 1250 486 q 1219 179 1250 250 q 1124 78 1188 108 q 961 47 1061 47 l 940 47 q 738 103 807 47 q 654 294 668 160 l 496 294 q 385 111 492 167 q 115 56 278 56 l 35 56 l 35 190 l 115 190 q 328 322 328 190 q 290 402 328 376 q 169 428 253 428 l 99 428 l 99 563 l 171 563 q 289 594 250 563 q 328 678 328 625 q 285 758 328 735 q 157 782 243 782 l 78 782 l 78 918 l 157 918 q 413 867 331 918 q 496 700 496 817 q 465 581 496 631 q 369 500 433 532 q 463 429 429 481 l 653 429 q 733 635 663 574 q 954 696 804 696 m 961 182 q 1054 222 1025 182 q 1083 371 1083 261 q 1053 518 1083 476 q 954 560 1022 560 q 849 519 881 560 q 818 371 818 479 q 832 255 818 296 q 874 198 846 214 q 949 182 903 182 l 961 182 z "},"̦":{"ha":903,"x_min":-581,"x_max":-342,"o":"m -536 -111 l -342 -111 l -404 -342 l -581 -342 l -536 -111 z "},"´":{"ha":903,"x_min":300,"x_max":656,"o":"m 440 1124 l 656 1124 l 488 911 l 300 911 l 440 1124 z "},"˘":{"ha":903,"x_min":225,"x_max":681,"o":"m 451 904 q 285 951 346 904 q 225 1097 225 999 l 225 1121 l 368 1121 l 368 1101 q 388 1038 368 1058 q 451 1018 408 1018 q 515 1038 496 1018 q 535 1101 535 1058 l 535 1121 l 679 1121 l 679 1097 q 620 951 681 999 q 451 904 560 904 z "},"ˇ":{"ha":901,"x_min":189,"x_max":713,"o":"m 713 1124 l 572 911 l 329 911 l 189 1124 l 376 1124 l 451 983 l 525 1124 l 713 1124 z "},"¸":{"ha":903,"x_min":294,"x_max":629,"o":"m 479 -74 q 590 -112 551 -74 q 629 -212 629 -150 q 581 -324 629 -282 q 442 -365 533 -365 q 365 -360 400 -365 q 294 -337 331 -354 l 294 -228 q 422 -257 358 -257 q 493 -217 493 -257 q 478 -187 493 -197 q 424 -178 463 -178 q 315 -196 365 -178 l 372 1 l 499 1 l 474 -74 l 479 -74 z "},"ˆ":{"ha":901,"x_min":189,"x_max":713,"o":"m 525 911 l 451 1051 l 376 911 l 189 911 l 329 1124 l 572 1124 l 713 911 l 525 911 z "},"¨":{"ha":903,"x_min":221,"x_max":682,"o":"m 514 1113 l 682 1113 l 682 921 l 514 921 l 514 1113 m 221 1113 l 388 1113 l 388 921 l 221 921 l 221 1113 z "},"˙":{"ha":903,"x_min":358,"x_max":544,"o":"m 358 1113 l 544 1113 l 544 921 l 358 921 l 358 1113 z "},"`":{"ha":903,"x_min":249,"x_max":604,"o":"m 249 1124 l 463 1124 l 604 911 l 417 911 l 249 1124 z "},"˝":{"ha":901,"x_min":165,"x_max":789,"o":"m 593 1124 l 789 1124 l 621 911 l 451 911 l 593 1124 m 306 1124 l 501 1124 l 333 911 l 165 911 l 306 1124 z "},"¯":{"ha":901,"x_min":236,"x_max":665,"o":"m 236 1079 l 665 1079 l 665 957 l 236 957 l 236 1079 z "},"˛":{"ha":903,"x_min":290,"x_max":568,"o":"m 468 -347 q 335 -312 379 -347 q 290 -212 290 -276 q 415 0 290 -99 l 568 0 q 470 -95 506 -50 q 435 -183 435 -140 q 496 -235 435 -235 q 568 -218 535 -235 l 568 -329 q 468 -347 514 -347 z "},"˚":{"ha":901,"x_min":294,"x_max":607,"o":"m 451 889 q 335 924 375 889 q 294 1017 294 960 q 333 1108 294 1074 q 451 1143 372 1143 q 567 1108 528 1143 q 607 1017 607 1074 q 567 924 607 960 q 451 889 528 889 m 451 968 q 490 981 476 968 q 504 1017 504 993 q 490 1051 504 1039 q 451 1064 476 1064 q 411 1051 425 1064 q 397 1017 397 1039 q 411 981 397 993 q 451 968 425 968 z "},"˜":{"ha":901,"x_min":210,"x_max":692,"o":"m 210 922 q 247 1063 211 1024 q 343 1103 283 1103 q 425 1086 388 1103 l 476 1065 q 525 1053 510 1053 q 558 1103 558 1053 l 692 1103 q 654 962 690 1001 q 558 922 618 922 q 478 939 522 922 l 426 960 q 376 972 393 972 q 343 922 343 972 l 210 922 z "},"ु":{"ha":0,"x_min":-633,"x_max":122,"o":"m -171 -444 q -426 -390 -314 -444 q -633 -253 -539 -336 l -544 -150 q -373 -267 -460 -225 q -181 -310 -286 -310 q -81 -286 -115 -310 q -46 -217 -46 -262 q -73 -156 -46 -178 q -151 -133 -100 -133 l -306 -133 l -306 1 l -132 1 q 51 -54 -18 1 q 122 -210 121 -110 q 43 -385 122 -326 q -171 -444 -36 -444 z "},"ू":{"ha":0,"x_min":-510,"x_max":253,"o":"m -257 -433 q -439 -378 -369 -433 q -510 -222 -508 -322 q -431 -47 -510 -107 q -217 13 -351 13 q -15 -33 -101 13 q 128 -143 71 -78 q 253 -307 186 -208 l 128 -389 q 21 -240 64 -293 q -78 -155 -22 -187 q -207 -122 -133 -122 q -342 -217 -342 -122 q -315 -277 -342 -256 q -236 -299 -287 -299 l -129 -299 l -129 -433 l -257 -433 z "},"ृ":{"ha":0,"x_min":-419,"x_max":-10,"o":"m -167 -367 q -358 -318 -296 -367 q -419 -162 -419 -269 q -361 -12 -419 -65 q -181 42 -303 42 l -107 42 l -107 -85 l -171 -85 q -261 -162 -261 -85 q -235 -223 -261 -204 q -157 -242 -208 -242 q -84 -229 -119 -242 q -10 -189 -49 -217 l -10 -325 q -167 -367 -85 -367 z "},"ॄ":{"ha":0,"x_min":-411,"x_max":24,"o":"m -124 -417 q 24 -374 -43 -417 l 24 -510 q -133 -543 -43 -543 q -317 -501 -258 -543 q -376 -368 -376 -460 q -311 -237 -376 -281 q -388 -182 -365 -218 q -411 -96 -411 -146 q -360 26 -411 -17 q -189 69 -308 69 q -101 63 -140 69 l -101 -64 q -179 -57 -136 -57 q -237 -72 -221 -57 q -253 -114 -253 -86 q -231 -158 -253 -143 q -144 -172 -208 -172 l -74 -172 l -74 -261 l -82 -261 l -82 -289 l -137 -289 q -218 -349 -218 -289 q -197 -401 -218 -386 q -124 -417 -175 -417 z "},"ॢ":{"ha":0,"x_min":-726,"x_max":10,"o":"m -103 -535 q 10 -496 -47 -535 l 10 -624 q -136 -657 -35 -657 q -267 -617 -218 -657 q -317 -511 -317 -576 q -297 -437 -317 -468 q -237 -365 -276 -406 q -192 -312 -207 -335 q -176 -265 -176 -290 q -236 -210 -176 -210 q -289 -233 -271 -210 q -307 -299 -307 -257 l -307 -347 l -429 -347 l -429 -299 q -447 -233 -429 -256 q -501 -210 -465 -210 q -557 -235 -537 -210 q -576 -307 -576 -261 q -544 -406 -575 -368 q -433 -444 -514 -444 l -422 -444 l -422 -568 l -433 -568 q -658 -492 -590 -568 q -726 -303 -726 -415 q -675 -132 -726 -194 q -525 -69 -624 -69 q -371 -147 -422 -69 q -293 -83 -340 -103 l -293 97 l -125 97 l -125 -85 q -52 -150 -78 -106 q -26 -249 -26 -194 q -50 -351 -26 -311 q -115 -436 -74 -392 q -147 -472 -137 -458 q -157 -499 -157 -485 q -103 -535 -157 -535 z "},"ॣ":{"ha":0,"x_min":-726,"x_max":38,"o":"m -68 -744 q 38 -710 -15 -744 l 38 -837 q -101 -867 -3 -867 q -233 -830 -186 -867 q -281 -725 -281 -793 q -249 -628 -281 -674 q -317 -511 -317 -582 q -297 -437 -317 -468 q -237 -365 -276 -406 q -192 -312 -207 -335 q -176 -265 -176 -290 q -237 -210 -176 -210 q -289 -233 -271 -210 q -307 -299 -307 -257 l -307 -344 l -335 -344 l -335 -347 l -429 -347 l -429 -299 q -447 -233 -429 -256 q -501 -210 -465 -210 q -557 -235 -537 -210 q -576 -307 -576 -261 q -544 -406 -575 -368 q -433 -444 -514 -444 l -422 -444 l -422 -568 l -433 -568 q -658 -492 -590 -568 q -726 -303 -726 -415 q -675 -132 -726 -194 q -525 -69 -624 -69 q -371 -147 -422 -69 q -293 -83 -340 -103 l -293 97 l -125 97 l -125 -86 q -52 -151 -78 -107 q -26 -249 -26 -194 q -50 -351 -26 -311 q -115 -436 -74 -392 q -147 -472 -137 -458 q -157 -499 -157 -485 q -103 -535 -157 -535 q -11 -506 -61 -535 l -11 -633 q -97 -656 -39 -651 l -103 -656 q -122 -706 -122 -683 q -109 -735 -122 -726 q -68 -744 -96 -744 z "},"ॅ":{"ha":0,"x_min":-486,"x_max":103,"o":"m -192 986 q -415 1047 -343 986 q -486 1231 -486 1108 l -486 1253 l -333 1253 l -333 1231 q -299 1147 -333 1174 q -192 1121 -264 1121 q -85 1147 -119 1121 q -50 1231 -50 1174 l -50 1253 l 103 1253 l 103 1231 q 32 1047 103 1107 q -192 986 -39 986 z "},"ँ":{"ha":0,"x_min":-486,"x_max":103,"o":"m 0 986 m -192 986 q -415 1047 -343 986 q -486 1231 -486 1108 l -486 1253 l -333 1253 l -333 1231 q -299 1147 -333 1174 q -192 1121 -264 1121 q -85 1147 -119 1121 q -50 1231 -50 1174 l -50 1253 l 103 1253 l 103 1231 q 32 1047 103 1107 q -192 986 -39 986 m -303 1331 l -192 1440 l -81 1331 l -192 1221 l -303 1331 z "},"ॆ":{"ha":833,"x_min":-1787,"x_max":-940,"o":"m -1107 936 q -1135 1035 -1107 1007 q -1244 1064 -1164 1064 l -1476 1064 q -1666 1093 -1599 1064 q -1760 1181 -1733 1122 q -1787 1338 -1787 1239 l -1787 1376 l -1621 1376 l -1621 1338 q -1610 1255 -1621 1283 q -1569 1213 -1600 1226 q -1476 1200 -1539 1200 l -1244 1200 q -1049 1172 -1114 1200 q -962 1090 -983 1144 q -940 936 -940 1035 l -940 867 l -1107 867 l -1107 936 z "},"े":{"ha":0,"x_min":-562,"x_max":-106,"o":"m -314 1047 q -355 1133 -328 1111 q -440 1156 -382 1156 l -562 1156 l -562 1292 l -440 1292 q -297 1274 -350 1292 q -206 1203 -243 1256 q -146 1047 -169 1151 l -106 867 l -272 867 l -314 1047 z "},"ै":{"ha":0,"x_min":-712,"x_max":-106,"o":"m -106 867 l -272 867 l -356 971 q -440 1035 -394 1018 q -576 1051 -485 1051 l -712 1051 l -712 1186 l -576 1186 q -404 1163 -462 1186 q -293 1079 -346 1140 l -315 1181 q -361 1250 -328 1232 q -465 1268 -394 1268 l -587 1268 l -587 1404 l -465 1404 q -322 1388 -376 1404 q -233 1323 -268 1371 q -176 1181 -197 1275 l -106 867 z "},"ं":{"ha":0,"x_min":-303,"x_max":-81,"o":"m -303 1083 l -192 1193 l -81 1083 l -192 974 l -303 1083 z "},"्":{"ha":0,"x_min":-315,"x_max":63,"o":"m -315 -194 l -218 -85 l 63 -301 l -36 -411 l -315 -194 z "},"़":{"ha":0,"x_min":-379,"x_max":-158,"o":"m -379 -162 l -268 -51 l -158 -162 l -268 -272 l -379 -162 z "},"ऺ":{"ha":0,"x_min":-274,"x_max":-107,"o":"m -274 1254 l -107 1254 l -107 851 l -274 851 l -274 1254 z "},"ॖ":{"ha":0,"x_min":-526,"x_max":143,"o":"m -192 -301 q -391 -256 -303 -301 q -526 -135 -479 -210 l -424 -53 q -317 -137 -374 -108 q -192 -165 -261 -165 q -66 -137 -122 -165 q 40 -53 -10 -108 l 143 -135 q 8 -256 96 -210 q -192 -301 -81 -301 z "},"ॗ":{"ha":0,"x_min":-526,"x_max":143,"o":"m -192 -301 q -391 -256 -303 -301 q -526 -135 -479 -210 l -424 -53 q -317 -137 -374 -108 q -192 -165 -261 -165 q -66 -137 -122 -165 q 40 -53 -10 -108 l 143 -135 q 8 -256 96 -210 q -192 -301 -81 -301 m -192 -551 q -391 -506 -303 -551 q -526 -385 -479 -460 l -424 -303 q -317 -387 -374 -358 q -192 -415 -261 -415 q -66 -387 -122 -415 q 40 -303 -10 -358 l 143 -385 q 8 -506 96 -460 q -192 -551 -81 -551 z "},"॑":{"ha":0,"x_min":-274,"x_max":-107,"o":"m -274 1392 l -107 1392 l -107 1026 l -274 1026 l -274 1392 z "},"॒":{"ha":0,"x_min":-535,"x_max":107,"o":"m -535 -278 l 107 -278 l 107 -432 l -535 -432 l -535 -278 z "},"॓":{"ha":0,"x_min":-600,"x_max":-186,"o":"m -600 1376 l -401 1376 l -186 1064 l -351 1064 l -600 1376 z "},"॔":{"ha":0,"x_min":-297,"x_max":117,"o":"m -82 1376 l 117 1376 l -132 1064 l -297 1064 l -82 1376 z "},"ः":{"ha":419,"x_min":99,"x_max":319,"o":"m 99 601 l 208 713 l 319 601 l 208 492 l 99 601 m 99 136 l 208 247 l 319 136 l 208 28 l 99 136 z "}}}
